{
.appVersion = "1357";
DisplayStrings = (
"/ma-tangsa/ez-tangsa/ec-tangsa/ma-tangsa/oc-tangsa/oq-tangsa/ox-tangsa/ox-tangsa/az-tangsa/ac-tangsa/aq-tangsa/ax-tangsa/vz-tangsa/vc-tangsa/vq-tangsa/vx-tangsa/eq-tangsa/ex-tangsa/iz-tangsa/ic-tangsa/iq-tangsa/ix-tangsa/uz-tangsa/uc-tangsa/uq-tangsa/oz-tangsa/ux-tangsa/oz-tangsa/awxshort-tangsa/nha-tangsa/ux-tangsa/awz-tangsa/awc-tangsa/awq-tangsa/awx-tangsa/uiz-tangsa/uic-tangsa \012/uiq-tangsa/uix-tangsa/ma-tangsa/ngfinal-tangsa/uexlong-tangsa/uezshort-tangsa/oz-tangsa/oz-tangsa/awxshort-tangsa/uec-tangsa/uez-tangsa/ueq-tangsa/uex-tangsa/uix-tangsa/uiuz-tangsa/uiuc-tangsa/uiuq-tangsa/oq-tangsa/uiux-tangsa/awz-tangsa/mz-tangsa/mc-tangsa/mq-tangsa/mx-tangsa/awx-tangsa/ka-tangsa/kha-tangsa/ga-tangsa/nga-tangsa/sa-tangsa/ya-tangsa/wa-tangsa/space \012/pa-tangsa/hta-tangsa/nya-tangsa/pha-tangsa/ta-tangsa/ba-tangsa/ma-tangsa/na-tangsa/ha-tangsa/la-tangsa/da-tangsa/iz-tangsa/ra-tangsa/nha-tangsa/sa-tangsa/sha-tangsa/ca-tangsa/tsa-tangsa/gha-tangsa/htta-tangsa/tha-tangsa/pa-tangsa/pa-tangsa/xa-tangsa/fa-tangsa/dha-tangsa/cha-tangsa/za-tangsa/zero-tangsa/one-tangsa/two-tangsa/three-tangsa/four-tangsa/five-tangsa/six-tangsa/seven-tangsa/eight-tangsa/nine-tangsa \012/ngfinal-tangsa/nha-tangsa/oz-tangsa/ma-tangsa/nha-tangsa/ma-tangsa/oc-tangsa/nha-tangsa/sa-tangsa/iz-tangsa/iz-tangsa/ic-tangsa/iq-tangsa/ix-tangsa/ra-tangsa \012/uiz-tangsa/uic-tangsa/uz-tangsa/uiuq-tangsa/uiux-tangsa/uix-tangsa/awx-tangsa/ka-tangsa/kha-tangsa/nga-tangsa/wa-tangsa/five-tangsa/eight-tangsa \012/ba-tangsa/ba-tangsa/Placeholder/la-tangsa/la-tangsa/uiuq-tangsa/uiuq-tangsa/Placeholder/uiuq-tangsa/uiuq-tangsa \012/mz-tangsa/mz-tangsa/Placeholder/mz-tangsa/mz-tangsa/zero-tangsa/zero-tangsa/Placeholder/zero-tangsa/zero-tangsa \012/nha-tangsa/nha-tangsa/Placeholder/oz-tangsa/oz-tangsa/aq-tangsa/aq-tangsa/Placeholder/sa-tangsa/sa-tangsa/space/space/space",
"/sa-tangsa/ha-tangsa/tha-tangsa/uic-tangsa/ka-tangsa/uix-tangsa/mz-tangsa"
);

glyphs = (
{
glyphname = "oz-tangsa";
lastChange = "2022-01-07 13:34:12 +0000";
layers = (
{
layerId = "134B12F2-BF5D-48E3-8003-C7502B438C7E";
paths = (
{
closed = 1;
nodes = (
"381 335 LINE",
"331 371 OFFCURVE",
"281 396 OFFCURVE",
"221 396 CURVE SMOOTH",
"122 396 OFFCURVE",
"31 327 OFFCURVE",
"31 198 CURVE SMOOTH",
"31 76 OFFCURVE",
"114 -10 OFFCURVE",
"234 -10 CURVE SMOOTH",
"334 -10 OFFCURVE",
"431 64 OFFCURVE",
"431 201 CURVE SMOOTH",
"431 714 LINE",
"307 714 LINE",
"307 206 LINE SMOOTH",
"307 139 OFFCURVE",
"267 115 OFFCURVE",
"228 115 CURVE SMOOTH",
"183 115 OFFCURVE",
"144 148 OFFCURVE",
"144 195 CURVE SMOOTH",
"144 248 OFFCURVE",
"182 277 OFFCURVE",
"225 277 CURVE SMOOTH",
"266 277 OFFCURVE",
"300 262 OFFCURVE",
"352 229 CURVE"
);
}
);
width = 495;
},
{
layerId = "9FF96064-8718-4A86-A5C8-73C592101F67";
paths = (
{
closed = 1;
nodes = (
"360 329 LINE",
"319 354 OFFCURVE",
"273 370 OFFCURVE",
"226 370 CURVE SMOOTH",
"129 370 OFFCURVE",
"40 305 OFFCURVE",
"40 181 CURVE SMOOTH",
"40 66 OFFCURVE",
"119 -10 OFFCURVE",
"224 -10 CURVE SMOOTH",
"312 -10 OFFCURVE",
"394 46 OFFCURVE",
"394 186 CURVE SMOOTH",
"394 714 LINE",
"324 714 LINE",
"324 197 LINE SMOOTH",
"324 104 OFFCURVE",
"273 65 OFFCURVE",
"218 65 CURVE SMOOTH",
"160 65 OFFCURVE",
"107 108 OFFCURVE",
"107 182 CURVE SMOOTH",
"107 260 OFFCURVE",
"165 299 OFFCURVE",
"229 299 CURVE SMOOTH",
"269 299 OFFCURVE",
"308 283 OFFCURVE",
"342 260 CURVE"
);
}
);
width = 475;
}
);
leftKerningGroup = "oz-tangsa";
rightKerningGroup = "oz-tangsa";
unicode = 16A70;
script = tangsa;
category = Letter;
subCategory = Other;
},
{
glyphname = "oc-tangsa";
lastChange = "2022-01-07 13:32:52 +0000";
layers = (
{
layerId = "134B12F2-BF5D-48E3-8003-C7502B438C7E";
paths = (
{
closed = 1;
nodes = (
"51 85 OFFCURVE",
"146 -10 OFFCURVE",
"279 -10 CURVE SMOOTH",
"357 -10 OFFCURVE",
"417 18 OFFCURVE",
"459 68 CURVE SMOOTH",
"490 105 OFFCURVE",
"508 152 OFFCURVE",
"508 200 CURVE SMOOTH",
"508 295 OFFCURVE",
"446 359 OFFCURVE",
"330 414 CURVE",
"184 359 LINE",
"332 303 OFFCURVE",
"380 258 OFFCURVE",
"380 207 CURVE SMOOTH",
"380 160 OFFCURVE",
"339 126 OFFCURVE",
"280 126 CURVE SMOOTH",
"222 126 OFFCURVE",
"174 153 OFFCURVE",
"174 204 CURVE SMOOTH",
"174 253 OFFCURVE",
"224 290 OFFCURVE",
"305 327 CURVE SMOOTH",
"355 350 LINE SMOOTH",
"458 397 OFFCURVE",
"497 456 OFFCURVE",
"497 535 CURVE SMOOTH",
"497 665 OFFCURVE",
"383 724 OFFCURVE",
"271 724 CURVE SMOOTH",
"157 724 OFFCURVE",
"64 665 OFFCURVE",
"64 558 CURVE SMOOTH",
"64 494 OFFCURVE",
"101 451 OFFCURVE",
"151 420 CURVE",
"217 521 LINE",
"201 529 OFFCURVE",
"191 540 OFFCURVE",
"191 553 CURVE SMOOTH",
"191 581 OFFCURVE",
"235 596 OFFCURVE",
"278 596 CURVE SMOOTH",
"337 596 OFFCURVE",
"372 569 OFFCURVE",
"372 532 CURVE SMOOTH",
"372 513 OFFCURVE",
"363 496 OFFCURVE",
"346 481 CURVE SMOOTH",
"328 465 OFFCURVE",
"302 450 OFFCURVE",
"271 435 CURVE SMOOTH",
"217 408 LINE SMOOTH",
"113 356 OFFCURVE",
"51 285 OFFCURVE",
"51 199 CURVE SMOOTH"
);
}
);
width = 562;
},
{
layerId = "9FF96064-8718-4A86-A5C8-73C592101F67";
paths = (
{
closed = 1;
nodes = (
"63 67 OFFCURVE",
"146 -10 OFFCURVE",
"263 -10 CURVE SMOOTH",
"330 -10 OFFCURVE",
"392 20 OFFCURVE",
"425 67 CURVE SMOOTH",
"450 102 OFFCURVE",
"461 143 OFFCURVE",
"461 186 CURVE SMOOTH",
"461 280 OFFCURVE",
"413 347 OFFCURVE",
"317 387 CURVE",
"238 359 LINE",
"351 314 OFFCURVE",
"393 264 OFFCURVE",
"393 200 CURVE SMOOTH",
"393 119 OFFCURVE",
"343 68 OFFCURVE",
"264 68 CURVE SMOOTH",
"187 68 OFFCURVE",
"130 112 OFFCURVE",
"130 190 CURVE SMOOTH",
"130 259 OFFCURVE",
"174 305 OFFCURVE",
"258 344 CURVE SMOOTH",
"329 377 LINE SMOOTH",
"420 419 OFFCURVE",
"453 475 OFFCURVE",
"453 548 CURVE SMOOTH",
"453 658 OFFCURVE",
"375 724 OFFCURVE",
"262 724 CURVE SMOOTH",
"158 724 OFFCURVE",
"72 669 OFFCURVE",
"72 569 CURVE SMOOTH",
"72 504 OFFCURVE",
"111 462 OFFCURVE",
"171 440 CURVE",
"205 501 LINE",
"161 518 OFFCURVE",
"143 536 OFFCURVE",
"143 565 CURVE SMOOTH",
"143 619 OFFCURVE",
"197 652 OFFCURVE",
"262 652 CURVE SMOOTH",
"339 652 OFFCURVE",
"384 605 OFFCURVE",
"384 544 CURVE SMOOTH",
"384 515 OFFCURVE",
"375 488 OFFCURVE",
"350 467 CURVE SMOOTH",
"327 448 OFFCURVE",
"309 436 OFFCURVE",
"260 413 CURVE SMOOTH",
"206 387 LINE SMOOTH",
"109 340 OFFCURVE",
"63 271 OFFCURVE",
"63 188 CURVE SMOOTH"
);
}
);
width = 522;
}
);
unicode = 16A71;
script = tangsa;
category = Letter;
subCategory = Other;
},
{
glyphname = "oq-tangsa";
lastChange = "2022-01-07 11:21:35 +0000";
layers = (
{
layerId = "9FF96064-8718-4A86-A5C8-73C592101F67";
paths = (
{
closed = 1;
nodes = (
"614 -10 OFFCURVE",
"718 219 OFFCURVE",
"718 440 CURVE SMOOTH",
"718 606 OFFCURVE",
"644 726 OFFCURVE",
"516 726 CURVE SMOOTH",
"416 726 OFFCURVE",
"355 642 OFFCURVE",
"355 508 CURVE SMOOTH",
"355 302 OFFCURVE",
"503 126 OFFCURVE",
"673 -5 CURVE",
"720 45 LINE",
"562 172 OFFCURVE",
"427 310 OFFCURVE",
"427 502 CURVE SMOOTH",
"427 595 OFFCURVE",
"466 648 OFFCURVE",
"525 648 CURVE SMOOTH",
"603 648 OFFCURVE",
"646 570 OFFCURVE",
"646 447 CURVE SMOOTH",
"646 248 OFFCURVE",
"568 68 OFFCURVE",
"370 68 CURVE SMOOTH",
"235 68 OFFCURVE",
"127 177 OFFCURVE",
"127 363 CURVE SMOOTH",
"127 535 OFFCURVE",
"214 650 OFFCURVE",
"337 650 CURVE SMOOTH",
"371 650 OFFCURVE",
"402 641 OFFCURVE",
"433 623 CURVE",
"497 660 LINE",
"447 702 OFFCURVE",
"389 724 OFFCURVE",
"328 724 CURVE SMOOTH",
"170 724 OFFCURVE",
"54 586 OFFCURVE",
"54 365 CURVE SMOOTH",
"54 155 OFFCURVE",
"180 -10 OFFCURVE",
"373 -10 CURVE SMOOTH"
);
}
);
width = 778;
},
{
layerId = "134B12F2-BF5D-48E3-8003-C7502B438C7E";
paths = (
{
closed = 1;
nodes = (
"645 -10 OFFCURVE",
"763 225 OFFCURVE",
"763 421 CURVE SMOOTH",
"763 611 OFFCURVE",
"666 724 OFFCURVE",
"523 724 CURVE SMOOTH",
"410 724 OFFCURVE",
"339 636 OFFCURVE",
"339 497 CURVE SMOOTH",
"339 298 OFFCURVE",
"499 118 OFFCURVE",
"688 -17 CURVE",
"775 76 LINE",
"608 198 OFFCURVE",
"464 330 OFFCURVE",
"464 491 CURVE SMOOTH",
"464 556 OFFCURVE",
"496 595 OFFCURVE",
"537 595 CURVE SMOOTH",
"590 595 OFFCURVE",
"638 541 OFFCURVE",
"638 429 CURVE SMOOTH",
"638 272 OFFCURVE",
"569 126 OFFCURVE",
"395 126 CURVE SMOOTH",
"267 126 OFFCURVE",
"172 209 OFFCURVE",
"172 359 CURVE SMOOTH",
"172 500 OFFCURVE",
"256 599 OFFCURVE",
"354 599 CURVE SMOOTH",
"385 599 OFFCURVE",
"414 587 OFFCURVE",
"447 567 CURVE",
"514 660 LINE",
"455 702 OFFCURVE",
"400 724 OFFCURVE",
"343 724 CURVE SMOOTH",
"178 724 OFFCURVE",
"45 581 OFFCURVE",
"45 361 CURVE SMOOTH",
"45 150 OFFCURVE",
"178 -10 OFFCURVE",
"395 -10 CURVE SMOOTH"
);
}
);
width = 815;
}
);
leftKerningGroup = "oq-tangsa";
unicode = 16A72;
script = tangsa;
category = Letter;
subCategory = Other;
},
{
glyphname = "ox-tangsa";
lastChange = "2022-01-07 13:07:32 +0000";
layers = (
{
layerId = "9FF96064-8718-4A86-A5C8-73C592101F67";
paths = (
{
closed = 1;
nodes = (
"514 277 LINE",
"449 288 OFFCURVE",
"390 296 OFFCURVE",
"329 296 CURVE SMOOTH",
"178 296 OFFCURVE",
"48 252 OFFCURVE",
"48 157 CURVE SMOOTH",
"48 62 OFFCURVE",
"211 -10 OFFCURVE",
"311 -10 CURVE SMOOTH",
"380 -10 OFFCURVE",
"417 35 OFFCURVE",
"417 104 CURVE SMOOTH",
"418 250 LINE",
"348 248 LINE",
"348 120 LINE SMOOTH",
"348 79 OFFCURVE",
"342 60 OFFCURVE",
"310 60 CURVE SMOOTH",
"249 60 OFFCURVE",
"118 104 OFFCURVE",
"118 157 CURVE SMOOTH",
"118 200 OFFCURVE",
"223 229 OFFCURVE",
"315 229 CURVE SMOOTH",
"379 229 OFFCURVE",
"450 221 OFFCURVE",
"507 211 CURVE"
);
},
{
closed = 1;
nodes = (
"418 259 LINE",
"418 531 LINE SMOOTH",
"418 668 OFFCURVE",
"332 724 OFFCURVE",
"234 724 CURVE SMOOTH",
"135 724 OFFCURVE",
"57 654 OFFCURVE",
"57 546 CURVE SMOOTH",
"57 415 OFFCURVE",
"151 352 OFFCURVE",
"261 352 CURVE SMOOTH",
"299 352 OFFCURVE",
"337 357 OFFCURVE",
"375 366 CURVE",
"355 438 LINE",
"326 429 OFFCURVE",
"295 424 OFFCURVE",
"262 424 CURVE SMOOTH",
"188 424 OFFCURVE",
"124 461 OFFCURVE",
"124 531 CURVE SMOOTH",
"124 599 OFFCURVE",
"176 646 OFFCURVE",
"239 646 CURVE SMOOTH",
"301 646 OFFCURVE",
"348 612 OFFCURVE",
"348 523 CURVE SMOOTH",
"348 265 LINE"
);
}
);
width = 534;
},
{
layerId = "134B12F2-BF5D-48E3-8003-C7502B438C7E";
paths = (
{
closed = 1;
nodes = (
"537 283 LINE",
"477 295 OFFCURVE",
"380 309 OFFCURVE",
"297 309 CURVE SMOOTH",
"149 309 OFFCURVE",
"28 275 OFFCURVE",
"28 174 CURVE SMOOTH",
"28 70 OFFCURVE",
"182 -10 OFFCURVE",
"314 -10 CURVE SMOOTH",
"416 -10 OFFCURVE",
"453 45 OFFCURVE",
"453 141 CURVE SMOOTH",
"453 261 LINE",
"328 242 LINE",
"328 132 LINE SMOOTH",
"328 115 OFFCURVE",
"322 107 OFFCURVE",
"295 107 CURVE SMOOTH",
"248 107 OFFCURVE",
"159 133 OFFCURVE",
"159 171 CURVE SMOOTH",
"159 199 OFFCURVE",
"205 206 OFFCURVE",
"302 206 CURVE SMOOTH",
"366 206 OFFCURVE",
"468 188 OFFCURVE",
"527 173 CURVE"
);
},
{
closed = 1;
nodes = (
"453 286 LINE",
"453 522 LINE SMOOTH",
"453 651 OFFCURVE",
"351 724 OFFCURVE",
"236 724 CURVE SMOOTH",
"122 724 OFFCURVE",
"34 653 OFFCURVE",
"34 540 CURVE SMOOTH",
"34 411 OFFCURVE",
"144 338 OFFCURVE",
"257 338 CURVE SMOOTH",
"304 338 OFFCURVE",
"347 347 OFFCURVE",
"403 364 CURVE",
"408 483 LINE",
"340 461 OFFCURVE",
"292 450 OFFCURVE",
"262 450 CURVE SMOOTH",
"205 450 OFFCURVE",
"159 475 OFFCURVE",
"159 528 CURVE SMOOTH",
"159 575 OFFCURVE",
"196 604 OFFCURVE",
"241 604 CURVE SMOOTH",
"287 604 OFFCURVE",
"330 576 OFFCURVE",
"330 517 CURVE SMOOTH",
"329 269 LINE"
);
}
);
width = 567;
}
);
unicode = 16A73;
script = tangsa;
category = Letter;
subCategory = Other;
},
{
glyphname = "az-tangsa";
lastChange = "2022-01-07 11:42:19 +0000";
layers = (
{
components = (
{
alignment = -1;
name = _part.az;
transform = "{1, 0, 0, 1, 35, 0}";
}
);
layerId = "134B12F2-BF5D-48E3-8003-C7502B438C7E";
paths = (
{
closed = 1;
nodes = (
"191 395 LINE",
"190 714 LINE",
"67 714 LINE",
"67 395 LINE"
);
}
);
width = 516;
},
{
components = (
{
alignment = -1;
name = _part.az;
transform = "{1, 0, 0, 1, 43, 0}";
}
);
layerId = "9FF96064-8718-4A86-A5C8-73C592101F67";
paths = (
{
closed = 1;
nodes = (
"154 418 LINE",
"153 714 LINE",
"85 714 LINE",
"85 418 LINE"
);
}
);
width = 475;
}
);
leftKerningGroup = "az-tangsa";
unicode = 16A74;
script = tangsa;
category = Letter;
subCategory = Other;
},
{
glyphname = "ac-tangsa";
lastChange = "2022-01-07 13:07:32 +0000";
layers = (
{
layerId = "134B12F2-BF5D-48E3-8003-C7502B438C7E";
paths = (
{
closed = 1;
nodes = (
"194 0 LINE",
"194 714 LINE",
"70 714 LINE",
"70 0 LINE"
);
},
{
closed = 1;
nodes = (
"558 251 LINE SMOOTH",
"558 357 OFFCURVE",
"494 436 OFFCURVE",
"337 436 CURVE SMOOTH",
"241 436 OFFCURVE",
"147 393 OFFCURVE",
"116 284 CURVE",
"194 210 LINE",
"194 278 OFFCURVE",
"249 301 OFFCURVE",
"325 301 CURVE SMOOTH",
"415 301 OFFCURVE",
"443 271 OFFCURVE",
"443 219 CURVE SMOOTH",
"443 180 LINE",
"447 180 LINE",
"447 141 LINE SMOOTH",
"447 108 OFFCURVE",
"434 90 OFFCURVE",
"405 90 CURVE SMOOTH",
"385 90 OFFCURVE",
"368 108 OFFCURVE",
"368 130 CURVE SMOOTH",
"368 153 OFFCURVE",
"387 172 OFFCURVE",
"421 172 CURVE SMOOTH",
"482 172 OFFCURVE",
"531 156 OFFCURVE",
"616 127 CURVE",
"638 232 LINE",
"562 253 OFFCURVE",
"489 263 OFFCURVE",
"420 263 CURVE SMOOTH",
"326 263 OFFCURVE",
"270 211 OFFCURVE",
"270 130 CURVE SMOOTH",
"270 44 OFFCURVE",
"328 -10 OFFCURVE",
"405 -10 CURVE SMOOTH",
"499 -10 OFFCURVE",
"558 44 OFFCURVE",
"558 144 CURVE"
);
}
);
width = 668;
},
{
layerId = "9FF96064-8718-4A86-A5C8-73C592101F67";
paths = (
{
closed = 1;
nodes = (
"161 0 LINE",
"161 714 LINE",
"91 714 LINE",
"91 0 LINE"
);
},
{
closed = 1;
nodes = (
"485 241 LINE SMOOTH",
"485 360 OFFCURVE",
"427 434 OFFCURVE",
"298 434 CURVE SMOOTH",
"205 434 OFFCURVE",
"146 400 OFFCURVE",
"118 283 CURVE",
"161 222 LINE",
"161 326 OFFCURVE",
"220 358 OFFCURVE",
"294 358 CURVE SMOOTH",
"375 358 OFFCURVE",
"415 319 OFFCURVE",
"415 230 CURVE SMOOTH",
"415 191 LINE",
"421 191 LINE",
"421 128 LINE SMOOTH",
"421 83 OFFCURVE",
"405 57 OFFCURVE",
"372 57 CURVE SMOOTH",
"340 57 OFFCURVE",
"313 82 OFFCURVE",
"313 119 CURVE SMOOTH",
"313 150 OFFCURVE",
"336 173 OFFCURVE",
"393 173 CURVE SMOOTH",
"444 173 OFFCURVE",
"504 162 OFFCURVE",
"543 153 CURVE",
"556 216 LINE",
"505 228 OFFCURVE",
"449 236 OFFCURVE",
"388 236 CURVE SMOOTH",
"297 236 OFFCURVE",
"250 189 OFFCURVE",
"250 117 CURVE SMOOTH",
"250 39 OFFCURVE",
"299 -10 OFFCURVE",
"370 -10 CURVE SMOOTH",
"440 -10 OFFCURVE",
"485 38 OFFCURVE",
"485 123 CURVE SMOOTH"
);
}
);
width = 577;
}
);
leftKerningGroup = "ac-tangsa";
rightKerningGroup = "ac-tangsa";
unicode = 16A75;
script = tangsa;
category = Letter;
subCategory = Other;
},
{
glyphname = "aq-tangsa";
lastChange = "2022-01-07 13:07:32 +0000";
layers = (
{
layerId = "9FF96064-8718-4A86-A5C8-73C592101F67";
paths = (
{
closed = 1;
nodes = (
"161 0 LINE",
"161 714 LINE",
"91 714 LINE",
"91 0 LINE"
);
},
{
closed = 1;
nodes = (
"161 262 LINE",
"161 325 OFFCURVE",
"185 358 OFFCURVE",
"250 358 CURVE SMOOTH",
"320 358 OFFCURVE",
"340 325 OFFCURVE",
"340 262 CURVE SMOOTH",
"340 0 LINE",
"409 0 LINE",
"409 262 LINE SMOOTH",
"409 326 OFFCURVE",
"434 358 OFFCURVE",
"499 358 CURVE SMOOTH",
"567 358 OFFCURVE",
"585 319 OFFCURVE",
"585 250 CURVE SMOOTH",
"585 0 LINE",
"655 0 LINE",
"655 261 LINE SMOOTH",
"655 360 OFFCURVE",
"611 434 OFFCURVE",
"507 434 CURVE SMOOTH",
"426 434 OFFCURVE",
"388 400 OFFCURVE",
"366 323 CURVE",
"383 327 LINE",
"372 394 OFFCURVE",
"334 434 OFFCURVE",
"257 434 CURVE SMOOTH",
"193 434 OFFCURVE",
"149 394 OFFCURVE",
"132 336 CURVE"
);
}
);
width = 708;
},
{
layerId = "134B12F2-BF5D-48E3-8003-C7502B438C7E";
paths = (
{
closed = 1;
nodes = (
"194 0 LINE",
"194 714 LINE",
"70 714 LINE",
"70 0 LINE"
);
},
{
closed = 1;
nodes = (
"194 223 LINE",
"194 274 OFFCURVE",
"212 301 OFFCURVE",
"265 301 CURVE SMOOTH",
"319 301 OFFCURVE",
"338 277 OFFCURVE",
"338 230 CURVE SMOOTH",
"338 0 LINE",
"462 0 LINE",
"462 230 LINE SMOOTH",
"462 278 OFFCURVE",
"483 301 OFFCURVE",
"535 301 CURVE SMOOTH",
"589 301 OFFCURVE",
"604 271 OFFCURVE",
"604 219 CURVE SMOOTH",
"604 0 LINE",
"728 0 LINE",
"728 251 LINE SMOOTH",
"728 356 OFFCURVE",
"680 435 OFFCURVE",
"552 435 CURVE SMOOTH",
"483 435 OFFCURVE",
"412 408 OFFCURVE",
"384 304 CURVE",
"428 310 LINE",
"401 412 OFFCURVE",
"356 435 OFFCURVE",
"289 435 CURVE SMOOTH",
"203 435 OFFCURVE",
"153 368 OFFCURVE",
"135 273 CURVE"
);
}
);
width = 773;
}
);
leftKerningGroup = "ac-tangsa";
leftMetricsKey = "ac-tangsa";
rightKerningGroup = "aq-tangsa";
unicode = 16A76;
script = tangsa;
category = Letter;
subCategory = Other;
},
{
glyphname = "ax-tangsa";
lastChange = "2022-01-07 11:21:35 +0000";
layers = (
{
layerId = "9FF96064-8718-4A86-A5C8-73C592101F67";
paths = (
{
closed = 1;
nodes = (
"367 293 LINE",
"473 223 OFFCURVE",
"530 104 OFFCURVE",
"582 -9 CURVE",
"653 4 LINE",
"739 716 LINE",
"672 725 LINE",
"590 57 LINE",
"630 46 LINE",
"581 164 OFFCURVE",
"513 276 OFFCURVE",
"384 378 CURVE",
"342 325 LINE"
);
},
{
closed = 1;
nodes = (
"36 76 OFFCURVE",
"127 -10 OFFCURVE",
"250 -10 CURVE SMOOTH",
"357 -10 OFFCURVE",
"441 66 OFFCURVE",
"441 202 CURVE SMOOTH",
"441 261 OFFCURVE",
"426 317 OFFCURVE",
"386 361 CURVE",
"342 325 LINE",
"373 287 OFFCURVE",
"383 254 OFFCURVE",
"383 212 CURVE SMOOTH",
"383 120 OFFCURVE",
"321 68 OFFCURVE",
"248 68 CURVE SMOOTH",
"163 68 OFFCURVE",
"108 120 OFFCURVE",
"108 228 CURVE SMOOTH",
"108 301 OFFCURVE",
"144 384 OFFCURVE",
"208 445 CURVE",
"151 485 LINE",
"76 406 OFFCURVE",
"36 322 OFFCURVE",
"36 231 CURVE SMOOTH"
);
}
);
width = 789;
},
{
layerId = "134B12F2-BF5D-48E3-8003-C7502B438C7E";
paths = (
{
closed = 1;
nodes = (
"393 273 LINE",
"463 219 OFFCURVE",
"543 104 OFFCURVE",
"586 -12 CURVE",
"700 9 LINE",
"784 706 LINE",
"660 725 LINE",
"599 176 LINE",
"636 176 LINE",
"583 263 OFFCURVE",
"507 342 OFFCURVE",
"420 415 CURVE",
"340 317 LINE"
);
},
{
closed = 1;
nodes = (
"43 80 OFFCURVE",
"143 -10 OFFCURVE",
"274 -10 CURVE SMOOTH",
"390 -10 OFFCURVE",
"482 62 OFFCURVE",
"482 209 CURVE SMOOTH",
"482 266 OFFCURVE",
"458 335 OFFCURVE",
"409 389 CURVE",
"340 317 LINE",
"367 279 OFFCURVE",
"374 248 OFFCURVE",
"374 224 CURVE SMOOTH",
"374 162 OFFCURVE",
"329 126 OFFCURVE",
"274 126 CURVE SMOOTH",
"217 126 OFFCURVE",
"170 162 OFFCURVE",
"170 232 CURVE SMOOTH",
"170 298 OFFCURVE",
"213 374 OFFCURVE",
"285 440 CURVE",
"176 516 LINE",
"90 424 OFFCURVE",
"43 337 OFFCURVE",
"43 236 CURVE SMOOTH"
);
}
);
width = 814;
}
);
rightKerningGroup = "ax-tangsa";
unicode = 16A77;
script = tangsa;
category = Letter;
subCategory = Other;
},
{
glyphname = "vc-tangsa";
lastChange = "2022-01-07 11:21:35 +0000";
layers = (
{
components = (
{
alignment = -1;
name = _part.trianglesmall;
transform = "{1, 0, 0, 1, 28, 20}";
}
);
layerId = "9FF96064-8718-4A86-A5C8-73C592101F67";
paths = (
{
closed = 1;
nodes = (
"171 0 LINE",
"171 514 LINE",
"101 514 LINE",
"101 0 LINE"
);
},
{
closed = 1;
nodes = (
"495 241 LINE SMOOTH",
"495 360 OFFCURVE",
"446 434 OFFCURVE",
"307 434 CURVE SMOOTH",
"208 434 OFFCURVE",
"156 400 OFFCURVE",
"128 283 CURVE",
"171 222 LINE",
"171 326 OFFCURVE",
"219 358 OFFCURVE",
"303 358 CURVE SMOOTH",
"394 358 OFFCURVE",
"425 319 OFFCURVE",
"425 230 CURVE SMOOTH",
"425 191 LINE",
"431 191 LINE",
"431 128 LINE SMOOTH",
"431 83 OFFCURVE",
"415 57 OFFCURVE",
"382 57 CURVE SMOOTH",
"350 57 OFFCURVE",
"323 82 OFFCURVE",
"323 119 CURVE SMOOTH",
"323 150 OFFCURVE",
"346 173 OFFCURVE",
"403 173 CURVE SMOOTH",
"454 173 OFFCURVE",
"514 162 OFFCURVE",
"553 153 CURVE",
"566 216 LINE",
"514 228 OFFCURVE",
"458 236 OFFCURVE",
"398 236 CURVE SMOOTH",
"307 236 OFFCURVE",
"260 189 OFFCURVE",
"260 117 CURVE SMOOTH",
"260 39 OFFCURVE",
"309 -10 OFFCURVE",
"380 -10 CURVE SMOOTH",
"450 -10 OFFCURVE",
"495 38 OFFCURVE",
"495 123 CURVE SMOOTH"
);
}
);
width = 587;
},
{
components = (
{
alignment = -1;
name = _part.trianglesmall;
transform = "{1, 0, 0, 1, 61, 20}";
}
);
layerId = "134B12F2-BF5D-48E3-8003-C7502B438C7E";
paths = (
{
closed = 1;
nodes = (
"241 0 LINE",
"241 464 LINE",
"117 464 LINE",
"117 0 LINE"
);
},
{
closed = 1;
nodes = (
"605 251 LINE SMOOTH",
"605 356 OFFCURVE",
"541 435 OFFCURVE",
"383 435 CURVE SMOOTH",
"288 435 OFFCURVE",
"199 398 OFFCURVE",
"163 284 CURVE",
"241 210 LINE",
"241 278 OFFCURVE",
"296 301 OFFCURVE",
"372 301 CURVE SMOOTH",
"462 301 OFFCURVE",
"490 271 OFFCURVE",
"490 219 CURVE SMOOTH",
"490 180 LINE",
"494 180 LINE",
"494 141 LINE SMOOTH",
"494 108 OFFCURVE",
"481 90 OFFCURVE",
"452 90 CURVE SMOOTH",
"432 90 OFFCURVE",
"415 108 OFFCURVE",
"415 130 CURVE SMOOTH",
"415 153 OFFCURVE",
"434 172 OFFCURVE",
"468 172 CURVE SMOOTH",
"529 172 OFFCURVE",
"578 156 OFFCURVE",
"663 127 CURVE",
"685 232 LINE",
"609 253 OFFCURVE",
"536 263 OFFCURVE",
"467 263 CURVE SMOOTH",
"373 263 OFFCURVE",
"317 211 OFFCURVE",
"317 130 CURVE SMOOTH",
"317 44 OFFCURVE",
"375 -10 OFFCURVE",
"452 -10 CURVE SMOOTH",
"546 -10 OFFCURVE",
"605 44 OFFCURVE",
"605 144 CURVE"
);
}
);
width = 715;
}
);
leftKerningGroup = "vz-tangsa";
leftMetricsKey = "vz-tangsa";
rightKerningGroup = "ac-tangsa";
rightMetricsKey = "ac-tangsa";
unicode = 16A79;
script = tangsa;
category = Letter;
subCategory = Other;
},
{
glyphname = "vq-tangsa";
lastChange = "2022-01-07 13:07:32 +0000";
layers = (
{
components = (
{
alignment = -1;
name = _part.trianglesmall;
transform = "{1, 0, 0, 1, 28, 20}";
}
);
layerId = "9FF96064-8718-4A86-A5C8-73C592101F67";
paths = (
{
closed = 1;
nodes = (
"171 0 LINE",
"171 514 LINE",
"101 514 LINE",
"101 0 LINE"
);
},
{
closed = 1;
nodes = (
"171 262 LINE",
"171 325 OFFCURVE",
"195 358 OFFCURVE",
"260 358 CURVE SMOOTH",
"330 358 OFFCURVE",
"350 325 OFFCURVE",
"350 262 CURVE SMOOTH",
"350 0 LINE",
"419 0 LINE",
"419 262 LINE SMOOTH",
"419 326 OFFCURVE",
"444 358 OFFCURVE",
"509 358 CURVE SMOOTH",
"577 358 OFFCURVE",
"595 319 OFFCURVE",
"595 250 CURVE SMOOTH",
"595 0 LINE",
"665 0 LINE",
"665 261 LINE SMOOTH",
"665 360 OFFCURVE",
"621 434 OFFCURVE",
"517 434 CURVE SMOOTH",
"436 434 OFFCURVE",
"398 400 OFFCURVE",
"376 323 CURVE",
"393 327 LINE",
"382 394 OFFCURVE",
"344 434 OFFCURVE",
"267 434 CURVE SMOOTH",
"203 434 OFFCURVE",
"159 394 OFFCURVE",
"142 336 CURVE"
);
}
);
width = 718;
},
{
components = (
{
alignment = -1;
name = _part.trianglesmall;
transform = "{1, 0, 0, 1, 61, 0}";
}
);
layerId = "134B12F2-BF5D-48E3-8003-C7502B438C7E";
paths = (
{
closed = 1;
nodes = (
"241 0 LINE",
"241 434 LINE",
"117 434 LINE",
"117 0 LINE"
);
},
{
closed = 1;
nodes = (
"241 193 LINE",
"241 244 OFFCURVE",
"259 271 OFFCURVE",
"312 271 CURVE SMOOTH",
"366 271 OFFCURVE",
"385 247 OFFCURVE",
"385 200 CURVE SMOOTH",
"385 0 LINE",
"509 0 LINE",
"509 200 LINE SMOOTH",
"509 248 OFFCURVE",
"530 271 OFFCURVE",
"582 271 CURVE SMOOTH",
"636 271 OFFCURVE",
"651 241 OFFCURVE",
"651 189 CURVE SMOOTH",
"651 0 LINE",
"775 0 LINE",
"775 221 LINE SMOOTH",
"775 326 OFFCURVE",
"727 405 OFFCURVE",
"599 405 CURVE SMOOTH",
"530 405 OFFCURVE",
"459 378 OFFCURVE",
"431 274 CURVE",
"475 280 LINE",
"448 382 OFFCURVE",
"403 405 OFFCURVE",
"336 405 CURVE SMOOTH",
"250 405 OFFCURVE",
"200 338 OFFCURVE",
"182 243 CURVE"
);
}
);
width = 820;
}
);
leftKerningGroup = "vz-tangsa";
leftMetricsKey = "vz-tangsa";
rightKerningGroup = "aq-tangsa";
rightMetricsKey = "aq-tangsa";
unicode = 16A7A;
script = tangsa;
category = Letter;
subCategory = Other;
},
{
glyphname = "vx-tangsa";
lastChange = "2022-01-07 11:21:35 +0000";
layers = (
{
components = (
{
alignment = -1;
name = _part.trianglesmall;
transform = "{1, 0, 0, 1, 24, -168}";
}
);
layerId = "9FF96064-8718-4A86-A5C8-73C592101F67";
paths = (
{
closed = 1;
nodes = (
"428 293 LINE",
"534 223 OFFCURVE",
"591 104 OFFCURVE",
"643 -9 CURVE",
"714 4 LINE",
"793 716 LINE",
"726 725 LINE",
"651 57 LINE",
"691 46 LINE",
"642 164 OFFCURVE",
"573 274 OFFCURVE",
"445 378 CURVE",
"403 325 LINE"
);
},
{
closed = 1;
nodes = (
"97 70 OFFCURVE",
"179 -10 OFFCURVE",
"302 -10 CURVE SMOOTH",
"409 -10 OFFCURVE",
"502 66 OFFCURVE",
"502 202 CURVE SMOOTH",
"502 261 OFFCURVE",
"487 317 OFFCURVE",
"447 361 CURVE",
"403 325 LINE",
"434 287 OFFCURVE",
"444 254 OFFCURVE",
"444 212 CURVE SMOOTH",
"444 120 OFFCURVE",
"373 68 OFFCURVE",
"300 68 CURVE SMOOTH",
"214 68 OFFCURVE",
"167 115 OFFCURVE",
"167 213 CURVE SMOOTH",
"167 223 LINE",
"97 223 LINE",
"97 213 LINE SMOOTH"
);
}
);
width = 843;
},
{
components = (
{
alignment = -1;
name = _part.trianglesmall;
transform = "{1, 0, 0, 1, 47, -157}";
}
);
layerId = "134B12F2-BF5D-48E3-8003-C7502B438C7E";
paths = (
{
closed = 1;
nodes = (
"461 273 LINE",
"530 213 OFFCURVE",
"604 104 OFFCURVE",
"651 -12 CURVE",
"763 9 LINE",
"848 706 LINE",
"724 725 LINE",
"662 176 LINE",
"701 176 LINE",
"651 256 OFFCURVE",
"590 329 OFFCURVE",
"517 402 CURVE",
"420 298 LINE"
);
},
{
closed = 1;
nodes = (
"103 75 OFFCURVE",
"194 -10 OFFCURVE",
"326 -10 CURVE SMOOTH",
"443 -10 OFFCURVE",
"547 62 OFFCURVE",
"547 209 CURVE SMOOTH",
"547 249 OFFCURVE",
"534 298 OFFCURVE",
"508 336 CURVE",
"420 298 LINE",
"435 268 OFFCURVE",
"441 238 OFFCURVE",
"441 219 CURVE SMOOTH",
"441 157 OFFCURVE",
"382 126 OFFCURVE",
"326 126 CURVE SMOOTH",
"266 126 OFFCURVE",
"227 157 OFFCURVE",
"227 227 CURVE SMOOTH",
"227 278 LINE",
"103 278 LINE",
"103 223 LINE SMOOTH"
);
}
);
width = 878;
}
);
rightKerningGroup = "ax-tangsa";
unicode = 16A7B;
script = tangsa;
category = Letter;
subCategory = Other;
},
{
glyphname = "ez-tangsa";
lastChange = "2022-01-07 13:32:39 +0000";
layers = (
{
layerId = "9FF96064-8718-4A86-A5C8-73C592101F67";
paths = (
{
closed = 1;
nodes = (
"94 66 OFFCURVE",
"192 -10 OFFCURVE",
"314 -10 CURVE SMOOTH",
"393 -10 OFFCURVE",
"456 16 OFFCURVE",
"501 58 CURVE",
"462 128 LINE",
"416 86 OFFCURVE",
"357 68 OFFCURVE",
"307 68 CURVE SMOOTH",
"217 68 OFFCURVE",
"161 118 OFFCURVE",
"161 193 CURVE SMOOTH",
"161 284 OFFCURVE",
"258 344 OFFCURVE",
"433 344 CURVE",
"423 422 LINE",
"260 422 OFFCURVE",
"94 354 OFFCURVE",
"94 203 CURVE SMOOTH"
);
},
{
closed = 1;
nodes = (
"106 429 OFFCURVE",
"162 367 OFFCURVE",
"227 330 CURVE",
"291 359 LINE",
"222 393 OFFCURVE",
"181 437 OFFCURVE",
"181 494 CURVE SMOOTH",
"181 573 OFFCURVE",
"237 641 OFFCURVE",
"394 641 CURVE",
"381 676 LINE",
"145 654 OFFCURVE",
"106 588 OFFCURVE",
"106 505 CURVE SMOOTH"
);
},
{
closed = 1;
nodes = (
"126 636 LINE SMOOTH",
"167 636 OFFCURVE",
"190 642 OFFCURVE",
"224 652 CURVE",
"227 641 LINE",
"487 641 LINE",
"504 714 LINE",
"89 714 LINE",
"72 636 LINE"
);
}
);
width = 539;
},
{
layerId = "134B12F2-BF5D-48E3-8003-C7502B438C7E";
paths = (
{
closed = 1;
nodes = (
"92 69 OFFCURVE",
"195 -10 OFFCURVE",
"325 -10 CURVE SMOOTH",
"404 -10 OFFCURVE",
"477 23 OFFCURVE",
"537 79 CURVE",
"468 194 LINE",
"407 143 OFFCURVE",
"354 124 OFFCURVE",
"318 124 CURVE SMOOTH",
"258 124 OFFCURVE",
"218 158 OFFCURVE",
"218 205 CURVE SMOOTH",
"218 272 OFFCURVE",
"302 316 OFFCURVE",
"452 316 CURVE",
"435 445 LINE",
"264 445 OFFCURVE",
"92 374 OFFCURVE",
"92 215 CURVE SMOOTH"
);
},
{
closed = 1;
nodes = (
"104 408 OFFCURVE",
"168 337 OFFCURVE",
"244 295 CURVE",
"378 357 LINE",
"267 404 OFFCURVE",
"233 444 OFFCURVE",
"233 481 CURVE SMOOTH",
"233 540 OFFCURVE",
"291 589 OFFCURVE",
"441 589 CURVE",
"413 656 LINE",
"143 615 OFFCURVE",
"104 570 OFFCURVE",
"104 492 CURVE SMOOTH"
);
},
{
closed = 1;
nodes = (
"90 582 LINE SMOOTH",
"115 582 OFFCURVE",
"134 585 OFFCURVE",
"156 592 CURVE",
"161 581 LINE",
"509 589 LINE",
"539 714 LINE",
"78 714 LINE",
"48 582 LINE"
);
}
);
width = 575;
}
);
unicode = 16A7C;
script = tangsa;
category = Letter;
subCategory = Other;
},
{
glyphname = "ec-tangsa";
lastChange = "2022-01-07 11:21:35 +0000";
layers = (
{
layerId = "9FF96064-8718-4A86-A5C8-73C592101F67";
paths = (
{
closed = 1;
nodes = (
"123 0 LINE",
"475 0 LINE",
"493 78 LINE",
"127 78 LINE",
"167 45 LINE",
"160 228 OFFCURVE",
"244 322 OFFCURVE",
"435 345 CURVE",
"425 424 LINE",
"257 399 OFFCURVE",
"86 313 OFFCURVE",
"86 67 CURVE"
);
},
{
closed = 1;
nodes = (
"108 429 OFFCURVE",
"164 367 OFFCURVE",
"229 330 CURVE",
"293 359 LINE",
"224 393 OFFCURVE",
"183 437 OFFCURVE",
"183 494 CURVE SMOOTH",
"183 573 OFFCURVE",
"240 641 OFFCURVE",
"397 641 CURVE",
"383 676 LINE",
"161 660 OFFCURVE",
"108 588 OFFCURVE",
"108 505 CURVE SMOOTH"
);
},
{
closed = 1;
nodes = (
"128 636 LINE SMOOTH",
"169 636 OFFCURVE",
"192 642 OFFCURVE",
"226 652 CURVE",
"229 641 LINE",
"482 641 LINE",
"499 714 LINE",
"91 714 LINE",
"74 636 LINE"
);
}
);
width = 534;
},
{
layerId = "134B12F2-BF5D-48E3-8003-C7502B438C7E";
paths = (
{
closed = 1;
nodes = (
"149 0 LINE",
"497 0 LINE",
"529 136 LINE",
"143 136 LINE",
"219 70 LINE",
"224 234 OFFCURVE",
"284 299 OFFCURVE",
"454 324 CURVE",
"436 455 LINE",
"275 429 OFFCURVE",
"110 346 OFFCURVE",
"84 120 CURVE"
);
},
{
closed = 1;
nodes = (
"106 408 OFFCURVE",
"170 337 OFFCURVE",
"246 295 CURVE",
"380 357 LINE",
"272 403 OFFCURVE",
"235 444 OFFCURVE",
"235 481 CURVE SMOOTH",
"235 539 OFFCURVE",
"293 588 OFFCURVE",
"443 588 CURVE",
"412 651 LINE",
"159 619 OFFCURVE",
"106 568 OFFCURVE",
"106 492 CURVE SMOOTH"
);
},
{
closed = 1;
nodes = (
"92 582 LINE SMOOTH",
"117 582 OFFCURVE",
"136 585 OFFCURVE",
"158 592 CURVE",
"163 581 LINE",
"513 589 LINE",
"543 714 LINE",
"80 714 LINE",
"50 582 LINE"
);
}
);
width = 579;
}
);
rightMetricsKey = "ez-tangsa";
unicode = 16A7D;
script = tangsa;
category = Letter;
subCategory = Other;
},
{
glyphname = "eq-tangsa";
lastChange = "2022-01-07 13:33:06 +0000";
layers = (
{
layerId = "134B12F2-BF5D-48E3-8003-C7502B438C7E";
paths = (
{
closed = 1;
nodes = (
"66 531 OFFCURVE",
"83 496 OFFCURVE",
"116 469 CURVE SMOOTH",
"156 435 OFFCURVE",
"225 418 OFFCURVE",
"310 418 CURVE SMOOTH",
"441 418 OFFCURVE",
"567 472 OFFCURVE",
"567 581 CURVE SMOOTH",
"567 667 OFFCURVE",
"494 724 OFFCURVE",
"404 724 CURVE SMOOTH",
"310 724 OFFCURVE",
"253 669 OFFCURVE",
"253 596 CURVE SMOOTH",
"253 543 OFFCURVE",
"273 490 OFFCURVE",
"299 436 CURVE",
"414 477 LINE",
"378 550 OFFCURVE",
"370 575 OFFCURVE",
"370 589 CURVE SMOOTH",
"370 612 OFFCURVE",
"387 624 OFFCURVE",
"410 624 CURVE SMOOTH",
"437 624 OFFCURVE",
"456 610 OFFCURVE",
"456 584 CURVE SMOOTH",
"456 530 OFFCURVE",
"362 512 OFFCURVE",
"297 512 CURVE SMOOTH",
"214 512 OFFCURVE",
"190 541 OFFCURVE",
"190 635 CURVE SMOOTH",
"190 718 LINE",
"66 708 LINE",
"66 622 LINE SMOOTH"
);
},
{
closed = 1;
nodes = (
"51 73 OFFCURVE",
"156 -10 OFFCURVE",
"285 -10 CURVE SMOOTH",
"404 -10 OFFCURVE",
"508 50 OFFCURVE",
"508 196 CURVE SMOOTH",
"508 277 OFFCURVE",
"456 396 OFFCURVE",
"426 456 CURVE",
"300 429 LINE",
"361 328 OFFCURVE",
"384 253 OFFCURVE",
"384 215 CURVE SMOOTH",
"384 149 OFFCURVE",
"335 126 OFFCURVE",
"283 126 CURVE SMOOTH",
"227 126 OFFCURVE",
"176 153 OFFCURVE",
"176 203 CURVE SMOOTH",
"176 255 OFFCURVE",
"247 283 OFFCURVE",
"320 283 CURVE SMOOTH",
"404 283 OFFCURVE",
"488 250 OFFCURVE",
"567 211 CURVE",
"614 321 LINE",
"532 357 OFFCURVE",
"419 388 OFFCURVE",
"319 388 CURVE SMOOTH",
"180 388 OFFCURVE",
"51 325 OFFCURVE",
"51 199 CURVE SMOOTH"
);
}
);
width = 644;
},
{
layerId = "9FF96064-8718-4A86-A5C8-73C592101F67";
paths = (
{
closed = 1;
nodes = (
"75 545 OFFCURVE",
"89 506 OFFCURVE",
"117 478 CURVE SMOOTH",
"146 449 OFFCURVE",
"192 430 OFFCURVE",
"269 430 CURVE SMOOTH",
"387 430 OFFCURVE",
"505 487 OFFCURVE",
"505 598 CURVE SMOOTH",
"505 676 OFFCURVE",
"444 724 OFFCURVE",
"371 724 CURVE SMOOTH",
"288 724 OFFCURVE",
"234 675 OFFCURVE",
"234 611 CURVE SMOOTH",
"234 566 OFFCURVE",
"250 525 OFFCURVE",
"269 481 CURVE",
"340 482 LINE",
"312 543 OFFCURVE",
"308 576 OFFCURVE",
"308 595 CURVE SMOOTH",
"308 632 OFFCURVE",
"333 655 OFFCURVE",
"372 655 CURVE SMOOTH",
"410 655 OFFCURVE",
"435 636 OFFCURVE",
"435 598 CURVE SMOOTH",
"435 529 OFFCURVE",
"335 496 OFFCURVE",
"277 496 CURVE SMOOTH",
"165 496 OFFCURVE",
"145 528 OFFCURVE",
"145 627 CURVE SMOOTH",
"145 719 LINE",
"75 713 LINE",
"75 608 LINE SMOOTH"
);
},
{
closed = 1;
nodes = (
"57 67 OFFCURVE",
"147 -10 OFFCURVE",
"257 -10 CURVE SMOOTH",
"360 -10 OFFCURVE",
"448 46 OFFCURVE",
"448 179 CURVE SMOOTH",
"448 274 OFFCURVE",
"384 401 OFFCURVE",
"350 466 CURVE",
"284 452 LINE",
"317 383 OFFCURVE",
"378 292 OFFCURVE",
"378 200 CURVE SMOOTH",
"378 102 OFFCURVE",
"319 68 OFFCURVE",
"256 68 CURVE SMOOTH",
"187 68 OFFCURVE",
"124 109 OFFCURVE",
"124 186 CURVE SMOOTH",
"124 268 OFFCURVE",
"206 311 OFFCURVE",
"292 311 CURVE SMOOTH",
"378 311 OFFCURVE",
"448 277 OFFCURVE",
"508 236 CURVE",
"541 308 LINE",
"476 347 OFFCURVE",
"384 383 OFFCURVE",
"291 383 CURVE SMOOTH",
"170 383 OFFCURVE",
"57 315 OFFCURVE",
"57 182 CURVE SMOOTH"
);
}
);
width = 576;
}
);
unicode = 16A7E;
script = tangsa;
category = Letter;
subCategory = Other;
},
{
glyphname = "ex-tangsa";
lastChange = "2022-01-07 11:21:35 +0000";
layers = (
{
layerId = "9FF96064-8718-4A86-A5C8-73C592101F67";
paths = (
{
closed = 1;
nodes = (
"85 62 OFFCURVE",
"152 -10 OFFCURVE",
"255 -10 CURVE SMOOTH",
"416 -10 OFFCURVE",
"538 165 OFFCURVE",
"538 338 CURVE SMOOTH",
"538 453 OFFCURVE",
"486 547 OFFCURVE",
"392 547 CURVE SMOOTH",
"310 547 OFFCURVE",
"257 477 OFFCURVE",
"257 372 CURVE SMOOTH",
"257 284 OFFCURVE",
"296 188 OFFCURVE",
"384 93 CURVE SMOOTH",
"422 52 OFFCURVE",
"457 24 OFFCURVE",
"508 -14 CURVE",
"552 43 LINE",
"514 67 OFFCURVE",
"477 95 OFFCURVE",
"442 131 CURVE SMOOTH",
"379 194 OFFCURVE",
"325 272 OFFCURVE",
"325 365 CURVE SMOOTH",
"325 435 OFFCURVE",
"356 473 OFFCURVE",
"398 473 CURVE SMOOTH",
"446 473 OFFCURVE",
"471 421 OFFCURVE",
"471 344 CURVE SMOOTH",
"471 198 OFFCURVE",
"389 68 OFFCURVE",
"255 68 CURVE SMOOTH",
"192 68 OFFCURVE",
"155 100 OFFCURVE",
"155 193 CURVE SMOOTH",
"155 714 LINE",
"85 714 LINE",
"85 197 LINE SMOOTH"
);
}
);
width = 605;
},
{
layerId = "134B12F2-BF5D-48E3-8003-C7502B438C7E";
paths = (
{
closed = 1;
nodes = (
"67 67 OFFCURVE",
"177 -10 OFFCURVE",
"308 -10 CURVE SMOOTH",
"497 -10 OFFCURVE",
"632 179 OFFCURVE",
"632 346 CURVE SMOOTH",
"632 469 OFFCURVE",
"568 562 OFFCURVE",
"453 562 CURVE SMOOTH",
"353 562 OFFCURVE",
"286 487 OFFCURVE",
"286 370 CURVE SMOOTH",
"286 253 OFFCURVE",
"343 167 OFFCURVE",
"426 93 CURVE SMOOTH",
"473 51 OFFCURVE",
"515 16 OFFCURVE",
"578 -26 CURVE",
"661 79 LINE",
"605 114 OFFCURVE",
"566 139 OFFCURVE",
"519 180 CURVE SMOOTH",
"455 235 OFFCURVE",
"407 305 OFFCURVE",
"407 365 CURVE SMOOTH",
"407 408 OFFCURVE",
"430 436 OFFCURVE",
"462 436 CURVE SMOOTH",
"490 436 OFFCURVE",
"511 402 OFFCURVE",
"511 357 CURVE SMOOTH",
"511 232 OFFCURVE",
"432 126 OFFCURVE",
"307 126 CURVE SMOOTH",
"251 126 OFFCURVE",
"191 147 OFFCURVE",
"191 237 CURVE SMOOTH",
"191 714 LINE",
"67 714 LINE",
"67 248 LINE SMOOTH"
);
}
);
width = 697;
}
);
leftKerningGroup = "az-tangsa";
leftMetricsKey = "az-tangsa";
rightKerningGroup = "ex-tangsa";
rightMetricsKey = "gha-tangsa";
unicode = 16A7F;
script = tangsa;
category = Letter;
subCategory = Other;
},
{
glyphname = "ic-tangsa";
lastChange = "2022-01-07 13:07:32 +0000";
layers = (
{
components = (
{
name = _part.loop6;
transform = "{1, 0, 0, 1, 35, 0}";
},
{
name = "iz-tangsa";
}
);
layerId = "9FF96064-8718-4A86-A5C8-73C592101F67";
paths = (
{
closed = 1;
nodes = (
"328 330 LINE",
"596 400 LINE",
"578 463 LINE",
"295 384 LINE"
);
},
{
closed = 1;
nodes = (
"571 50 OFFCURVE",
"620 -10 OFFCURVE",
"702 -10 CURVE SMOOTH",
"751 -10 OFFCURVE",
"789 11 OFFCURVE",
"821 53 CURVE",
"772 109 LINE",
"745 78 OFFCURVE",
"719 68 OFFCURVE",
"698 68 CURVE SMOOTH",
"667 68 OFFCURVE",
"641 91 OFFCURVE",
"641 137 CURVE SMOOTH",
"641 367 LINE",
"571 367 LINE",
"571 142 LINE SMOOTH"
);
}
);
width = 844;
},
{
components = (
{
name = _part.loop6;
transform = "{1, 0, 0, 1, 77, 0}";
},
{
name = "iz-tangsa";
}
);
layerId = "134B12F2-BF5D-48E3-8003-C7502B438C7E";
paths = (
{
closed = 1;
nodes = (
"382 303 LINE",
"660 375 LINE",
"638 477 LINE",
"353 402 LINE"
);
},
{
closed = 1;
nodes = (
"599 54 OFFCURVE",
"656 -10 OFFCURVE",
"751 -10 CURVE SMOOTH",
"811 -10 OFFCURVE",
"860 19 OFFCURVE",
"908 71 CURVE",
"830 170 LINE",
"806 140 OFFCURVE",
"787 126 OFFCURVE",
"765 126 CURVE SMOOTH",
"743 126 OFFCURVE",
"723 142 OFFCURVE",
"723 187 CURVE SMOOTH",
"723 356 LINE",
"599 356 LINE",
"599 193 LINE SMOOTH"
);
}
);
width = 944;
}
);
leftKerningGroup = "iz-tangsa";
leftMetricsKey = "iz-tangsa";
unicode = 16A81;
script = tangsa;
category = Letter;
subCategory = Other;
},
{
glyphname = "iq-tangsa";
lastChange = "2022-01-07 11:21:35 +0000";
layers = (
{
components = (
{
name = "iz-tangsa";
}
);
layerId = "134B12F2-BF5D-48E3-8003-C7502B438C7E";
paths = (
{
closed = 1;
nodes = (
"412 297 LINE",
"557 321 LINE",
"531 445 LINE",
"360 403 LINE"
);
}
);
width = 593;
},
{
components = (
{
name = "iz-tangsa";
}
);
layerId = "9FF96064-8718-4A86-A5C8-73C592101F67";
paths = (
{
closed = 1;
nodes = (
"349 337 LINE",
"469 371 LINE",
"451 434 LINE",
"316 391 LINE"
);
}
);
width = 519;
}
);
leftKerningGroup = "iz-tangsa";
leftMetricsKey = "iz-tangsa";
unicode = 16A82;
script = tangsa;
category = Letter;
subCategory = Other;
},
{
glyphname = "ix-tangsa";
lastChange = "2022-01-07 11:21:35 +0000";
layers = (
{
components = (
{
name = _part.loop6;
transform = "{1, 0, 0, 1, 35, 0}";
},
{
name = "iz-tangsa";
}
);
layerId = "9FF96064-8718-4A86-A5C8-73C592101F67";
paths = (
{
closed = 1;
nodes = (
"641 0 LINE",
"641 364 LINE",
"571 364 LINE",
"571 0 LINE"
);
},
{
closed = 1;
nodes = (
"329 332 LINE",
"592 399 LINE",
"574 462 LINE",
"296 386 LINE"
);
}
);
width = 844;
},
{
components = (
{
name = _part.loop6;
transform = "{1, 0, 0, 1, 77, 0}";
},
{
name = "iz-tangsa";
}
);
layerId = "134B12F2-BF5D-48E3-8003-C7502B438C7E";
paths = (
{
closed = 1;
nodes = (
"723 0 LINE",
"723 383 LINE",
"599 383 LINE",
"599 0 LINE"
);
},
{
closed = 1;
nodes = (
"382 299 LINE",
"660 371 LINE",
"638 479 LINE",
"353 402 LINE"
);
}
);
width = 924;
}
);
leftKerningGroup = "iz-tangsa";
leftMetricsKey = "iz-tangsa";
unicode = 16A83;
script = tangsa;
category = Letter;
subCategory = Other;
},
{
glyphname = "uz-tangsa";
lastChange = "2022-01-07 13:33:54 +0000";
layers = (
{
layerId = "9FF96064-8718-4A86-A5C8-73C592101F67";
paths = (
{
closed = 1;
nodes = (
"58 33 OFFCURVE",
"147 -10 OFFCURVE",
"215 -10 CURVE SMOOTH",
"409 -10 OFFCURVE",
"538 264 OFFCURVE",
"538 505 CURVE SMOOTH",
"538 668 OFFCURVE",
"469 724 OFFCURVE",
"387 724 CURVE SMOOTH",
"314 724 OFFCURVE",
"264 669 OFFCURVE",
"264 596 CURVE SMOOTH",
"264 488 OFFCURVE",
"355 402 OFFCURVE",
"600 405 CURVE",
"600 474 LINE",
"382 474 OFFCURVE",
"337 534 OFFCURVE",
"337 594 CURVE SMOOTH",
"337 629 OFFCURVE",
"353 655 OFFCURVE",
"386 655 CURVE SMOOTH",
"416 655 OFFCURVE",
"470 628 OFFCURVE",
"470 503 CURVE SMOOTH",
"470 321 OFFCURVE",
"359 68 OFFCURVE",
"217 68 CURVE SMOOTH",
"198 68 OFFCURVE",
"177 75 OFFCURVE",
"162 95 CURVE SMOOTH",
"141 123 OFFCURVE",
"131 156 OFFCURVE",
"130 213 CURVE SMOOTH",
"129 270 OFFCURVE",
"150 390 OFFCURVE",
"208 531 CURVE",
"139 560 LINE",
"73 398 OFFCURVE",
"58 280 OFFCURVE",
"58 219 CURVE SMOOTH"
);
}
);
width = 635;
},
{
layerId = "134B12F2-BF5D-48E3-8003-C7502B438C7E";
paths = (
{
closed = 1;
nodes = (
"43 138 OFFCURVE",
"83 -10 OFFCURVE",
"248 -10 CURVE SMOOTH",
"469 -10 OFFCURVE",
"623 241 OFFCURVE",
"623 485 CURVE SMOOTH",
"623 640 OFFCURVE",
"555 724 OFFCURVE",
"443 724 CURVE SMOOTH",
"364 724 OFFCURVE",
"308 665 OFFCURVE",
"308 591 CURVE SMOOTH",
"308 476 OFFCURVE",
"388 393 OFFCURVE",
"676 393 CURVE",
"676 499 LINE",
"480 499 OFFCURVE",
"408 518 OFFCURVE",
"408 583 CURVE SMOOTH",
"408 605 OFFCURVE",
"424 624 OFFCURVE",
"445 624 CURVE SMOOTH",
"473 624 OFFCURVE",
"508 601 OFFCURVE",
"508 488 CURVE SMOOTH",
"508 311 OFFCURVE",
"371 126 OFFCURVE",
"253 126 CURVE SMOOTH",
"217 126 OFFCURVE",
"195 144 OFFCURVE",
"183 170 CURVE SMOOTH",
"174 190 OFFCURVE",
"170 215 OFFCURVE",
"170 240 CURVE SMOOTH",
"170 317 OFFCURVE",
"198 403 OFFCURVE",
"255 509 CURVE",
"135 559 LINE",
"69 430 OFFCURVE",
"43 333 OFFCURVE",
"43 247 CURVE SMOOTH"
);
}
);
width = 706;
}
);
rightMetricsKey = "eq-tangsa";
unicode = 16A84;
script = tangsa;
category = Letter;
subCategory = Other;
},
{
glyphname = "uc-tangsa";
lastChange = "2022-01-07 13:07:32 +0000";
layers = (
{
layerId = "134B12F2-BF5D-48E3-8003-C7502B438C7E";
paths = (
{
closed = 1;
nodes = (
"362 385 OFFCURVE",
"422 252 OFFCURVE",
"524 142 CURVE SMOOTH",
"572 91 OFFCURVE",
"650 27 OFFCURVE",
"709 -22 CURVE",
"799 76 LINE",
"738 123 OFFCURVE",
"672 179 OFFCURVE",
"614 243 CURVE SMOOTH",
"534 331 OFFCURVE",
"489 412 OFFCURVE",
"489 497 CURVE SMOOTH",
"489 572 OFFCURVE",
"518 610 OFFCURVE",
"560 610 CURVE SMOOTH",
"608 610 OFFCURVE",
"639 556 OFFCURVE",
"639 473 CURVE SMOOTH",
"639 390 OFFCURVE",
"605 288 OFFCURVE",
"517 227 CURVE",
"610 142 LINE",
"726 239 OFFCURVE",
"766 371 OFFCURVE",
"766 467 CURVE SMOOTH",
"766 601 OFFCURVE",
"694 724 OFFCURVE",
"552 724 CURVE SMOOTH",
"430 724 OFFCURVE",
"362 638 OFFCURVE",
"362 505 CURVE SMOOTH"
);
},
{
closed = 1;
nodes = (
"48 61 OFFCURVE",
"121 -10 OFFCURVE",
"248 -10 CURVE SMOOTH",
"369 -10 OFFCURVE",
"505 35 OFFCURVE",
"597 128 CURVE",
"507 215 LINE",
"430 151 OFFCURVE",
"321 126 OFFCURVE",
"242 126 CURVE SMOOTH",
"196 126 OFFCURVE",
"181 142 OFFCURVE",
"181 163 CURVE SMOOTH",
"181 176 OFFCURVE",
"185 189 OFFCURVE",
"197 220 CURVE SMOOTH",
"269 406 LINE SMOOTH",
"302 491 OFFCURVE",
"320 547 OFFCURVE",
"320 594 CURVE SMOOTH",
"320 671 OFFCURVE",
"275 724 OFFCURVE",
"176 724 CURVE SMOOTH",
"135 724 OFFCURVE",
"91 714 OFFCURVE",
"44 695 CURVE",
"72 584 LINE",
"93 595 OFFCURVE",
"121 604 OFFCURVE",
"145 604 CURVE SMOOTH",
"179 604 OFFCURVE",
"186 587 OFFCURVE",
"186 566 CURVE SMOOTH",
"186 539 OFFCURVE",
"170 493 OFFCURVE",
"149 440 CURVE SMOOTH",
"75 252 LINE SMOOTH",
"53 197 OFFCURVE",
"48 167 OFFCURVE",
"48 144 CURVE SMOOTH"
);
}
);
width = 819;
},
{
layerId = "9FF96064-8718-4A86-A5C8-73C592101F67";
paths = (
{
closed = 1;
nodes = (
"326 398 OFFCURVE",
"374 268 OFFCURVE",
"479 144 CURVE SMOOTH",
"523 91 OFFCURVE",
"571 48 OFFCURVE",
"635 -9 CURVE",
"684 45 LINE",
"632 88 OFFCURVE",
"582 134 OFFCURVE",
"545 176 CURVE SMOOTH",
"464 267 OFFCURVE",
"398 370 OFFCURVE",
"398 504 CURVE SMOOTH",
"398 600 OFFCURVE",
"433 646 OFFCURVE",
"492 646 CURVE SMOOTH",
"563 646 OFFCURVE",
"593 579 OFFCURVE",
"593 480 CURVE SMOOTH",
"593 379 OFFCURVE",
"562 276 OFFCURVE",
"505 200 CURVE",
"547 139 LINE",
"627 232 OFFCURVE",
"665 364 OFFCURVE",
"665 472 CURVE SMOOTH",
"665 609 OFFCURVE",
"604 724 OFFCURVE",
"484 724 CURVE SMOOTH",
"383 724 OFFCURVE",
"326 644 OFFCURVE",
"326 514 CURVE SMOOTH"
);
},
{
closed = 1;
nodes = (
"66 35 OFFCURVE",
"105 -10 OFFCURVE",
"204 -10 CURVE SMOOTH",
"307 -10 OFFCURVE",
"434 28 OFFCURVE",
"527 119 CURVE",
"479 172 LINE",
"411 101 OFFCURVE",
"292 68 OFFCURVE",
"203 68 CURVE SMOOTH",
"160 68 OFFCURVE",
"140 77 OFFCURVE",
"140 104 CURVE SMOOTH",
"140 116 OFFCURVE",
"146 152 OFFCURVE",
"162 202 CURVE",
"228 412 LINE SMOOTH",
"274 558 OFFCURVE",
"284 607 OFFCURVE",
"284 637 CURVE SMOOTH",
"284 699 OFFCURVE",
"240 724 OFFCURVE",
"194 724 CURVE SMOOTH",
"160 724 OFFCURVE",
"120 715 OFFCURVE",
"81 701 CURVE",
"99 637 LINE",
"119 646 OFFCURVE",
"155 656 OFFCURVE",
"177 656 CURVE SMOOTH",
"198 656 OFFCURVE",
"211 644 OFFCURVE",
"211 624 CURVE SMOOTH",
"211 593 OFFCURVE",
"185 514 OFFCURVE",
"161 438 CURVE SMOOTH",
"92 221 LINE SMOOTH",
"74 165 OFFCURVE",
"66 125 OFFCURVE",
"66 99 CURVE SMOOTH"
);
}
);
width = 721;
}
);
rightKerningGroup = "uc-tangsa";
unicode = 16A85;
script = tangsa;
category = Letter;
subCategory = Other;
},
{
glyphname = "uq-tangsa";
lastChange = "2022-01-07 13:34:04 +0000";
layers = (
{
layerId = "134B12F2-BF5D-48E3-8003-C7502B438C7E";
paths = (
{
closed = 1;
nodes = (
"67 103 OFFCURVE",
"117 -10 OFFCURVE",
"273 -10 CURVE SMOOTH",
"422 -10 OFFCURVE",
"469 74 OFFCURVE",
"469 228 CURVE SMOOTH",
"469 356 LINE SMOOTH",
"469 419 OFFCURVE",
"479 473 OFFCURVE",
"521 473 CURVE SMOOTH",
"546 473 OFFCURVE",
"559 451 OFFCURVE",
"559 433 CURVE SMOOTH",
"559 408 OFFCURVE",
"543 391 OFFCURVE",
"513 391 CURVE SMOOTH",
"488 391 OFFCURVE",
"458 414 OFFCURVE",
"436 448 CURVE SMOOTH",
"424 469 OFFCURVE",
"415 495 OFFCURVE",
"415 524 CURVE SMOOTH",
"415 581 OFFCURVE",
"461 613 OFFCURVE",
"539 619 CURVE",
"524 724 LINE",
"407 719 OFFCURVE",
"313 648 OFFCURVE",
"313 519 CURVE SMOOTH",
"313 463 OFFCURVE",
"336 410 OFFCURVE",
"372 372 CURVE SMOOTH",
"410 333 OFFCURVE",
"456 307 OFFCURVE",
"509 307 CURVE SMOOTH",
"590 307 OFFCURVE",
"641 357 OFFCURVE",
"641 437 CURVE SMOOTH",
"641 507 OFFCURVE",
"587 556 OFFCURVE",
"514 556 CURVE SMOOTH",
"406 556 OFFCURVE",
"355 450 OFFCURVE",
"355 337 CURVE SMOOTH",
"355 240 LINE SMOOTH",
"355 149 OFFCURVE",
"333 126 OFFCURVE",
"270 126 CURVE SMOOTH",
"213 126 OFFCURVE",
"191 158 OFFCURVE",
"191 234 CURVE SMOOTH",
"191 714 LINE",
"67 714 LINE",
"67 242 LINE SMOOTH"
);
}
);
width = 671;
},
{
layerId = "9FF96064-8718-4A86-A5C8-73C592101F67";
paths = (
{
closed = 1;
nodes = (
"85 65 OFFCURVE",
"126 -10 OFFCURVE",
"261 -10 CURVE SMOOTH",
"387 -10 OFFCURVE",
"430 44 OFFCURVE",
"430 189 CURVE SMOOTH",
"430 336 LINE SMOOTH",
"430 400 OFFCURVE",
"443 478 OFFCURVE",
"499 478 CURVE SMOOTH",
"525 478 OFFCURVE",
"538 458 OFFCURVE",
"538 437 CURVE SMOOTH",
"538 414 OFFCURVE",
"522 399 OFFCURVE",
"494 399 CURVE SMOOTH",
"466 399 OFFCURVE",
"438 415 OFFCURVE",
"416 436 CURVE SMOOTH",
"385 465 OFFCURVE",
"376 499 OFFCURVE",
"376 534 CURVE SMOOTH",
"376 608 OFFCURVE",
"422 649 OFFCURVE",
"501 656 CURVE",
"491 724 LINE",
"389 719 OFFCURVE",
"307 652 OFFCURVE",
"307 529 CURVE SMOOTH",
"307 463 OFFCURVE",
"332 411 OFFCURVE",
"382 372 CURVE SMOOTH",
"410 350 OFFCURVE",
"449 330 OFFCURVE",
"493 330 CURVE SMOOTH",
"560 330 OFFCURVE",
"601 373 OFFCURVE",
"601 442 CURVE SMOOTH",
"601 503 OFFCURVE",
"558 546 OFFCURVE",
"499 546 CURVE SMOOTH",
"406 546 OFFCURVE",
"362 444 OFFCURVE",
"362 359 CURVE SMOOTH",
"362 201 LINE SMOOTH",
"362 106 OFFCURVE",
"343 68 OFFCURVE",
"260 68 CURVE SMOOTH",
"169 68 OFFCURVE",
"155 119 OFFCURVE",
"155 195 CURVE SMOOTH",
"155 714 LINE",
"85 714 LINE",
"85 210 LINE SMOOTH"
);
}
);
width = 618;
}
);
leftKerningGroup = "az-tangsa";
leftMetricsKey = "az-tangsa";
unicode = 16A86;
script = tangsa;
category = Letter;
subCategory = Other;
},
{
glyphname = "ux-tangsa";
lastChange = "2022-01-07 12:51:11 +0000";
layers = (
{
components = (
{
name = "oz-tangsa";
}
);
layerId = "134B12F2-BF5D-48E3-8003-C7502B438C7E";
paths = (
{
closed = 1;
nodes = (
"348 138 LINE",
"364 32 OFFCURVE",
"425 -5 OFFCURVE",
"490 -5 CURVE SMOOTH",
"555 -5 OFFCURVE",
"629 35 OFFCURVE",
"629 128 CURVE SMOOTH",
"629 189 OFFCURVE",
"596 243 OFFCURVE",
"561 283 CURVE",
"476 229 LINE",
"504 193 OFFCURVE",
"526 163 OFFCURVE",
"526 132 CURVE SMOOTH",
"526 107 OFFCURVE",
"510 88 OFFCURVE",
"486 88 CURVE SMOOTH",
"461 88 OFFCURVE",
"431 109 OFFCURVE",
"431 176 CURVE SMOOTH",
"431 456 LINE",
"338 199 LINE"
);
}
);
width = 648;
},
{
components = (
{
name = "oz-tangsa";
}
);
layerId = "9FF96064-8718-4A86-A5C8-73C592101F67";
paths = (
{
closed = 1;
nodes = (
"344 128 LINE",
"358 29 OFFCURVE",
"412 -6 OFFCURVE",
"467 -6 CURVE SMOOTH",
"516 -6 OFFCURVE",
"572 25 OFFCURVE",
"572 105 CURVE SMOOTH",
"572 158 OFFCURVE",
"544 204 OFFCURVE",
"515 234 CURVE",
"467 201 LINE",
"492 174 OFFCURVE",
"513 145 OFFCURVE",
"513 109 CURVE SMOOTH",
"513 76 OFFCURVE",
"491 57 OFFCURVE",
"466 57 CURVE SMOOTH",
"434 57 OFFCURVE",
"394 81 OFFCURVE",
"394 164 CURVE SMOOTH",
"394 458 LINE",
"338 189 LINE"
);
}
);
width = 578;
}
);
leftKerningGroup = "oz-tangsa";
leftMetricsKey = "oz-tangsa";
unicode = 16A87;
script = tangsa;
category = Letter;
subCategory = Other;
},
{
glyphname = "awz-tangsa";
lastChange = "2022-01-07 11:47:22 +0000";
layers = (
{
layerId = "9FF96064-8718-4A86-A5C8-73C592101F67";
paths = (
{
closed = 1;
nodes = (
"404 92 LINE",
"375 76 OFFCURVE",
"348 68 OFFCURVE",
"318 68 CURVE SMOOTH",
"206 68 OFFCURVE",
"125 182 OFFCURVE",
"125 398 CURVE SMOOTH",
"125 575 OFFCURVE",
"174 646 OFFCURVE",
"240 646 CURVE SMOOTH",
"304 646 OFFCURVE",
"320 573 OFFCURVE",
"320 491 CURVE SMOOTH",
"320 339 OFFCURVE",
"263 209 OFFCURVE",
"158 108 CURVE",
"198 49 LINE",
"329 167 OFFCURVE",
"392 329 OFFCURVE",
"392 477 CURVE SMOOTH",
"392 603 OFFCURVE",
"345 724 OFFCURVE",
"232 724 CURVE SMOOTH",
"124 724 OFFCURVE",
"53 619 OFFCURVE",
"53 402 CURVE SMOOTH",
"53 121 OFFCURVE",
"174 -10 OFFCURVE",
"322 -10 CURVE SMOOTH",
"365 -10 OFFCURVE",
"404 1 OFFCURVE",
"433 24 CURVE"
);
}
);
width = 468;
},
{
layerId = "134B12F2-BF5D-48E3-8003-C7502B438C7E";
paths = (
{
closed = 1;
nodes = (
"451 166 LINE",
"408 135 OFFCURVE",
"370 126 OFFCURVE",
"340 126 CURVE SMOOTH",
"246 126 OFFCURVE",
"171 222 OFFCURVE",
"171 399 CURVE SMOOTH",
"171 547 OFFCURVE",
"216 603 OFFCURVE",
"267 603 CURVE SMOOTH",
"311 603 OFFCURVE",
"329 547 OFFCURVE",
"329 482 CURVE SMOOTH",
"329 345 OFFCURVE",
"267 224 OFFCURVE",
"163 145 CURVE",
"223 56 LINE",
"377 162 OFFCURVE",
"456 324 OFFCURVE",
"456 469 CURVE SMOOTH",
"456 600 OFFCURVE",
"394 724 OFFCURVE",
"259 724 CURVE SMOOTH",
"133 724 OFFCURVE",
"44 622 OFFCURVE",
"44 402 CURVE SMOOTH",
"44 123 OFFCURVE",
"182 -10 OFFCURVE",
"344 -10 CURVE SMOOTH",
"397 -10 OFFCURVE",
"448 4 OFFCURVE",
"494 39 CURVE"
);
}
);
width = 526;
}
);
leftKerningGroup = "uiuz-tangsa";
unicode = 16A88;
script = tangsa;
category = Letter;
subCategory = Other;
},
{
glyphname = "awc-tangsa";
lastChange = "2022-01-07 11:51:39 +0000";
layers = (
{
layerId = "9FF96064-8718-4A86-A5C8-73C592101F67";
paths = (
{
closed = 1;
nodes = (
"146 405 OFFCURVE",
"308 405 CURVE SMOOTH",
"348 405 OFFCURVE",
"373 390 OFFCURVE",
"373 363 CURVE SMOOTH",
"373 341 OFFCURVE",
"355 324 OFFCURVE",
"327 324 CURVE SMOOTH",
"258 324 OFFCURVE",
"239 383 OFFCURVE",
"240 433 CURVE SMOOTH",
"241 552 OFFCURVE",
"332 606 OFFCURVE",
"459 659 CURVE",
"429 726 LINE",
"305 674 OFFCURVE",
"170 591 OFFCURVE",
"170 438 CURVE SMOOTH",
"170 360 OFFCURVE",
"215 252 OFFCURVE",
"329 252 CURVE SMOOTH",
"398 252 OFFCURVE",
"443 302 OFFCURVE",
"443 360 CURVE SMOOTH",
"443 427 OFFCURVE",
"390 468 OFFCURVE",
"310 468 CURVE SMOOTH",
"107 468 OFFCURVE",
"45 261 OFFCURVE",
"45 36 CURVE",
"94 0 LINE",
"478 0 LINE",
"478 79 LINE",
"86 79 LINE",
"126 50 LINE",
"123 208 OFFCURVE"
);
}
);
width = 513;
},
{
layerId = "134B12F2-BF5D-48E3-8003-C7502B438C7E";
paths = (
{
closed = 1;
nodes = (
"187 400 OFFCURVE",
"319 400 CURVE SMOOTH",
"352 400 OFFCURVE",
"370 383 OFFCURVE",
"370 363 CURVE SMOOTH",
"370 342 OFFCURVE",
"352 324 OFFCURVE",
"327 324 CURVE SMOOTH",
"291 324 OFFCURVE",
"259 371 OFFCURVE",
"262 441 CURVE SMOOTH",
"266 516 OFFCURVE",
"341 562 OFFCURVE",
"489 599 CURVE",
"444 724 LINE",
"272 674 OFFCURVE",
"159 580 OFFCURVE",
"159 444 CURVE SMOOTH",
"159 332 OFFCURVE",
"223 234 OFFCURVE",
"329 234 CURVE SMOOTH",
"408 234 OFFCURVE",
"460 290 OFFCURVE",
"460 360 CURVE SMOOTH",
"460 437 OFFCURVE",
"401 490 OFFCURVE",
"311 490 CURVE SMOOTH",
"113 490 OFFCURVE",
"31 278 OFFCURVE",
"31 44 CURVE",
"90 0 LINE",
"489 0 LINE",
"489 134 LINE",
"89 134 LINE",
"157 70 LINE",
"154 193 OFFCURVE"
);
}
);
width = 525;
}
);
rightMetricsKey = "ez-tangsa";
unicode = 16A89;
script = tangsa;
category = Letter;
subCategory = Other;
},
{
glyphname = "awq-tangsa";
lastChange = "2022-01-07 13:07:32 +0000";
layers = (
{
layerId = "134B12F2-BF5D-48E3-8003-C7502B438C7E";
paths = (
{
closed = 1;
nodes = (
"214 44 OFFCURVE",
"304 -10 OFFCURVE",
"402 -10 CURVE SMOOTH",
"511 -10 OFFCURVE",
"579 81 OFFCURVE",
"579 182 CURVE SMOOTH",
"579 284 OFFCURVE",
"505 373 OFFCURVE",
"390 373 CURVE SMOOTH",
"350 373 OFFCURVE",
"311 360 OFFCURVE",
"267 336 CURVE",
"266 233 LINE",
"306 255 OFFCURVE",
"345 269 OFFCURVE",
"378 269 CURVE SMOOTH",
"432 269 OFFCURVE",
"464 230 OFFCURVE",
"464 188 CURVE SMOOTH",
"464 147 OFFCURVE",
"436 114 OFFCURVE",
"399 114 CURVE SMOOTH",
"369 114 OFFCURVE",
"338 133 OFFCURVE",
"338 182 CURVE SMOOTH",
"338 460 LINE",
"214 460 LINE",
"214 206 LINE SMOOTH"
);
},
{
closed = 1;
nodes = (
"30 521 OFFCURVE",
"52 479 OFFCURVE",
"85 452 CURVE SMOOTH",
"125 418 OFFCURVE",
"189 397 OFFCURVE",
"274 397 CURVE SMOOTH",
"418 397 OFFCURVE",
"531 464 OFFCURVE",
"531 574 CURVE SMOOTH",
"531 659 OFFCURVE",
"461 724 OFFCURVE",
"369 724 CURVE SMOOTH",
"273 724 OFFCURVE",
"214 666 OFFCURVE",
"214 589 CURVE SMOOTH",
"214 478 LINE",
"338 478 LINE",
"338 577 LINE SMOOTH",
"338 611 OFFCURVE",
"360 624 OFFCURVE",
"385 624 CURVE SMOOTH",
"410 624 OFFCURVE",
"431 606 OFFCURVE",
"431 580 CURVE SMOOTH",
"431 529 OFFCURVE",
"361 500 OFFCURVE",
"270 500 CURVE SMOOTH",
"187 500 OFFCURVE",
"154 534 OFFCURVE",
"154 612 CURVE SMOOTH",
"154 716 LINE",
"30 706 LINE",
"30 607 LINE SMOOTH"
);
}
);
width = 621;
},
{
layerId = "9FF96064-8718-4A86-A5C8-73C592101F67";
paths = (
{
closed = 1;
nodes = (
"169 28 OFFCURVE",
"242 -10 OFFCURVE",
"315 -10 CURVE SMOOTH",
"413 -10 OFFCURVE",
"462 62 OFFCURVE",
"462 150 CURVE SMOOTH",
"462 243 OFFCURVE",
"408 318 OFFCURVE",
"298 318 CURVE SMOOTH",
"274 318 OFFCURVE",
"245 313 OFFCURVE",
"217 302 CURVE",
"216 226 LINE",
"245 239 OFFCURVE",
"273 245 OFFCURVE",
"298 245 CURVE SMOOTH",
"366 245 OFFCURVE",
"395 201 OFFCURVE",
"395 157 CURVE SMOOTH",
"395 105 OFFCURVE",
"361 68 OFFCURVE",
"311 68 CURVE SMOOTH",
"275 68 OFFCURVE",
"239 89 OFFCURVE",
"239 155 CURVE SMOOTH",
"239 447 LINE",
"169 447 LINE",
"169 168 LINE SMOOTH"
);
},
{
closed = 1;
nodes = (
"20 545 OFFCURVE",
"34 504 OFFCURVE",
"62 476 CURVE SMOOTH",
"90 448 OFFCURVE",
"138 430 OFFCURVE",
"210 430 CURVE SMOOTH",
"318 430 OFFCURVE",
"420 488 OFFCURVE",
"420 601 CURVE SMOOTH",
"420 677 OFFCURVE",
"364 724 OFFCURVE",
"296 724 CURVE SMOOTH",
"217 724 OFFCURVE",
"169 679 OFFCURVE",
"169 601 CURVE SMOOTH",
"169 469 LINE",
"239 469 LINE",
"239 585 LINE SMOOTH",
"239 636 OFFCURVE",
"262 655 OFFCURVE",
"297 655 CURVE SMOOTH",
"329 655 OFFCURVE",
"353 637 OFFCURVE",
"353 601 CURVE SMOOTH",
"353 529 OFFCURVE",
"269 496 OFFCURVE",
"223 496 CURVE SMOOTH",
"117 496 OFFCURVE",
"95 526 OFFCURVE",
"95 627 CURVE SMOOTH",
"95 719 LINE",
"20 713 LINE",
"20 608 LINE SMOOTH"
);
}
);
width = 509;
}
);
unicode = 16A8A;
script = tangsa;
category = Letter;
subCategory = Other;
},
{
glyphname = "awx-tangsa";
lastChange = "2022-01-07 13:34:25 +0000";
layers = (
{
layerId = "9FF96064-8718-4A86-A5C8-73C592101F67";
paths = (
{
closed = 1;
nodes = (
"66 133 OFFCURVE",
"173 -10 OFFCURVE",
"357 -10 CURVE SMOOTH",
"536 -10 OFFCURVE",
"646 131 OFFCURVE",
"646 344 CURVE SMOOTH",
"646 470 OFFCURVE",
"604 603 OFFCURVE",
"531 723 CURVE",
"461 697 LINE",
"532 569 OFFCURVE",
"574 479 OFFCURVE",
"574 352 CURVE SMOOTH",
"574 172 OFFCURVE",
"491 68 OFFCURVE",
"355 68 CURVE SMOOTH",
"216 68 OFFCURVE",
"136 173 OFFCURVE",
"136 378 CURVE SMOOTH",
"136 549 OFFCURVE",
"199 655 OFFCURVE",
"247 655 CURVE SMOOTH",
"270 655 OFFCURVE",
"293 633 OFFCURVE",
"293 595 CURVE SMOOTH",
"293 560 OFFCURVE",
"273 497 OFFCURVE",
"183 497 CURVE SMOOTH",
"160 497 OFFCURVE",
"136 501 OFFCURVE",
"107 511 CURVE",
"113 441 LINE",
"141 434 OFFCURVE",
"166 431 OFFCURVE",
"189 431 CURVE SMOOTH",
"323 431 OFFCURVE",
"366 531 OFFCURVE",
"366 601 CURVE SMOOTH",
"366 675 OFFCURVE",
"319 724 OFFCURVE",
"252 724 CURVE SMOOTH",
"154 724 OFFCURVE",
"66 600 OFFCURVE",
"66 376 CURVE SMOOTH"
);
}
);
width = 709;
},
{
layerId = "134B12F2-BF5D-48E3-8003-C7502B438C7E";
paths = (
{
closed = 1;
nodes = (
"41 133 OFFCURVE",
"163 -10 OFFCURVE",
"370 -10 CURVE SMOOTH",
"570 -10 OFFCURVE",
"690 129 OFFCURVE",
"690 342 CURVE SMOOTH",
"690 466 OFFCURVE",
"649 599 OFFCURVE",
"581 724 CURVE",
"452 686 LINE",
"520 557 OFFCURVE",
"560 462 OFFCURVE",
"560 353 CURVE SMOOTH",
"560 209 OFFCURVE",
"486 130 OFFCURVE",
"365 130 CURVE SMOOTH",
"241 130 OFFCURVE",
"170 215 OFFCURVE",
"170 377 CURVE SMOOTH",
"170 556 OFFCURVE",
"210 624 OFFCURVE",
"254 624 CURVE SMOOTH",
"276 624 OFFCURVE",
"287 607 OFFCURVE",
"287 582 CURVE SMOOTH",
"287 556 OFFCURVE",
"270 509 OFFCURVE",
"194 509 CURVE SMOOTH",
"174 509 OFFCURVE",
"146 516 OFFCURVE",
"100 532 CURVE",
"109 420 LINE",
"147 411 OFFCURVE",
"176 407 OFFCURVE",
"200 407 CURVE SMOOTH",
"341 407 OFFCURVE",
"387 513 OFFCURVE",
"387 587 CURVE SMOOTH",
"387 670 OFFCURVE",
"334 724 OFFCURVE",
"259 724 CURVE SMOOTH",
"144 724 OFFCURVE",
"41 600 OFFCURVE",
"41 375 CURVE SMOOTH"
);
}
);
width = 731;
}
);
leftKerningGroup = "uiuz-tangsa";
unicode = 16A8B;
script = tangsa;
category = Letter;
subCategory = Other;
},
{
glyphname = "uiz-tangsa";
lastChange = "2022-01-07 13:34:31 +0000";
layers = (
{
layerId = "9FF96064-8718-4A86-A5C8-73C592101F67";
paths = (
{
closed = 1;
nodes = (
"136 598 OFFCURVE",
"190 541 OFFCURVE",
"226 494 CURVE SMOOTH",
"286 415 OFFCURVE",
"347 297 OFFCURVE",
"347 187 CURVE SMOOTH",
"347 108 OFFCURVE",
"305 68 OFFCURVE",
"246 68 CURVE SMOOTH",
"187 68 OFFCURVE",
"151 105 OFFCURVE",
"151 179 CURVE SMOOTH",
"151 272 OFFCURVE",
"208 391 OFFCURVE",
"270 486 CURVE SMOOTH",
"320 563 OFFCURVE",
"400 626 OFFCURVE",
"471 626 CURVE SMOOTH",
"514 626 OFFCURVE",
"531 603 OFFCURVE",
"531 572 CURVE SMOOTH",
"531 535 OFFCURVE",
"504 510 OFFCURVE",
"472 510 CURVE SMOOTH",
"439 510 OFFCURVE",
"423 536 OFFCURVE",
"423 581 CURVE SMOOTH",
"423 638 OFFCURVE",
"449 704 OFFCURVE",
"476 744 CURVE",
"414 770 LINE",
"383 716 OFFCURVE",
"359 641 OFFCURVE",
"359 576 CURVE SMOOTH",
"359 491 OFFCURVE",
"404 443 OFFCURVE",
"474 443 CURVE SMOOTH",
"545 443 OFFCURVE",
"594 492 OFFCURVE",
"594 570 CURVE SMOOTH",
"594 642 OFFCURVE",
"554 689 OFFCURVE",
"476 689 CURVE SMOOTH",
"374 689 OFFCURVE",
"286 621 OFFCURVE",
"225 538 CURVE SMOOTH",
"135 416 OFFCURVE",
"79 288 OFFCURVE",
"79 179 CURVE SMOOTH",
"79 48 OFFCURVE",
"149 -10 OFFCURVE",
"249 -10 CURVE SMOOTH",
"356 -10 OFFCURVE",
"418 52 OFFCURVE",
"418 182 CURVE SMOOTH",
"418 314 OFFCURVE",
"364 439 OFFCURVE",
"277 546 CURVE SMOOTH",
"211 627 OFFCURVE",
"135 685 OFFCURVE",
"64 725 CURVE",
"26 663 LINE"
);
}
);
width = 615;
},
{
layerId = "134B12F2-BF5D-48E3-8003-C7502B438C7E";
paths = (
{
closed = 1;
nodes = (
"113 571 OFFCURVE",
"178 512 OFFCURVE",
"229 460 CURVE SMOOTH",
"309 379 OFFCURVE",
"356 307 OFFCURVE",
"356 221 CURVE SMOOTH",
"356 152 OFFCURVE",
"321 126 OFFCURVE",
"270 126 CURVE SMOOTH",
"221 126 OFFCURVE",
"190 152 OFFCURVE",
"190 209 CURVE SMOOTH",
"190 296 OFFCURVE",
"231 395 OFFCURVE",
"296 471 CURVE SMOOTH",
"351 534 OFFCURVE",
"470 596 OFFCURVE",
"547 596 CURVE SMOOTH",
"578 596 OFFCURVE",
"595 578 OFFCURVE",
"595 556 CURVE SMOOTH",
"595 531 OFFCURVE",
"577 510 OFFCURVE",
"553 510 CURVE SMOOTH",
"531 510 OFFCURVE",
"510 524 OFFCURVE",
"510 567 CURVE SMOOTH",
"510 610 OFFCURVE",
"543 679 OFFCURVE",
"581 729 CURVE",
"483 770 LINE",
"447 707 OFFCURVE",
"419 627 OFFCURVE",
"419 562 CURVE SMOOTH",
"419 492 OFFCURVE",
"474 420 OFFCURVE",
"553 420 CURVE SMOOTH",
"627 420 OFFCURVE",
"681 472 OFFCURVE",
"681 550 CURVE SMOOTH",
"681 636 OFFCURVE",
"627 687 OFFCURVE",
"525 687 CURVE SMOOTH",
"413 687 OFFCURVE",
"289 619 OFFCURVE",
"209 527 CURVE SMOOTH",
"118 422 OFFCURVE",
"63 304 OFFCURVE",
"63 203 CURVE SMOOTH",
"63 73 OFFCURVE",
"147 -10 OFFCURVE",
"273 -10 CURVE SMOOTH",
"392 -10 OFFCURVE",
"483 53 OFFCURVE",
"483 207 CURVE SMOOTH",
"483 335 OFFCURVE",
"435 424 OFFCURVE",
"317 548 CURVE SMOOTH",
"256 612 OFFCURVE",
"184 678 OFFCURVE",
"103 728 CURVE",
"30 621 LINE"
);
}
);
width = 691;
}
);
unicode = 16A8C;
script = tangsa;
category = Letter;
subCategory = Other;
},
{
glyphname = "uic-tangsa";
lastChange = "2022-01-07 13:34:37 +0000";
layers = (
{
layerId = "9FF96064-8718-4A86-A5C8-73C592101F67";
paths = (
{
closed = 1;
nodes = (
"33 493 OFFCURVE",
"73 446 OFFCURVE",
"151 446 CURVE SMOOTH",
"179 446 OFFCURVE",
"205 451 OFFCURVE",
"229 461 CURVE",
"233 534 LINE",
"208 518 OFFCURVE",
"182 509 OFFCURVE",
"156 509 CURVE SMOOTH",
"113 509 OFFCURVE",
"96 532 OFFCURVE",
"96 563 CURVE SMOOTH",
"96 600 OFFCURVE",
"123 625 OFFCURVE",
"155 625 CURVE SMOOTH",
"188 625 OFFCURVE",
"204 599 OFFCURVE",
"204 554 CURVE SMOOTH",
"204 489 OFFCURVE",
"187 443 OFFCURVE",
"150 357 CURVE SMOOTH",
"122 292 OFFCURVE",
"96 211 OFFCURVE",
"95 157 CURVE SMOOTH",
"93 47 OFFCURVE",
"156 -10 OFFCURVE",
"243 -10 CURVE SMOOTH",
"460 -10 OFFCURVE",
"596 264 OFFCURVE",
"596 505 CURVE SMOOTH",
"596 668 OFFCURVE",
"527 724 OFFCURVE",
"445 724 CURVE SMOOTH",
"372 724 OFFCURVE",
"322 669 OFFCURVE",
"322 596 CURVE SMOOTH",
"322 488 OFFCURVE",
"413 402 OFFCURVE",
"658 405 CURVE",
"658 474 LINE",
"440 474 OFFCURVE",
"395 534 OFFCURVE",
"395 594 CURVE SMOOTH",
"395 629 OFFCURVE",
"411 655 OFFCURVE",
"444 655 CURVE SMOOTH",
"474 655 OFFCURVE",
"528 628 OFFCURVE",
"528 503 CURVE SMOOTH",
"528 321 OFFCURVE",
"409 68 OFFCURVE",
"245 68 CURVE SMOOTH",
"190 68 OFFCURVE",
"162 105 OFFCURVE",
"162 156 CURVE SMOOTH",
"162 206 OFFCURVE",
"184 262 OFFCURVE",
"213 330 CURVE SMOOTH",
"250 417 OFFCURVE",
"271 488 OFFCURVE",
"271 550 CURVE SMOOTH",
"271 635 OFFCURVE",
"224 692 OFFCURVE",
"153 692 CURVE SMOOTH",
"82 692 OFFCURVE",
"33 643 OFFCURVE",
"33 565 CURVE SMOOTH"
);
}
);
width = 693;
},
{
layerId = "134B12F2-BF5D-48E3-8003-C7502B438C7E";
paths = (
{
closed = 1;
nodes = (
"40 477 OFFCURVE",
"94 426 OFFCURVE",
"196 426 CURVE SMOOTH",
"221 426 OFFCURVE",
"244 430 OFFCURVE",
"268 437 CURVE",
"270 546 LINE",
"237 528 OFFCURVE",
"204 517 OFFCURVE",
"174 517 CURVE SMOOTH",
"143 517 OFFCURVE",
"126 535 OFFCURVE",
"126 557 CURVE SMOOTH",
"126 582 OFFCURVE",
"144 603 OFFCURVE",
"168 603 CURVE SMOOTH",
"190 603 OFFCURVE",
"211 589 OFFCURVE",
"211 546 CURVE SMOOTH",
"211 494 OFFCURVE",
"185 433 OFFCURVE",
"151 369 CURVE SMOOTH",
"115 301 OFFCURVE",
"95 242 OFFCURVE",
"95 176 CURVE SMOOTH",
"95 45 OFFCURVE",
"201 -10 OFFCURVE",
"279 -10 CURVE SMOOTH",
"505 -10 OFFCURVE",
"670 221 OFFCURVE",
"670 490 CURVE SMOOTH",
"670 640 OFFCURVE",
"603 724 OFFCURVE",
"491 724 CURVE SMOOTH",
"409 724 OFFCURVE",
"357 665 OFFCURVE",
"357 592 CURVE SMOOTH",
"357 471 OFFCURVE",
"437 393 OFFCURVE",
"725 393 CURVE",
"725 499 LINE",
"529 499 OFFCURVE",
"457 518 OFFCURVE",
"457 583 CURVE SMOOTH",
"457 605 OFFCURVE",
"473 624 OFFCURVE",
"494 624 CURVE SMOOTH",
"523 624 OFFCURVE",
"558 601 OFFCURVE",
"558 488 CURVE SMOOTH",
"558 341 OFFCURVE",
"430 126 OFFCURVE",
"281 126 CURVE SMOOTH",
"245 126 OFFCURVE",
"222 146 OFFCURVE",
"222 189 CURVE SMOOTH",
"222 243 OFFCURVE",
"249 296 OFFCURVE",
"275 355 CURVE SMOOTH",
"304 419 OFFCURVE",
"322 477 OFFCURVE",
"322 524 CURVE SMOOTH",
"322 627 OFFCURVE",
"255 693 OFFCURVE",
"168 693 CURVE SMOOTH",
"94 693 OFFCURVE",
"40 641 OFFCURVE",
"40 563 CURVE SMOOTH"
);
}
);
width = 752;
}
);
unicode = 16A8D;
script = tangsa;
category = Letter;
subCategory = Other;
},
{
glyphname = "uiq-tangsa";
lastChange = "2022-01-07 13:34:46 +0000";
layers = (
{
layerId = "9FF96064-8718-4A86-A5C8-73C592101F67";
paths = (
{
closed = 1;
nodes = (
"37 415 OFFCURVE",
"131 352 OFFCURVE",
"241 352 CURVE SMOOTH",
"262 352 OFFCURVE",
"283 354 OFFCURVE",
"304 357 CURVE",
"335 438 LINE",
"306 429 OFFCURVE",
"275 424 OFFCURVE",
"242 424 CURVE SMOOTH",
"168 424 OFFCURVE",
"104 461 OFFCURVE",
"104 531 CURVE SMOOTH",
"104 599 OFFCURVE",
"156 646 OFFCURVE",
"219 646 CURVE SMOOTH",
"281 646 OFFCURVE",
"328 612 OFFCURVE",
"328 523 CURVE SMOOTH",
"328 419 OFFCURVE",
"266 325 OFFCURVE",
"231 253 CURVE SMOOTH",
"207 203 OFFCURVE",
"187 157 OFFCURVE",
"187 112 CURVE SMOOTH",
"187 43 OFFCURVE",
"231 -10 OFFCURVE",
"309 -10 CURVE SMOOTH",
"378 -10 OFFCURVE",
"435 33 OFFCURVE",
"435 113 CURVE SMOOTH",
"435 208 OFFCURVE",
"359 265 OFFCURVE",
"271 280 CURVE",
"239 220 LINE",
"287 215 OFFCURVE",
"365 186 OFFCURVE",
"365 123 CURVE SMOOTH",
"365 86 OFFCURVE",
"340 59 OFFCURVE",
"305 59 CURVE SMOOTH",
"273 59 OFFCURVE",
"254 81 OFFCURVE",
"254 120 CURVE SMOOTH",
"254 143 OFFCURVE",
"261 175 OFFCURVE",
"294 239 CURVE SMOOTH",
"334 317 OFFCURVE",
"398 429 OFFCURVE",
"398 531 CURVE SMOOTH",
"398 668 OFFCURVE",
"312 724 OFFCURVE",
"214 724 CURVE SMOOTH",
"115 724 OFFCURVE",
"37 654 OFFCURVE",
"37 546 CURVE SMOOTH"
);
}
);
width = 477;
},
{
layerId = "134B12F2-BF5D-48E3-8003-C7502B438C7E";
paths = (
{
closed = 1;
nodes = (
"26 402 OFFCURVE",
"141 328 OFFCURVE",
"264 328 CURVE SMOOTH",
"283 328 OFFCURVE",
"313 334 OFFCURVE",
"348 339 CURVE",
"408 473 LINE",
"341 451 OFFCURVE",
"294 440 OFFCURVE",
"265 440 CURVE SMOOTH",
"202 440 OFFCURVE",
"151 466 OFFCURVE",
"151 522 CURVE SMOOTH",
"151 573 OFFCURVE",
"192 604 OFFCURVE",
"241 604 CURVE SMOOTH",
"285 604 OFFCURVE",
"326 576 OFFCURVE",
"326 517 CURVE SMOOTH",
"326 461 OFFCURVE",
"298 414 OFFCURVE",
"258 344 CURVE SMOOTH",
"206 252 OFFCURVE",
"179 191 OFFCURVE",
"179 135 CURVE SMOOTH",
"179 52 OFFCURVE",
"234 -10 OFFCURVE",
"333 -10 CURVE SMOOTH",
"418 -10 OFFCURVE",
"493 42 OFFCURVE",
"493 138 CURVE SMOOTH",
"493 233 OFFCURVE",
"396 295 OFFCURVE",
"269 305 CURVE",
"218 218 LINE",
"318 209 OFFCURVE",
"380 184 OFFCURVE",
"380 137 CURVE SMOOTH",
"380 112 OFFCURVE",
"362 90 OFFCURVE",
"331 90 CURVE SMOOTH",
"305 90 OFFCURVE",
"289 111 OFFCURVE",
"289 133 CURVE SMOOTH",
"289 161 OFFCURVE",
"320 210 OFFCURVE",
"361 273 CURVE SMOOTH",
"408 346 OFFCURVE",
"453 442 OFFCURVE",
"453 522 CURVE SMOOTH",
"453 651 OFFCURVE",
"351 724 OFFCURVE",
"236 724 CURVE SMOOTH",
"118 724 OFFCURVE",
"26 651 OFFCURVE",
"26 534 CURVE SMOOTH"
);
}
);
width = 537;
}
);
unicode = 16A8E;
script = tangsa;
category = Letter;
subCategory = Other;
},
{
glyphname = "uix-tangsa";
lastChange = "2022-01-07 11:46:53 +0000";
layers = (
{
layerId = "9FF96064-8718-4A86-A5C8-73C592101F67";
paths = (
{
closed = 1;
nodes = (
"742 432 OFFCURVE",
"719 325 OFFCURVE",
"685 243 CURVE SMOOTH",
"656 177 OFFCURVE",
"608 68 OFFCURVE",
"534 68 CURVE SMOOTH",
"499 68 OFFCURVE",
"474 97 OFFCURVE",
"462 190 CURVE SMOOTH",
"419 512 LINE SMOOTH",
"396 682 OFFCURVE",
"329 724 OFFCURVE",
"247 724 CURVE SMOOTH",
"145 724 OFFCURVE",
"55 648 OFFCURVE",
"55 348 CURVE SMOOTH",
"55 85 OFFCURVE",
"160 -10 OFFCURVE",
"265 -10 CURVE SMOOTH",
"331 -10 OFFCURVE",
"392 21 OFFCURVE",
"456 92 CURVE",
"429 146 LINE",
"392 108 OFFCURVE",
"331 70 OFFCURVE",
"269 70 CURVE SMOOTH",
"205 70 OFFCURVE",
"127 110 OFFCURVE",
"127 343 CURVE SMOOTH",
"127 568 OFFCURVE",
"190 646 OFFCURVE",
"254 646 CURVE SMOOTH",
"323 646 OFFCURVE",
"337 587 OFFCURVE",
"354 468 CURVE SMOOTH",
"396 179 LINE SMOOTH",
"419 22 OFFCURVE",
"475 -10 OFFCURVE",
"529 -10 CURVE SMOOTH",
"648 -10 OFFCURVE",
"720 142 OFFCURVE",
"761 247 CURVE SMOOTH",
"796 337 OFFCURVE",
"815 441 OFFCURVE",
"814 510 CURVE SMOOTH",
"813 646 OFFCURVE",
"743 724 OFFCURVE",
"650 724 CURVE SMOOTH",
"565 724 OFFCURVE",
"488 663 OFFCURVE",
"488 571 CURVE SMOOTH",
"488 488 OFFCURVE",
"530 423 OFFCURVE",
"607 369 CURVE SMOOTH",
"758 262 LINE SMOOTH",
"814 223 OFFCURVE",
"826 194 OFFCURVE",
"825 160 CURVE SMOOTH",
"824 117 OFFCURVE",
"795 73 OFFCURVE",
"760 34 CURVE",
"828 -9 LINE",
"877 55 OFFCURVE",
"892 110 OFFCURVE",
"892 155 CURVE SMOOTH",
"892 210 OFFCURVE",
"875 262 OFFCURVE",
"798 316 CURVE SMOOTH",
"657 415 LINE SMOOTH",
"585 465 OFFCURVE",
"559 511 OFFCURVE",
"559 554 CURVE SMOOTH",
"559 604 OFFCURVE",
"601 646 OFFCURVE",
"654 646 CURVE SMOOTH",
"699 646 OFFCURVE",
"742 610 OFFCURVE",
"742 515 CURVE SMOOTH"
);
}
);
width = 926;
},
{
layerId = "134B12F2-BF5D-48E3-8003-C7502B438C7E";
paths = (
{
closed = 1;
nodes = (
"750 455 OFFCURVE",
"726 351 OFFCURVE",
"685 266 CURVE SMOOTH",
"646 185 OFFCURVE",
"604 120 OFFCURVE",
"551 120 CURVE SMOOTH",
"522 120 OFFCURVE",
"509 140 OFFCURVE",
"501 202 CURVE SMOOTH",
"460 506 LINE SMOOTH",
"438 667 OFFCURVE",
"360 724 OFFCURVE",
"268 724 CURVE SMOOTH",
"160 724 OFFCURVE",
"48 636 OFFCURVE",
"48 349 CURVE SMOOTH",
"48 84 OFFCURVE",
"167 -10 OFFCURVE",
"285 -10 CURVE SMOOTH",
"353 -10 OFFCURVE",
"419 24 OFFCURVE",
"489 104 CURVE",
"446 211 LINE",
"403 169 OFFCURVE",
"342 126 OFFCURVE",
"289 126 CURVE SMOOTH",
"238 126 OFFCURVE",
"175 158 OFFCURVE",
"175 344 CURVE SMOOTH",
"175 524 OFFCURVE",
"225 588 OFFCURVE",
"275 588 CURVE SMOOTH",
"319 588 OFFCURVE",
"330 545 OFFCURVE",
"342 459 CURVE SMOOTH",
"379 186 LINE SMOOTH",
"401 23 OFFCURVE",
"472 -10 OFFCURVE",
"539 -10 CURVE SMOOTH",
"670 -10 OFFCURVE",
"760 119 OFFCURVE",
"818 258 CURVE SMOOTH",
"855 346 OFFCURVE",
"874 437 OFFCURVE",
"874 497 CURVE SMOOTH",
"873 644 OFFCURVE",
"794 724 OFFCURVE",
"689 724 CURVE SMOOTH",
"598 724 OFFCURVE",
"511 659 OFFCURVE",
"511 559 CURVE SMOOTH",
"511 469 OFFCURVE",
"557 391 OFFCURVE",
"636 342 CURVE SMOOTH",
"785 250 LINE SMOOTH",
"828 223 OFFCURVE",
"841 196 OFFCURVE",
"841 172 CURVE SMOOTH",
"841 140 OFFCURVE",
"809 96 OFFCURVE",
"773 55 CURVE",
"883 -15 LINE",
"941 61 OFFCURVE",
"961 118 OFFCURVE",
"961 164 CURVE SMOOTH",
"961 223 OFFCURVE",
"937 294 OFFCURVE",
"851 347 CURVE SMOOTH",
"719 428 LINE SMOOTH",
"654 468 OFFCURVE",
"635 506 OFFCURVE",
"635 538 CURVE SMOOTH",
"635 570 OFFCURVE",
"661 594 OFFCURVE",
"693 594 CURVE SMOOTH",
"722 594 OFFCURVE",
"750 571 OFFCURVE",
"750 506 CURVE SMOOTH"
);
}
);
width = 1004;
}
);
leftKerningGroup = "uiuz-tangsa";
unicode = 16A8F;
script = tangsa;
category = Letter;
subCategory = Other;
},
{
glyphname = "ngfinal-tangsa";
lastChange = "2022-01-07 12:46:10 +0000";
layers = (
{
components = (
{
name = "ma-tangsa";
transform = "{1, 0, 0, 1, -5, 0}";
}
);
layerId = "9FF96064-8718-4A86-A5C8-73C592101F67";
paths = (
{
closed = 1;
nodes = (
"251 354 LINE",
"444 430 LINE",
"424 488 LINE",
"221 401 LINE"
);
}
);
width = 515;
},
{
components = (
{
name = "ma-tangsa";
transform = "{1, 0, 0, 1, -2, 0}";
}
);
layerId = "134B12F2-BF5D-48E3-8003-C7502B438C7E";
paths = (
{
closed = 1;
nodes = (
"312 325 LINE",
"519 399 LINE",
"482 510 LINE",
"258 424 LINE"
);
}
);
width = 568;
}
);
leftMetricsKey = "oc-tangsa";
unicode = 16A90;
script = tangsa;
category = Letter;
subCategory = Other;
},
{
glyphname = "uexlong-tangsa";
lastChange = "2022-01-07 11:21:35 +0000";
layers = (
{
layerId = "9FF96064-8718-4A86-A5C8-73C592101F67";
paths = (
{
closed = 1;
nodes = (
"249 480 OFFCURVE",
"188 519 OFFCURVE",
"188 576 CURVE SMOOTH",
"188 629 OFFCURVE",
"236 646 OFFCURVE",
"278 646 CURVE SMOOTH",
"324 646 OFFCURVE",
"361 621 OFFCURVE",
"361 568 CURVE SMOOTH",
"361 489 OFFCURVE",
"308 444 OFFCURVE",
"213 364 CURVE SMOOTH",
"119 286 OFFCURVE",
"54 218 OFFCURVE",
"54 138 CURVE SMOOTH",
"54 44 OFFCURVE",
"133 -10 OFFCURVE",
"207 -10 CURVE SMOOTH",
"279 -10 OFFCURVE",
"356 45 OFFCURVE",
"356 143 CURVE SMOOTH",
"356 270 OFFCURVE",
"205 374 OFFCURVE",
"104 423 CURVE",
"66 364 LINE",
"154 325 OFFCURVE",
"289 240 OFFCURVE",
"289 143 CURVE SMOOTH",
"289 94 OFFCURVE",
"246 68 OFFCURVE",
"200 68 CURVE SMOOTH",
"158 68 OFFCURVE",
"121 88 OFFCURVE",
"121 141 CURVE SMOOTH",
"121 193 OFFCURVE",
"169 245 OFFCURVE",
"264 329 CURVE SMOOTH",
"348 404 OFFCURVE",
"428 471 OFFCURVE",
"428 572 CURVE SMOOTH",
"428 674 OFFCURVE",
"346 724 OFFCURVE",
"274 724 CURVE SMOOTH",
"200 724 OFFCURVE",
"121 673 OFFCURVE",
"121 579 CURVE SMOOTH",
"121 485 OFFCURVE",
"193 429 OFFCURVE",
"382 343 CURVE SMOOTH",
"566 259 OFFCURVE",
"637 212 OFFCURVE",
"637 148 CURVE SMOOTH",
"637 94 OFFCURVE",
"589 68 OFFCURVE",
"543 68 CURVE SMOOTH",
"501 68 OFFCURVE",
"461 93 OFFCURVE",
"461 146 CURVE SMOOTH",
"461 206 OFFCURVE",
"519 258 OFFCURVE",
"596 324 CURVE SMOOTH",
"697 411 OFFCURVE",
"768 479 OFFCURVE",
"768 573 CURVE SMOOTH",
"768 671 OFFCURVE",
"686 724 OFFCURVE",
"614 724 CURVE SMOOTH",
"540 724 OFFCURVE",
"466 670 OFFCURVE",
"466 576 CURVE SMOOTH",
"466 475 OFFCURVE",
"555 415 OFFCURVE",
"733 320 CURVE",
"773 378 LINE",
"615 452 OFFCURVE",
"533 498 OFFCURVE",
"533 573 CURVE SMOOTH",
"533 626 OFFCURVE",
"577 646 OFFCURVE",
"619 646 CURVE SMOOTH",
"665 646 OFFCURVE",
"701 620 OFFCURVE",
"701 571 CURVE SMOOTH",
"701 499 OFFCURVE",
"642 441 OFFCURVE",
"545 360 CURVE SMOOTH",
"465 293 OFFCURVE",
"394 237 OFFCURVE",
"394 143 CURVE SMOOTH",
"394 49 OFFCURVE",
"471 -10 OFFCURVE",
"545 -10 CURVE SMOOTH",
"617 -10 OFFCURVE",
"704 38 OFFCURVE",
"704 143 CURVE SMOOTH",
"704 242 OFFCURVE",
"641 299 OFFCURVE",
"418 403 CURVE SMOOTH"
);
}
);
width = 830;
},
{
layerId = "134B12F2-BF5D-48E3-8003-C7502B438C7E";
paths = (
{
closed = 1;
nodes = (
"283 494 OFFCURVE",
"250 516 OFFCURVE",
"250 554 CURVE SMOOTH",
"250 584 OFFCURVE",
"277 600 OFFCURVE",
"306 600 CURVE SMOOTH",
"335 600 OFFCURVE",
"359 586 OFFCURVE",
"359 551 CURVE SMOOTH",
"359 496 OFFCURVE",
"303 447 OFFCURVE",
"222 379 CURVE SMOOTH",
"129 300 OFFCURVE",
"55 232 OFFCURVE",
"55 150 CURVE SMOOTH",
"55 48 OFFCURVE",
"144 -10 OFFCURVE",
"233 -10 CURVE SMOOTH",
"320 -10 OFFCURVE",
"405 48 OFFCURVE",
"405 147 CURVE SMOOTH",
"405 281 OFFCURVE",
"226 386 OFFCURVE",
"105 442 CURVE",
"47 347 LINE",
"140 304 OFFCURVE",
"282 230 OFFCURVE",
"282 156 CURVE SMOOTH",
"282 128 OFFCURVE",
"255 114 OFFCURVE",
"225 114 CURVE SMOOTH",
"199 114 OFFCURVE",
"173 127 OFFCURVE",
"173 157 CURVE SMOOTH",
"173 198 OFFCURVE",
"212 244 OFFCURVE",
"297 315 CURVE SMOOTH",
"409 408 OFFCURVE",
"482 467 OFFCURVE",
"482 560 CURVE SMOOTH",
"482 670 OFFCURVE",
"390 724 OFFCURVE",
"302 724 CURVE SMOOTH",
"218 724 OFFCURVE",
"132 670 OFFCURVE",
"132 567 CURVE SMOOTH",
"132 465 OFFCURVE",
"189 412 OFFCURVE",
"409 321 CURVE SMOOTH",
"600 242 OFFCURVE",
"676 208 OFFCURVE",
"676 160 CURVE SMOOTH",
"676 130 OFFCURVE",
"643 114 OFFCURVE",
"613 114 CURVE SMOOTH",
"585 114 OFFCURVE",
"559 128 OFFCURVE",
"559 162 CURVE SMOOTH",
"559 206 OFFCURVE",
"616 253 OFFCURVE",
"683 311 CURVE SMOOTH",
"785 400 OFFCURVE",
"862 461 OFFCURVE",
"862 558 CURVE SMOOTH",
"862 665 OFFCURVE",
"770 724 OFFCURVE",
"687 724 CURVE SMOOTH",
"600 724 OFFCURVE",
"512 666 OFFCURVE",
"512 564 CURVE SMOOTH",
"512 462 OFFCURVE",
"584 416 OFFCURVE",
"814 296 CURVE",
"875 390 LINE",
"716 467 OFFCURVE",
"635 505 OFFCURVE",
"635 552 CURVE SMOOTH",
"635 583 OFFCURVE",
"662 600 OFFCURVE",
"692 600 CURVE SMOOTH",
"721 600 OFFCURVE",
"744 584 OFFCURVE",
"744 554 CURVE SMOOTH",
"744 500 OFFCURVE",
"694 446 OFFCURVE",
"609 375 CURVE SMOOTH",
"524 305 OFFCURVE",
"436 251 OFFCURVE",
"436 153 CURVE SMOOTH",
"436 51 OFFCURVE",
"523 -10 OFFCURVE",
"617 -10 CURVE SMOOTH",
"703 -10 OFFCURVE",
"794 47 OFFCURVE",
"794 153 CURVE SMOOTH",
"794 254 OFFCURVE",
"754 305 OFFCURVE",
"460 423 CURVE SMOOTH"
);
}
);
width = 922;
}
);
unicode = 16A91;
script = tangsa;
category = Letter;
subCategory = Other;
},
{
glyphname = "uezshort-tangsa";
lastChange = "2022-01-07 11:21:35 +0000";
layers = (
{
components = (
{
name = _part.uez;
transform = "{1, 0, 0, 1, -18, 0}";
},
{
name = _part.sh1;
transform = "{1, 0, 0, 1, -58, 0}";
}
);
layerId = "9FF96064-8718-4A86-A5C8-73C592101F67";
paths = (
{
closed = 1;
nodes = (
"291 262 LINE",
"489 396 LINE",
"477 464 LINE",
"268 323 LINE"
);
}
);
width = 733;
},
{
components = (
{
name = _part.uez;
transform = "{1, 0, 0, 1, -4, 0}";
},
{
name = _part.sh1;
transform = "{1, 0, 0, 1, -84, 0}";
}
);
layerId = "134B12F2-BF5D-48E3-8003-C7502B438C7E";
paths = (
{
closed = 1;
nodes = (
"323 250 LINE",
"575 372 LINE",
"541 467 LINE",
"282 341 LINE"
);
}
);
width = 820;
}
);
leftKerningGroup = "ueq-tangsa";
rightKerningGroup = "uex-tangsa";
unicode = 16A92;
script = tangsa;
category = Letter;
subCategory = Other;
},
{
glyphname = "awxshort-tangsa";
lastChange = "2022-01-07 13:07:32 +0000";
layers = (
{
components = (
{
name = "oz-tangsa";
}
);
layerId = "9FF96064-8718-4A86-A5C8-73C592101F67";
paths = (
{
closed = 1;
nodes = (
"349 56 OFFCURVE",
"406 -10 OFFCURVE",
"490 -10 CURVE SMOOTH",
"595 -10 OFFCURVE",
"629 69 OFFCURVE",
"629 151 CURVE SMOOTH",
"629 229 OFFCURVE",
"586 276 OFFCURVE",
"528 276 CURVE SMOOTH",
"486 276 OFFCURVE",
"449 244 OFFCURVE",
"449 199 CURVE SMOOTH",
"449 148 OFFCURVE",
"481 113 OFFCURVE",
"529 113 CURVE SMOOTH",
"575 113 OFFCURVE",
"610 144 OFFCURVE",
"610 188 CURVE",
"588 188 LINE",
"588 77 OFFCURVE",
"548 54 OFFCURVE",
"496 54 CURVE SMOOTH",
"454 54 OFFCURVE",
"394 78 OFFCURVE",
"394 208 CURVE",
"349 179 LINE"
);
}
);
width = 643;
},
{
components = (
{
name = "oz-tangsa";
}
);
layerId = "134B12F2-BF5D-48E3-8003-C7502B438C7E";
paths = (
{
closed = 1;
nodes = (
"360 63 OFFCURVE",
"419 -9 OFFCURVE",
"518 -9 CURVE SMOOTH",
"625 -9 OFFCURVE",
"663 75 OFFCURVE",
"663 156 CURVE SMOOTH",
"663 242 OFFCURVE",
"617 290 OFFCURVE",
"557 290 CURVE SMOOTH",
"512 290 OFFCURVE",
"474 255 OFFCURVE",
"474 207 CURVE SMOOTH",
"474 152 OFFCURVE",
"507 117 OFFCURVE",
"558 117 CURVE SMOOTH",
"579 117 OFFCURVE",
"598 124 OFFCURVE",
"613 138 CURVE",
"588 152 LINE",
"578 100 OFFCURVE",
"548 86 OFFCURVE",
"520 86 CURVE SMOOTH",
"467 86 OFFCURVE",
"431 113 OFFCURVE",
"431 253 CURVE",
"360 200 LINE"
);
}
);
width = 681;
}
);
leftKerningGroup = "oz-tangsa";
leftMetricsKey = "oz-tangsa";
unicode = 16A93;
script = tangsa;
category = Letter;
subCategory = Other;
},
{
glyphname = "uec-tangsa";
lastChange = "2022-01-07 11:21:35 +0000";
layers = (
{
components = (
{
name = _part.uez;
transform = "{-1, 0, 0, -1, 777, 714}";
},
{
name = _part.loop1;
transform = "{1, 0, 0, 1, -21, 0}";
},
{
name = _part.loop1;
transform = "{1, 0, 0, -1, -21, 714}";
}
);
layerId = "9FF96064-8718-4A86-A5C8-73C592101F67";
paths = (
{
closed = 1;
nodes = (
"307 265 LINE",
"505 397 LINE",
"494 470 LINE",
"284 329 LINE"
);
}
);
width = 767;
},
{
components = (
{
name = _part.uez;
transform = "{-1, 0, 0, -1, 821, 714}";
},
{
name = _part.loop1;
transform = "{1, 0, 0, 1, -17, 0}";
},
{
name = _part.loop1;
transform = "{1, 0, 0, -1, -17, 714}";
}
);
layerId = "134B12F2-BF5D-48E3-8003-C7502B438C7E";
paths = (
{
closed = 1;
nodes = (
"305 245 LINE",
"577 383 LINE",
"562 496 LINE",
"278 349 LINE"
);
}
);
width = 828;
}
);
leftKerningGroup = "uec-tangsa";
rightMetricsKey = "oc-tangsa";
unicode = 16A94;
script = tangsa;
category = Letter;
subCategory = Other;
},
{
glyphname = "uez-tangsa";
lastChange = "2022-01-07 11:21:35 +0000";
layers = (
{
components = (
{
name = _part.loop1;
transform = "{1, 0, 0, 1, -21, 0}";
},
{
name = _part.loop1;
transform = "{1, 0, 0, -1, -21, 714}";
},
{
name = _part.sh1;
transform = "{1, 0, 0, 1, -35, 0}";
}
);
layerId = "9FF96064-8718-4A86-A5C8-73C592101F67";
paths = (
{
closed = 1;
nodes = (
"307 266 LINE",
"514 400 LINE",
"503 473 LINE",
"284 330 LINE"
);
}
);
width = 749;
},
{
components = (
{
name = _part.loop1;
transform = "{1, 0, 0, 1, -17, 0}";
},
{
name = _part.loop1;
transform = "{1, 0, 0, -1, -17, 714}";
},
{
name = _part.sh1;
transform = "{1, 0, 0, 1, -80, 0}";
}
);
layerId = "134B12F2-BF5D-48E3-8003-C7502B438C7E";
paths = (
{
closed = 1;
nodes = (
"305 243 LINE",
"577 377 LINE",
"562 490 LINE",
"278 347 LINE"
);
}
);
width = 821;
}
);
leftKerningGroup = "uec-tangsa";
leftMetricsKey = "uec-tangsa";
rightKerningGroup = "uex-tangsa";
unicode = 16A95;
script = tangsa;
category = Letter;
subCategory = Other;
},
{
glyphname = "ueq-tangsa";
lastChange = "2022-01-07 11:21:35 +0000";
layers = (
{
components = (
{
name = _part.uez;
transform = "{1, 0, 0, 1, -18, 0}";
},
{
name = _part.sh2;
transform = "{1, 0, 0, 1, -38, 0}";
}
);
layerId = "9FF96064-8718-4A86-A5C8-73C592101F67";
paths = (
{
closed = 1;
nodes = (
"603 260 LINE",
"727 336 LINE",
"690 401 LINE",
"569 316 LINE"
);
},
{
closed = 1;
nodes = (
"295 258 LINE",
"513 400 LINE",
"502 473 LINE",
"272 322 LINE"
);
}
);
width = 777;
},
{
components = (
{
name = _part.uez;
transform = "{1, 0, 0, 1, -4, 0}";
},
{
name = _part.sh2;
transform = "{1, 0, 0, 1, -71, 0}";
}
);
layerId = "134B12F2-BF5D-48E3-8003-C7502B438C7E";
paths = (
{
closed = 1;
nodes = (
"652 233 LINE",
"816 321 LINE",
"754 421 LINE",
"593 324 LINE"
);
},
{
closed = 1;
nodes = (
"322 238 LINE",
"575 377 LINE",
"559 490 LINE",
"295 347 LINE"
);
}
);
width = 853;
}
);
leftKerningGroup = "ueq-tangsa";
leftMetricsKey = "uezshort-tangsa";
unicode = 16A96;
script = tangsa;
category = Letter;
subCategory = Other;
},
{
glyphname = "uex-tangsa";
lastChange = "2022-01-07 11:21:35 +0000";
layers = (
{
components = (
{
name = _part.loop1;
transform = "{1, 0, 0, 1, -21, 0}";
},
{
name = _part.loop1;
transform = "{1, 0, 0, -1, -21, 714}";
},
{
name = _part.sh2;
transform = "{1, 0, 0, 1, -25, 0}";
}
);
layerId = "9FF96064-8718-4A86-A5C8-73C592101F67";
paths = (
{
closed = 1;
nodes = (
"310 264 LINE",
"526 400 LINE",
"515 473 LINE",
"287 328 LINE"
);
}
);
width = 763;
},
{
components = (
{
name = _part.loop1;
transform = "{1, 0, 0, 1, -17, 0}";
},
{
name = _part.loop1;
transform = "{1, 0, 0, -1, -17, 714}";
},
{
name = _part.sh2;
transform = "{1, 0, 0, 1, -70, 0}";
}
);
layerId = "134B12F2-BF5D-48E3-8003-C7502B438C7E";
paths = (
{
closed = 1;
nodes = (
"297 230 LINE",
"570 375 LINE",
"553 493 LINE",
"262 335 LINE"
);
}
);
width = 824;
}
);
leftKerningGroup = "uec-tangsa";
leftMetricsKey = "uec-tangsa";
rightKerningGroup = "uex-tangsa";
unicode = 16A97;
script = tangsa;
category = Letter;
subCategory = Other;
},
{
glyphname = "uiuz-tangsa";
lastChange = "2022-01-07 11:21:35 +0000";
layers = (
{
layerId = "9FF96064-8718-4A86-A5C8-73C592101F67";
paths = (
{
closed = 1;
nodes = (
"647 -10 OFFCURVE",
"691 43 OFFCURVE",
"691 178 CURVE SMOOTH",
"691 714 LINE",
"621 714 LINE",
"621 174 LINE SMOOTH",
"621 87 OFFCURVE",
"586 67 OFFCURVE",
"533 67 CURVE SMOOTH",
"480 67 OFFCURVE",
"441 95 OFFCURVE",
"441 172 CURVE SMOOTH",
"441 504 LINE SMOOTH",
"441 686 OFFCURVE",
"339 724 OFFCURVE",
"269 724 CURVE SMOOTH",
"163 724 OFFCURVE",
"55 644 OFFCURVE",
"55 344 CURVE SMOOTH",
"55 80 OFFCURVE",
"145 -10 OFFCURVE",
"255 -10 CURVE SMOOTH",
"334 -10 OFFCURVE",
"382 40 OFFCURVE",
"424 92 CURVE",
"406 161 LINE",
"374 114 OFFCURVE",
"330 68 OFFCURVE",
"253 68 CURVE SMOOTH",
"188 68 OFFCURVE",
"127 117 OFFCURVE",
"127 342 CURVE SMOOTH",
"127 579 OFFCURVE",
"203 646 OFFCURVE",
"276 646 CURVE SMOOTH",
"325 646 OFFCURVE",
"371 615 OFFCURVE",
"371 507 CURVE SMOOTH",
"371 111 LINE",
"386 111 LINE",
"390 51 OFFCURVE",
"440 -10 OFFCURVE",
"536 -10 CURVE SMOOTH"
);
}
);
width = 772;
},
{
layerId = "134B12F2-BF5D-48E3-8003-C7502B438C7E";
paths = (
{
closed = 1;
nodes = (
"691 -10 OFFCURVE",
"758 52 OFFCURVE",
"758 210 CURVE SMOOTH",
"758 714 LINE",
"634 714 LINE",
"634 206 LINE SMOOTH",
"634 143 OFFCURVE",
"604 126 OFFCURVE",
"564 126 CURVE SMOOTH",
"526 126 OFFCURVE",
"497 145 OFFCURVE",
"497 199 CURVE SMOOTH",
"497 471 LINE SMOOTH",
"497 680 OFFCURVE",
"375 724 OFFCURVE",
"291 724 CURVE SMOOTH",
"180 724 OFFCURVE",
"48 646 OFFCURVE",
"48 346 CURVE SMOOTH",
"48 78 OFFCURVE",
"161 -10 OFFCURVE",
"281 -10 CURVE SMOOTH",
"377 -10 OFFCURVE",
"433 49 OFFCURVE",
"483 114 CURVE",
"448 253 LINE",
"387 172 OFFCURVE",
"335 126 OFFCURVE",
"279 126 CURVE SMOOTH",
"230 126 OFFCURVE",
"175 163 OFFCURVE",
"175 344 CURVE SMOOTH",
"175 535 OFFCURVE",
"239 588 OFFCURVE",
"295 588 CURVE SMOOTH",
"334 588 OFFCURVE",
"373 563 OFFCURVE",
"373 474 CURVE SMOOTH",
"373 121 LINE",
"389 121 LINE",
"404 49 OFFCURVE",
"454 -10 OFFCURVE",
"571 -10 CURVE SMOOTH"
);
}
);
width = 822;
}
);
leftKerningGroup = "uiuz-tangsa";
leftMetricsKey = "uix-tangsa";
rightKerningGroup = "oz-tangsa";
rightMetricsKey = "oz-tangsa";
unicode = 16A98;
script = tangsa;
category = Letter;
subCategory = Other;
},
{
glyphname = "uiuc-tangsa";
lastChange = "2022-01-07 13:07:32 +0000";
layers = (
{
layerId = "9FF96064-8718-4A86-A5C8-73C592101F67";
paths = (
{
closed = 1;
nodes = (
"55 81 OFFCURVE",
"146 -10 OFFCURVE",
"256 -10 CURVE SMOOTH",
"335 -10 OFFCURVE",
"382 40 OFFCURVE",
"424 92 CURVE",
"406 161 LINE",
"374 114 OFFCURVE",
"331 68 OFFCURVE",
"254 68 CURVE SMOOTH",
"189 68 OFFCURVE",
"127 118 OFFCURVE",
"127 343 CURVE SMOOTH",
"127 580 OFFCURVE",
"203 646 OFFCURVE",
"276 646 CURVE SMOOTH",
"328 646 OFFCURVE",
"371 614 OFFCURVE",
"371 507 CURVE SMOOTH",
"371 106 LINE",
"386 106 LINE",
"390 50 OFFCURVE",
"437 -10 OFFCURVE",
"519 -10 CURVE SMOOTH",
"605 -10 OFFCURVE",
"687 64 OFFCURVE",
"755 151 CURVE SMOOTH",
"830 248 OFFCURVE",
"869 375 OFFCURVE",
"869 483 CURVE SMOOTH",
"869 620 OFFCURVE",
"806 724 OFFCURVE",
"686 724 CURVE SMOOTH",
"585 724 OFFCURVE",
"523 644 OFFCURVE",
"523 514 CURVE SMOOTH",
"523 398 OFFCURVE",
"571 268 OFFCURVE",
"676 144 CURVE SMOOTH",
"723 88 OFFCURVE",
"770 45 OFFCURVE",
"835 -14 CURVE",
"884 40 LINE",
"831 85 OFFCURVE",
"780 133 OFFCURVE",
"742 176 CURVE SMOOTH",
"661 267 OFFCURVE",
"595 370 OFFCURVE",
"595 504 CURVE SMOOTH",
"595 600 OFFCURVE",
"635 646 OFFCURVE",
"694 646 CURVE SMOOTH",
"765 646 OFFCURVE",
"797 590 OFFCURVE",
"797 491 CURVE SMOOTH",
"797 390 OFFCURVE",
"767 290 OFFCURVE",
"713 212 CURVE SMOOTH",
"658 132 OFFCURVE",
"595 67 OFFCURVE",
"523 67 CURVE SMOOTH",
"474 67 OFFCURVE",
"441 95 OFFCURVE",
"441 172 CURVE SMOOTH",
"441 501 LINE SMOOTH",
"441 683 OFFCURVE",
"340 724 OFFCURVE",
"270 724 CURVE SMOOTH",
"164 724 OFFCURVE",
"55 645 OFFCURVE",
"55 345 CURVE SMOOTH"
);
}
);
width = 932;
},
{
layerId = "134B12F2-BF5D-48E3-8003-C7502B438C7E";
paths = (
{
closed = 1;
nodes = (
"48 78 OFFCURVE",
"161 -10 OFFCURVE",
"281 -10 CURVE SMOOTH",
"377 -10 OFFCURVE",
"433 49 OFFCURVE",
"483 114 CURVE",
"448 253 LINE",
"387 173 OFFCURVE",
"335 126 OFFCURVE",
"279 126 CURVE SMOOTH",
"230 126 OFFCURVE",
"175 163 OFFCURVE",
"175 344 CURVE SMOOTH",
"175 535 OFFCURVE",
"239 588 OFFCURVE",
"295 588 CURVE SMOOTH",
"334 588 OFFCURVE",
"373 563 OFFCURVE",
"373 474 CURVE SMOOTH",
"373 121 LINE",
"403 121 LINE",
"411 49 OFFCURVE",
"475 -10 OFFCURVE",
"577 -10 CURVE SMOOTH",
"686 -10 OFFCURVE",
"777 50 OFFCURVE",
"844 133 CURVE SMOOTH",
"924 232 OFFCURVE",
"970 362 OFFCURVE",
"970 468 CURVE SMOOTH",
"970 610 OFFCURVE",
"888 724 OFFCURVE",
"754 724 CURVE SMOOTH",
"641 724 OFFCURVE",
"561 634 OFFCURVE",
"561 498 CURVE SMOOTH",
"561 348 OFFCURVE",
"640 238 OFFCURVE",
"738 129 CURVE SMOOTH",
"784 79 OFFCURVE",
"833 30 OFFCURVE",
"899 -18 CURVE",
"984 78 LINE",
"916 125 OFFCURVE",
"856 177 OFFCURVE",
"803 237 CURVE SMOOTH",
"737 311 OFFCURVE",
"685 390 OFFCURVE",
"685 489 CURVE SMOOTH",
"685 558 OFFCURVE",
"722 597 OFFCURVE",
"761 597 CURVE SMOOTH",
"809 597 OFFCURVE",
"845 548 OFFCURVE",
"845 475 CURVE SMOOTH",
"845 386 OFFCURVE",
"813 293 OFFCURVE",
"762 222 CURVE SMOOTH",
"719 163 OFFCURVE",
"655 126 OFFCURVE",
"581 126 CURVE SMOOTH",
"537 126 OFFCURVE",
"497 148 OFFCURVE",
"497 222 CURVE SMOOTH",
"497 471 LINE SMOOTH",
"497 680 OFFCURVE",
"375 724 OFFCURVE",
"291 724 CURVE SMOOTH",
"180 724 OFFCURVE",
"48 646 OFFCURVE",
"48 346 CURVE SMOOTH"
);
}
);
width = 1024;
}
);
leftKerningGroup = "uiuz-tangsa";
leftMetricsKey = "uix-tangsa";
rightKerningGroup = "uc-tangsa";
unicode = 16A99;
script = tangsa;
category = Letter;
subCategory = Other;
},
{
glyphname = "uiuq-tangsa";
lastChange = "2022-01-07 13:31:05 +0000";
layers = (
{
layerId = "9FF96064-8718-4A86-A5C8-73C592101F67";
paths = (
{
closed = 1;
nodes = (
"1006 511 LINE",
"977 501 OFFCURVE",
"953 497 OFFCURVE",
"930 497 CURVE SMOOTH",
"840 497 OFFCURVE",
"820 560 OFFCURVE",
"820 595 CURVE SMOOTH",
"820 632 OFFCURVE",
"843 654 OFFCURVE",
"867 654 CURVE SMOOTH",
"914 654 OFFCURVE",
"974 574 OFFCURVE",
"974 389 CURVE SMOOTH",
"974 198 OFFCURVE",
"894 68 OFFCURVE",
"743 68 CURVE SMOOTH",
"546 68 OFFCURVE",
"449 309 OFFCURVE",
"449 487 CURVE SMOOTH",
"449 597 OFFCURVE",
"483 648 OFFCURVE",
"549 648 CURVE SMOOTH",
"619 648 OFFCURVE",
"649 581 OFFCURVE",
"649 465 CURVE SMOOTH",
"649 293 OFFCURVE",
"573 68 OFFCURVE",
"361 68 CURVE SMOOTH",
"215 68 OFFCURVE",
"126 181 OFFCURVE",
"126 365 CURVE SMOOTH",
"126 539 OFFCURVE",
"215 650 OFFCURVE",
"337 650 CURVE SMOOTH",
"383 650 OFFCURVE",
"419 635 OFFCURVE",
"445 619 CURVE",
"489 665 LINE",
"442 704 OFFCURVE",
"389 724 OFFCURVE",
"328 724 CURVE SMOOTH",
"171 724 OFFCURVE",
"54 587 OFFCURVE",
"54 364 CURVE SMOOTH",
"54 156 OFFCURVE",
"162 -10 OFFCURVE",
"363 -10 CURVE SMOOTH",
"612 -10 OFFCURVE",
"721 264 OFFCURVE",
"721 465 CURVE SMOOTH",
"721 610 OFFCURVE",
"663 726 OFFCURVE",
"542 726 CURVE SMOOTH",
"435 726 OFFCURVE",
"377 645 OFFCURVE",
"377 493 CURVE SMOOTH",
"377 271 OFFCURVE",
"509 -10 OFFCURVE",
"745 -10 CURVE SMOOTH",
"939 -10 OFFCURVE",
"1042 141 OFFCURVE",
"1042 391 CURVE SMOOTH",
"1042 622 OFFCURVE",
"958 723 OFFCURVE",
"863 723 CURVE SMOOTH",
"794 723 OFFCURVE",
"747 674 OFFCURVE",
"747 604 CURVE SMOOTH",
"747 530 OFFCURVE",
"790 431 OFFCURVE",
"924 431 CURVE SMOOTH",
"947 431 OFFCURVE",
"972 434 OFFCURVE",
"1000 441 CURVE"
);
}
);
width = 1095;
},
{
layerId = "134B12F2-BF5D-48E3-8003-C7502B438C7E";
paths = (
{
closed = 1;
nodes = (
"1126 536 LINE",
"1070 516 OFFCURVE",
"1044 505 OFFCURVE",
"1013 505 CURVE SMOOTH",
"931 505 OFFCURVE",
"914 550 OFFCURVE",
"914 573 CURVE SMOOTH",
"914 598 OFFCURVE",
"929 616 OFFCURVE",
"950 616 CURVE SMOOTH",
"990 616 OFFCURVE",
"1036 546 OFFCURVE",
"1036 386 CURVE SMOOTH",
"1036 232 OFFCURVE",
"941 126 OFFCURVE",
"785 126 CURVE SMOOTH",
"585 126 OFFCURVE",
"495 321 OFFCURVE",
"495 466 CURVE SMOOTH",
"495 548 OFFCURVE",
"523 588 OFFCURVE",
"577 588 CURVE SMOOTH",
"635 588 OFFCURVE",
"659 537 OFFCURVE",
"659 446 CURVE SMOOTH",
"659 307 OFFCURVE",
"591 126 OFFCURVE",
"390 126 CURVE SMOOTH",
"258 126 OFFCURVE",
"172 213 OFFCURVE",
"172 361 CURVE SMOOTH",
"172 504 OFFCURVE",
"252 598 OFFCURVE",
"362 598 CURVE SMOOTH",
"396 598 OFFCURVE",
"437 586 OFFCURVE",
"475 563 CURVE",
"549 628 LINE",
"490 697 OFFCURVE",
"419 724 OFFCURVE",
"352 724 CURVE SMOOTH",
"177 724 OFFCURVE",
"45 581 OFFCURVE",
"45 360 CURVE SMOOTH",
"45 151 OFFCURVE",
"168 -10 OFFCURVE",
"392 -10 CURVE SMOOTH",
"649 -10 OFFCURVE",
"784 265 OFFCURVE",
"784 446 CURVE SMOOTH",
"784 601 OFFCURVE",
"714 724 OFFCURVE",
"570 724 CURVE SMOOTH",
"441 724 OFFCURVE",
"371 637 OFFCURVE",
"371 471 CURVE SMOOTH",
"371 271 OFFCURVE",
"524 -10 OFFCURVE",
"792 -10 CURVE SMOOTH",
"1016 -10 OFFCURVE",
"1153 141 OFFCURVE",
"1153 388 CURVE SMOOTH",
"1153 620 OFFCURVE",
"1056 724 OFFCURVE",
"946 724 CURVE SMOOTH",
"864 724 OFFCURVE",
"808 664 OFFCURVE",
"808 581 CURVE SMOOTH",
"808 506 OFFCURVE",
"857 403 OFFCURVE",
"1008 403 CURVE SMOOTH",
"1040 403 OFFCURVE",
"1069 408 OFFCURVE",
"1113 418 CURVE"
);
}
);
width = 1197;
}
);
leftKerningGroup = "oq-tangsa";
leftMetricsKey = "oq-tangsa";
unicode = 16A9A;
script = tangsa;
category = Letter;
subCategory = Other;
},
{
glyphname = "uiux-tangsa";
lastChange = "2022-01-07 13:07:32 +0000";
layers = (
{
layerId = "134B12F2-BF5D-48E3-8003-C7502B438C7E";
paths = (
{
closed = 1;
nodes = (
"48 78 OFFCURVE",
"161 -10 OFFCURVE",
"281 -10 CURVE SMOOTH",
"377 -10 OFFCURVE",
"433 49 OFFCURVE",
"483 114 CURVE",
"448 253 LINE",
"387 170 OFFCURVE",
"335 126 OFFCURVE",
"279 126 CURVE SMOOTH",
"230 126 OFFCURVE",
"175 163 OFFCURVE",
"175 344 CURVE SMOOTH",
"175 535 OFFCURVE",
"239 588 OFFCURVE",
"295 588 CURVE SMOOTH",
"334 588 OFFCURVE",
"373 563 OFFCURVE",
"373 474 CURVE SMOOTH",
"373 141 LINE",
"403 141 LINE",
"408 62 OFFCURVE",
"493 -10 OFFCURVE",
"624 -10 CURVE SMOOTH",
"786 -10 OFFCURVE",
"897 113 OFFCURVE",
"897 353 CURVE SMOOTH",
"897 582 OFFCURVE",
"781 724 OFFCURVE",
"670 724 CURVE SMOOTH",
"587 724 OFFCURVE",
"528 664 OFFCURVE",
"528 581 CURVE SMOOTH",
"528 504 OFFCURVE",
"579 401 OFFCURVE",
"738 401 CURVE SMOOTH",
"760 401 OFFCURVE",
"795 405 OFFCURVE",
"843 416 CURVE",
"856 533 LINE",
"798 513 OFFCURVE",
"765 504 OFFCURVE",
"745 504 CURVE SMOOTH",
"660 504 OFFCURVE",
"635 540 OFFCURVE",
"635 573 CURVE SMOOTH",
"635 598 OFFCURVE",
"648 614 OFFCURVE",
"672 614 CURVE SMOOTH",
"715 614 OFFCURVE",
"773 534 OFFCURVE",
"773 351 CURVE SMOOTH",
"773 200 OFFCURVE",
"714 126 OFFCURVE",
"625 126 CURVE SMOOTH",
"554 126 OFFCURVE",
"497 159 OFFCURVE",
"497 273 CURVE SMOOTH",
"497 471 LINE SMOOTH",
"497 680 OFFCURVE",
"375 724 OFFCURVE",
"291 724 CURVE SMOOTH",
"180 724 OFFCURVE",
"48 646 OFFCURVE",
"48 346 CURVE SMOOTH"
);
}
);
width = 941;
},
{
layerId = "9FF96064-8718-4A86-A5C8-73C592101F67";
paths = (
{
closed = 1;
nodes = (
"55 81 OFFCURVE",
"146 -10 OFFCURVE",
"256 -10 CURVE SMOOTH",
"335 -10 OFFCURVE",
"382 40 OFFCURVE",
"424 92 CURVE",
"406 161 LINE",
"374 114 OFFCURVE",
"331 68 OFFCURVE",
"254 68 CURVE SMOOTH",
"189 68 OFFCURVE",
"127 118 OFFCURVE",
"127 343 CURVE SMOOTH",
"127 580 OFFCURVE",
"203 646 OFFCURVE",
"276 646 CURVE SMOOTH",
"328 646 OFFCURVE",
"371 614 OFFCURVE",
"371 507 CURVE SMOOTH",
"371 106 LINE",
"390 106 LINE",
"402 43 OFFCURVE",
"457 -10 OFFCURVE",
"565 -10 CURVE SMOOTH",
"716 -10 OFFCURVE",
"801 99 OFFCURVE",
"801 323 CURVE SMOOTH",
"801 610 OFFCURVE",
"701 723 OFFCURVE",
"603 723 CURVE SMOOTH",
"537 723 OFFCURVE",
"491 674 OFFCURVE",
"491 604 CURVE SMOOTH",
"491 530 OFFCURVE",
"534 431 OFFCURVE",
"668 431 CURVE SMOOTH",
"691 431 OFFCURVE",
"716 434 OFFCURVE",
"744 441 CURVE",
"750 511 LINE",
"721 501 OFFCURVE",
"697 497 OFFCURVE",
"674 497 CURVE SMOOTH",
"584 497 OFFCURVE",
"564 560 OFFCURVE",
"564 595 CURVE SMOOTH",
"564 632 OFFCURVE",
"582 654 OFFCURVE",
"606 654 CURVE SMOOTH",
"656 654 OFFCURVE",
"733 556 OFFCURVE",
"733 321 CURVE SMOOTH",
"733 156 OFFCURVE",
"670 68 OFFCURVE",
"562 68 CURVE SMOOTH",
"491 68 OFFCURVE",
"441 106 OFFCURVE",
"441 189 CURVE SMOOTH",
"441 501 LINE SMOOTH",
"441 683 OFFCURVE",
"340 724 OFFCURVE",
"270 724 CURVE SMOOTH",
"164 724 OFFCURVE",
"55 645 OFFCURVE",
"55 345 CURVE SMOOTH"
);
}
);
width = 854;
}
);
leftKerningGroup = "uiuz-tangsa";
leftMetricsKey = "uix-tangsa";
rightMetricsKey = "uiuq-tangsa";
unicode = 16A9B;
script = tangsa;
category = Letter;
subCategory = Other;
},
{
glyphname = "mz-tangsa";
lastChange = "2022-01-07 13:35:04 +0000";
layers = (
{
layerId = "9FF96064-8718-4A86-A5C8-73C592101F67";
paths = (
{
closed = 1;
nodes = (
"445 68 OFFCURVE",
"354 226 OFFCURVE",
"354 354 CURVE SMOOTH",
"354 423 OFFCURVE",
"383 470 OFFCURVE",
"437 470 CURVE SMOOTH",
"479 470 OFFCURVE",
"513 445 OFFCURVE",
"513 359 CURVE SMOOTH",
"513 189 OFFCURVE",
"418 68 OFFCURVE",
"291 68 CURVE SMOOTH",
"190 68 OFFCURVE",
"127 150 OFFCURVE",
"127 293 CURVE SMOOTH",
"127 430 OFFCURVE",
"174 551 OFFCURVE",
"241 688 CURVE",
"174 724 LINE",
"107 570 OFFCURVE",
"55 451 OFFCURVE",
"55 297 CURVE SMOOTH",
"55 104 OFFCURVE",
"155 -10 OFFCURVE",
"290 -10 CURVE SMOOTH",
"451 -10 OFFCURVE",
"585 156 OFFCURVE",
"585 357 CURVE SMOOTH",
"585 468 OFFCURVE",
"541 546 OFFCURVE",
"433 546 CURVE SMOOTH",
"338 546 OFFCURVE",
"282 485 OFFCURVE",
"282 357 CURVE SMOOTH",
"282 194 OFFCURVE",
"405 -10 OFFCURVE",
"592 -10 CURVE SMOOTH",
"724 -10 OFFCURVE",
"822 104 OFFCURVE",
"822 297 CURVE SMOOTH",
"822 451 OFFCURVE",
"770 570 OFFCURVE",
"703 724 CURVE",
"636 688 LINE",
"703 551 OFFCURVE",
"750 430 OFFCURVE",
"750 293 CURVE SMOOTH",
"750 150 OFFCURVE",
"689 68 OFFCURVE",
"591 68 CURVE SMOOTH"
);
}
);
width = 878;
},
{
layerId = "134B12F2-BF5D-48E3-8003-C7502B438C7E";
paths = (
{
closed = 1;
nodes = (
"461 126 OFFCURVE",
"401 233 OFFCURVE",
"401 340 CURVE SMOOTH",
"401 390 OFFCURVE",
"425 427 OFFCURVE",
"467 427 CURVE SMOOTH",
"498 427 OFFCURVE",
"527 404 OFFCURVE",
"527 344 CURVE SMOOTH",
"527 214 OFFCURVE",
"456 126 OFFCURVE",
"318 126 CURVE SMOOTH",
"230 126 OFFCURVE",
"175 189 OFFCURVE",
"175 300 CURVE SMOOTH",
"175 407 OFFCURVE",
"220 517 OFFCURVE",
"301 663 CURVE",
"185 729 LINE",
"108 568 OFFCURVE",
"48 447 OFFCURVE",
"48 302 CURVE SMOOTH",
"48 106 OFFCURVE",
"163 -10 OFFCURVE",
"317 -10 CURVE SMOOTH",
"489 -10 OFFCURVE",
"648 153 OFFCURVE",
"648 342 CURVE SMOOTH",
"648 468 OFFCURVE",
"588 561 OFFCURVE",
"462 561 CURVE SMOOTH",
"352 561 OFFCURVE",
"280 488 OFFCURVE",
"280 343 CURVE SMOOTH",
"280 193 OFFCURVE",
"423 -10 OFFCURVE",
"624 -10 CURVE SMOOTH",
"775 -10 OFFCURVE",
"887 107 OFFCURVE",
"887 302 CURVE SMOOTH",
"887 448 OFFCURVE",
"827 568 OFFCURVE",
"750 729 CURVE",
"634 663 LINE",
"708 528 OFFCURVE",
"760 415 OFFCURVE",
"760 300 CURVE SMOOTH",
"760 189 OFFCURVE",
"707 126 OFFCURVE",
"623 126 CURVE SMOOTH"
);
}
);
width = 935;
}
);
unicode = 16A9C;
script = tangsa;
category = Letter;
subCategory = Other;
},
{
glyphname = "mc-tangsa";
lastChange = "2022-01-07 13:07:32 +0000";
layers = (
{
layerId = "9FF96064-8718-4A86-A5C8-73C592101F67";
paths = (
{
closed = 1;
nodes = (
"85 32 OFFCURVE",
"190 -10 OFFCURVE",
"296 -10 CURVE SMOOTH",
"527 -10 OFFCURVE",
"654 267 OFFCURVE",
"654 468 CURVE SMOOTH",
"654 613 OFFCURVE",
"592 726 OFFCURVE",
"471 726 CURVE SMOOTH",
"364 726 OFFCURVE",
"306 627 OFFCURVE",
"306 475 CURVE SMOOTH",
"306 253 OFFCURVE",
"423 -10 OFFCURVE",
"685 -10 CURVE SMOOTH",
"926 -10 OFFCURVE",
"1065 217 OFFCURVE",
"1065 439 CURVE SMOOTH",
"1065 596 OFFCURVE",
"998 724 OFFCURVE",
"878 724 CURVE SMOOTH",
"777 724 OFFCURVE",
"710 628 OFFCURVE",
"710 498 CURVE SMOOTH",
"710 272 OFFCURVE",
"855 116 OFFCURVE",
"1032 -14 CURVE",
"1081 40 LINE",
"936 133 OFFCURVE",
"782 286 OFFCURVE",
"782 488 CURVE SMOOTH",
"782 584 OFFCURVE",
"827 646 OFFCURVE",
"886 646 CURVE SMOOTH",
"957 646 OFFCURVE",
"993 566 OFFCURVE",
"993 447 CURVE SMOOTH",
"993 257 OFFCURVE",
"895 68 OFFCURVE",
"683 68 CURVE SMOOTH",
"460 68 OFFCURVE",
"378 291 OFFCURVE",
"378 469 CURVE SMOOTH",
"378 579 OFFCURVE",
"412 648 OFFCURVE",
"478 648 CURVE SMOOTH",
"548 648 OFFCURVE",
"582 584 OFFCURVE",
"582 468 CURVE SMOOTH",
"582 296 OFFCURVE",
"490 68 OFFCURVE",
"296 68 CURVE SMOOTH",
"225 68 OFFCURVE",
"155 95 OFFCURVE",
"155 245 CURVE SMOOTH",
"155 714 LINE",
"85 714 LINE",
"85 232 LINE SMOOTH"
);
}
);
width = 1129;
},
{
layerId = "134B12F2-BF5D-48E3-8003-C7502B438C7E";
paths = (
{
closed = 1;
nodes = (
"67 32 OFFCURVE",
"189 -10 OFFCURVE",
"316 -10 CURVE SMOOTH",
"573 -10 OFFCURVE",
"715 261 OFFCURVE",
"715 458 CURVE SMOOTH",
"715 607 OFFCURVE",
"641 724 OFFCURVE",
"499 724 CURVE SMOOTH",
"370 724 OFFCURVE",
"300 621 OFFCURVE",
"300 463 CURVE SMOOTH",
"300 261 OFFCURVE",
"448 -10 OFFCURVE",
"746 -10 CURVE SMOOTH",
"1020 -10 OFFCURVE",
"1193 226 OFFCURVE",
"1193 431 CURVE SMOOTH",
"1193 594 OFFCURVE",
"1114 724 OFFCURVE",
"972 724 CURVE SMOOTH",
"852 724 OFFCURVE",
"772 622 OFFCURVE",
"772 485 CURVE SMOOTH",
"772 267 OFFCURVE",
"926 116 OFFCURVE",
"1132 -24 CURVE",
"1225 76 LINE",
"1060 173 OFFCURVE",
"899 293 OFFCURVE",
"899 476 CURVE SMOOTH",
"899 543 OFFCURVE",
"934 588 OFFCURVE",
"981 588 CURVE SMOOTH",
"1038 588 OFFCURVE",
"1066 527 OFFCURVE",
"1066 439 CURVE SMOOTH",
"1066 282 OFFCURVE",
"965 126 OFFCURVE",
"744 126 CURVE SMOOTH",
"512 126 OFFCURVE",
"427 310 OFFCURVE",
"427 459 CURVE SMOOTH",
"427 537 OFFCURVE",
"454 588 OFFCURVE",
"506 588 CURVE SMOOTH",
"563 588 OFFCURVE",
"588 540 OFFCURVE",
"588 458 CURVE SMOOTH",
"588 315 OFFCURVE",
"501 126 OFFCURVE",
"316 126 CURVE SMOOTH",
"258 126 OFFCURVE",
"198 146 OFFCURVE",
"198 255 CURVE SMOOTH",
"198 714 LINE",
"67 714 LINE",
"67 244 LINE SMOOTH"
);
}
);
width = 1265;
}
);
leftKerningGroup = "az-tangsa";
leftMetricsKey = "az-tangsa";
rightKerningGroup = "uc-tangsa";
rightMetricsKey = "uiuc-tangsa";
unicode = 16A9D;
script = tangsa;
category = Letter;
subCategory = Other;
},
{
glyphname = "mq-tangsa";
lastChange = "2022-01-07 13:35:11 +0000";
layers = (
{
layerId = "9FF96064-8718-4A86-A5C8-73C592101F67";
paths = (
{
closed = 1;
nodes = (
"55 484 OFFCURVE",
"183 424 OFFCURVE",
"321 424 CURVE SMOOTH",
"458 424 OFFCURVE",
"596 478 OFFCURVE",
"596 598 CURVE SMOOTH",
"596 677 OFFCURVE",
"541 724 OFFCURVE",
"473 724 CURVE SMOOTH",
"394 724 OFFCURVE",
"344 671 OFFCURVE",
"344 596 CURVE SMOOTH",
"344 554 OFFCURVE",
"357 513 OFFCURVE",
"383 469 CURVE",
"450 482 LINE",
"421 534 OFFCURVE",
"414 559 OFFCURVE",
"414 585 CURVE SMOOTH",
"414 626 OFFCURVE",
"444 655 OFFCURVE",
"477 655 CURVE SMOOTH",
"504 655 OFFCURVE",
"527 637 OFFCURVE",
"527 602 CURVE SMOOTH",
"527 524 OFFCURVE",
"431 491 OFFCURVE",
"325 491 CURVE SMOOTH",
"220 491 OFFCURVE",
"122 522 OFFCURVE",
"122 596 CURVE SMOOTH",
"122 633 OFFCURVE",
"148 655 OFFCURVE",
"177 655 CURVE SMOOTH",
"198 655 OFFCURVE",
"217 643 OFFCURVE",
"217 608 CURVE SMOOTH",
"217 538 OFFCURVE",
"141 459 OFFCURVE",
"70 416 CURVE",
"117 358 LINE",
"197 430 OFFCURVE",
"284 510 OFFCURVE",
"284 608 CURVE SMOOTH",
"284 682 OFFCURVE",
"233 724 OFFCURVE",
"171 724 CURVE SMOOTH",
"98 724 OFFCURVE",
"55 667 OFFCURVE",
"55 600 CURVE SMOOTH"
);
},
{
closed = 1;
nodes = (
"138 67 OFFCURVE",
"228 -10 OFFCURVE",
"338 -10 CURVE SMOOTH",
"441 -10 OFFCURVE",
"529 46 OFFCURVE",
"529 179 CURVE SMOOTH",
"529 282 OFFCURVE",
"482 401 OFFCURVE",
"454 466 CURVE",
"388 452 LINE",
"420 385 OFFCURVE",
"459 289 OFFCURVE",
"459 200 CURVE SMOOTH",
"459 102 OFFCURVE",
"400 68 OFFCURVE",
"337 68 CURVE SMOOTH",
"268 68 OFFCURVE",
"205 109 OFFCURVE",
"205 186 CURVE SMOOTH",
"205 268 OFFCURVE",
"287 311 OFFCURVE",
"373 311 CURVE SMOOTH",
"464 311 OFFCURVE",
"539 281 OFFCURVE",
"602 245 CURVE",
"635 317 LINE",
"567 351 OFFCURVE",
"470 383 OFFCURVE",
"372 383 CURVE SMOOTH",
"251 383 OFFCURVE",
"138 315 OFFCURVE",
"138 182 CURVE SMOOTH"
);
}
);
width = 672;
},
{
layerId = "134B12F2-BF5D-48E3-8003-C7502B438C7E";
paths = (
{
closed = 1;
nodes = (
"32 471 OFFCURVE",
"168 412 OFFCURVE",
"321 412 CURVE SMOOTH",
"484 412 OFFCURVE",
"638 463 OFFCURVE",
"638 582 CURVE SMOOTH",
"638 663 OFFCURVE",
"569 724 OFFCURVE",
"480 724 CURVE SMOOTH",
"387 724 OFFCURVE",
"331 669 OFFCURVE",
"331 596 CURVE SMOOTH",
"331 543 OFFCURVE",
"351 490 OFFCURVE",
"377 436 CURVE",
"488 477 LINE",
"452 550 OFFCURVE",
"444 575 OFFCURVE",
"444 589 CURVE SMOOTH",
"444 614 OFFCURVE",
"461 627 OFFCURVE",
"484 627 CURVE SMOOTH",
"509 627 OFFCURVE",
"527 606 OFFCURVE",
"527 583 CURVE SMOOTH",
"527 521 OFFCURVE",
"408 508 OFFCURVE",
"325 508 CURVE SMOOTH",
"208 508 OFFCURVE",
"131 533 OFFCURVE",
"131 585 CURVE SMOOTH",
"131 610 OFFCURVE",
"150 624 OFFCURVE",
"170 624 CURVE SMOOTH",
"189 624 OFFCURVE",
"204 609 OFFCURVE",
"204 587 CURVE SMOOTH",
"204 530 OFFCURVE",
"147 478 OFFCURVE",
"44 418 CURVE",
"117 329 LINE",
"222 423 OFFCURVE",
"303 498 OFFCURVE",
"303 592 CURVE SMOOTH",
"303 675 OFFCURVE",
"243 723 OFFCURVE",
"170 723 CURVE SMOOTH",
"85 723 OFFCURVE",
"32 660 OFFCURVE",
"32 586 CURVE SMOOTH"
);
},
{
closed = 1;
nodes = (
"127 71 OFFCURVE",
"232 -10 OFFCURVE",
"361 -10 CURVE SMOOTH",
"480 -10 OFFCURVE",
"584 50 OFFCURVE",
"584 196 CURVE SMOOTH",
"584 277 OFFCURVE",
"532 396 OFFCURVE",
"502 456 CURVE",
"376 429 LINE",
"437 328 OFFCURVE",
"460 253 OFFCURVE",
"460 215 CURVE SMOOTH",
"460 149 OFFCURVE",
"411 126 OFFCURVE",
"359 126 CURVE SMOOTH",
"303 126 OFFCURVE",
"252 151 OFFCURVE",
"252 201 CURVE SMOOTH",
"252 250 OFFCURVE",
"323 279 OFFCURVE",
"396 279 CURVE SMOOTH",
"481 279 OFFCURVE",
"566 254 OFFCURVE",
"646 223 CURVE",
"693 333 LINE",
"610 361 OFFCURVE",
"496 384 OFFCURVE",
"395 384 CURVE SMOOTH",
"256 384 OFFCURVE",
"127 320 OFFCURVE",
"127 197 CURVE SMOOTH"
);
}
);
width = 714;
}
);
unicode = 16A9E;
script = tangsa;
category = Letter;
subCategory = Other;
},
{
glyphname = "mx-tangsa";
lastChange = "2022-01-07 12:33:59 +0000";
layers = (
{
components = (
{
alignment = -1;
name = _part.loop2;
transform = "{-1, 0, 0, 1, 463, 0}";
}
);
layerId = "9FF96064-8718-4A86-A5C8-73C592101F67";
paths = (
{
closed = 1;
nodes = (
"146 497 LINE",
"157 563 LINE",
"53 600 LINE",
"31 534 LINE"
);
},
{
closed = 1;
nodes = (
"193 0 LINE",
"193 359 LINE",
"123 359 LINE",
"123 0 LINE"
);
},
{
closed = 1;
nodes = (
"193 162 LINE",
"201 239 OFFCURVE",
"260 308 OFFCURVE",
"343 308 CURVE SMOOTH",
"413 308 OFFCURVE",
"452 258 OFFCURVE",
"452 181 CURVE SMOOTH",
"452 120 OFFCURVE",
"426 47 OFFCURVE",
"405 9 CURVE",
"484 -11 LINE",
"507 38 OFFCURVE",
"525 107 OFFCURVE",
"525 170 CURVE SMOOTH",
"525 290 OFFCURVE",
"464 384 OFFCURVE",
"342 384 CURVE SMOOTH",
"242 384 OFFCURVE",
"165 315 OFFCURVE",
"145 209 CURVE"
);
}
);
width = 578;
},
{
components = (
{
alignment = -1;
name = _part.loop2;
transform = "{-1, 0, 0, 1, 497, 0}";
}
);
layerId = "134B12F2-BF5D-48E3-8003-C7502B438C7E";
paths = (
{
closed = 1;
nodes = (
"175 465 LINE",
"192 567 LINE",
"43 620 LINE",
"9 519 LINE"
);
},
{
closed = 1;
nodes = (
"236 0 LINE",
"236 379 LINE",
"112 379 LINE",
"112 0 LINE"
);
},
{
closed = 1;
nodes = (
"235 120 LINE",
"244 199 OFFCURVE",
"298 272 OFFCURVE",
"368 272 CURVE SMOOTH",
"419 272 OFFCURVE",
"447 240 OFFCURVE",
"447 191 CURVE SMOOTH",
"447 130 OFFCURVE",
"417 60 OFFCURVE",
"392 15 CURVE",
"521 -14 LINE",
"550 43 OFFCURVE",
"574 112 OFFCURVE",
"574 180 CURVE SMOOTH",
"574 305 OFFCURVE",
"496 402 OFFCURVE",
"372 402 CURVE SMOOTH",
"265 402 OFFCURVE",
"191 327 OFFCURVE",
"171 211 CURVE"
);
}
);
width = 619;
}
);
rightKerningGroup = "mx-tangsa";
rightMetricsKey = "aq-tangsa";
unicode = 16A9F;
script = tangsa;
category = Letter;
subCategory = Other;
},
{
glyphname = "ka-tangsa";
lastChange = "2022-01-07 12:50:41 +0000";
layers = (
{
components = (
{
name = "awx-tangsa";
transform = "{-1, 0, 0, -1, 709, 714}";
}
);
layerId = "9FF96064-8718-4A86-A5C8-73C592101F67";
paths = (
{
closed = 1;
nodes = (
"578 208 LINE",
"700 176 LINE",
"718 240 LINE",
"591 272 LINE"
);
}
);
width = 740;
},
{
components = (
{
name = "awx-tangsa";
transform = "{-1, 0, 0, -1, 731, 714}";
}
);
layerId = "134B12F2-BF5D-48E3-8003-C7502B438C7E";
paths = (
{
closed = 1;
nodes = (
"586 198 LINE",
"739 158 LINE",
"766 257 LINE",
"607 297 LINE"
);
}
);
width = 776;
}
);
leftKerningGroup = "uiuz-tangsa";
unicode = 16AA0;
script = tangsa;
category = Letter;
subCategory = Other;
},
{
glyphname = "kha-tangsa";
lastChange = "2022-01-07 13:07:32 +0000";
layers = (
{
layerId = "9FF96064-8718-4A86-A5C8-73C592101F67";
paths = (
{
closed = 1;
nodes = (
"113 221 LINE SMOOTH",
"95 165 OFFCURVE",
"85 133 OFFCURVE",
"85 101 CURVE SMOOTH",
"85 34 OFFCURVE",
"126 -10 OFFCURVE",
"218 -10 CURVE SMOOTH",
"438 -10 OFFCURVE",
"602 214 OFFCURVE",
"602 432 CURVE SMOOTH",
"602 570 OFFCURVE",
"546 636 OFFCURVE",
"460 636 CURVE SMOOTH",
"394 636 OFFCURVE",
"345 583 OFFCURVE",
"345 503 CURVE SMOOTH",
"345 407 OFFCURVE",
"439 308 OFFCURVE",
"669 311 CURVE",
"669 380 LINE",
"474 372 OFFCURVE",
"418 448 OFFCURVE",
"418 506 CURVE SMOOTH",
"418 542 OFFCURVE",
"438 567 OFFCURVE",
"466 567 CURVE SMOOTH",
"504 567 OFFCURVE",
"534 531 OFFCURVE",
"534 430 CURVE SMOOTH",
"534 267 OFFCURVE",
"398 68 OFFCURVE",
"218 68 CURVE SMOOTH",
"181 68 OFFCURVE",
"160 81 OFFCURVE",
"160 110 CURVE SMOOTH",
"160 126 OFFCURVE",
"167 152 OFFCURVE",
"183 202 CURVE",
"249 412 LINE SMOOTH",
"295 558 OFFCURVE",
"305 607 OFFCURVE",
"305 637 CURVE SMOOTH",
"305 699 OFFCURVE",
"256 724 OFFCURVE",
"210 724 CURVE SMOOTH",
"178 724 OFFCURVE",
"145 715 OFFCURVE",
"108 699 CURVE",
"126 635 LINE",
"144 646 OFFCURVE",
"175 656 OFFCURVE",
"196 656 CURVE SMOOTH",
"219 656 OFFCURVE",
"232 644 OFFCURVE",
"232 624 CURVE SMOOTH",
"232 593 OFFCURVE",
"205 514 OFFCURVE",
"181 438 CURVE SMOOTH"
);
}
);
width = 704;
},
{
layerId = "134B12F2-BF5D-48E3-8003-C7502B438C7E";
paths = (
{
closed = 1;
nodes = (
"97 252 LINE SMOOTH",
"74 194 OFFCURVE",
"70 167 OFFCURVE",
"70 147 CURVE SMOOTH",
"70 72 OFFCURVE",
"139 -10 OFFCURVE",
"251 -10 CURVE SMOOTH",
"512 -10 OFFCURVE",
"687 190 OFFCURVE",
"687 389 CURVE SMOOTH",
"687 558 OFFCURVE",
"605 636 OFFCURVE",
"505 636 CURVE SMOOTH",
"431 636 OFFCURVE",
"366 586 OFFCURVE",
"366 495 CURVE SMOOTH",
"366 394 OFFCURVE",
"436 286 OFFCURVE",
"750 284 CURVE",
"750 400 LINE",
"544 400 OFFCURVE",
"469 431 OFFCURVE",
"469 493 CURVE SMOOTH",
"469 520 OFFCURVE",
"483 536 OFFCURVE",
"505 536 CURVE SMOOTH",
"539 536 OFFCURVE",
"569 494 OFFCURVE",
"569 391 CURVE SMOOTH",
"569 261 OFFCURVE",
"405 126 OFFCURVE",
"264 126 CURVE SMOOTH",
"218 126 OFFCURVE",
"203 142 OFFCURVE",
"203 163 CURVE SMOOTH",
"203 176 OFFCURVE",
"206 189 OFFCURVE",
"218 220 CURVE",
"292 406 LINE SMOOTH",
"326 491 OFFCURVE",
"344 550 OFFCURVE",
"344 590 CURVE SMOOTH",
"344 674 OFFCURVE",
"289 724 OFFCURVE",
"199 724 CURVE SMOOTH",
"158 724 OFFCURVE",
"114 714 OFFCURVE",
"67 695 CURVE",
"93 587 LINE",
"115 597 OFFCURVE",
"145 606 OFFCURVE",
"171 606 CURVE SMOOTH",
"203 606 OFFCURVE",
"214 589 OFFCURVE",
"214 568 CURVE SMOOTH",
"214 541 OFFCURVE",
"194 493 OFFCURVE",
"173 440 CURVE SMOOTH"
);
}
);
width = 780;
}
);
leftMetricsKey = "ex-tangsa";
rightMetricsKey = "eq-tangsa";
unicode = 16AA1;
script = tangsa;
category = Letter;
subCategory = Other;
},
{
glyphname = "ga-tangsa";
lastChange = "2022-01-07 11:47:38 +0000";
layers = (
{
components = (
{
name = _part.loop4;
transform = "{1, 0, 0, 1, -15, 0}";
}
);
layerId = "134B12F2-BF5D-48E3-8003-C7502B438C7E";
paths = (
{
closed = 1;
nodes = (
"607 212 LINE",
"624 339 LINE",
"437 377 LINE",
"437 258 LINE"
);
},
{
closed = 1;
nodes = (
"69 502 OFFCURVE",
"115 418 OFFCURVE",
"423 404 CURVE",
"403 430 LINE",
"403 373 LINE",
"527 373 LINE",
"527 519 LINE",
"468 519 LINE SMOOTH",
"266 519 OFFCURVE",
"197 536 OFFCURVE",
"197 564 CURVE SMOOTH",
"197 587 OFFCURVE",
"258 599 OFFCURVE",
"542 599 CURVE",
"524 724 LINE",
"129 724 OFFCURVE",
"69 662 OFFCURVE",
"69 573 CURVE SMOOTH"
);
}
);
width = 649;
},
{
components = (
{
name = _part.loop4;
transform = "{1, 0, 0, 1, -4, 0}";
}
);
layerId = "9FF96064-8718-4A86-A5C8-73C592101F67";
paths = (
{
closed = 1;
nodes = (
"430 296 LINE",
"557 265 LINE",
"567 340 LINE",
"429 370 LINE"
);
},
{
closed = 1;
nodes = (
"80 506 OFFCURVE",
"136 415 OFFCURVE",
"440 431 CURVE",
"391 469 LINE",
"391 395 LINE",
"461 395 LINE",
"461 503 LINE",
"402 503 LINE SMOOTH",
"250 503 OFFCURVE",
"148 528 OFFCURVE",
"148 574 CURVE SMOOTH",
"148 618 OFFCURVE",
"241 652 OFFCURVE",
"469 652 CURVE",
"458 724 LINE",
"154 724 OFFCURVE",
"80 655 OFFCURVE",
"80 582 CURVE SMOOTH"
);
}
);
width = 600;
}
);
unicode = 16AA2;
script = tangsa;
category = Letter;
subCategory = Other;
},
{
glyphname = "nga-tangsa";
lastChange = "2022-01-07 13:35:36 +0000";
layers = (
{
layerId = "9FF96064-8718-4A86-A5C8-73C592101F67";
paths = (
{
closed = 1;
nodes = (
"55 91 OFFCURVE",
"147 -10 OFFCURVE",
"254 -10 CURVE SMOOTH",
"317 -10 OFFCURVE",
"398 20 OFFCURVE",
"420 178 CURVE",
"394 178 LINE",
"401 68 OFFCURVE",
"454 -10 OFFCURVE",
"563 -10 CURVE SMOOTH",
"668 -10 OFFCURVE",
"768 59 OFFCURVE",
"768 309 CURVE SMOOTH",
"768 607 OFFCURVE",
"666 724 OFFCURVE",
"568 724 CURVE SMOOTH",
"502 724 OFFCURVE",
"455 675 OFFCURVE",
"455 604 CURVE SMOOTH",
"455 530 OFFCURVE",
"498 431 OFFCURVE",
"632 431 CURVE SMOOTH",
"689 431 OFFCURVE",
"751 444 OFFCURVE",
"821 475 CURVE",
"799 536 LINE",
"738 508 OFFCURVE",
"687 497 OFFCURVE",
"638 497 CURVE SMOOTH",
"548 497 OFFCURVE",
"528 560 OFFCURVE",
"528 595 CURVE SMOOTH",
"528 633 OFFCURVE",
"548 655 OFFCURVE",
"570 655 CURVE SMOOTH",
"622 655 OFFCURVE",
"698 559 OFFCURVE",
"698 307 CURVE SMOOTH",
"698 116 OFFCURVE",
"623 68 OFFCURVE",
"564 68 CURVE SMOOTH",
"504 68 OFFCURVE",
"447 126 OFFCURVE",
"447 254 CURVE SMOOTH",
"447 388 LINE",
"377 388 LINE",
"376 278 LINE SMOOTH",
"375 136 OFFCURVE",
"328 68 OFFCURVE",
"255 68 CURVE SMOOTH",
"185 68 OFFCURVE",
"127 137 OFFCURVE",
"127 280 CURVE SMOOTH",
"127 416 OFFCURVE",
"181 553 OFFCURVE",
"269 684 CURVE",
"203 720 LINE",
"111 572 OFFCURVE",
"55 437 OFFCURVE",
"55 284 CURVE SMOOTH"
);
}
);
width = 850;
},
{
layerId = "134B12F2-BF5D-48E3-8003-C7502B438C7E";
paths = (
{
closed = 1;
nodes = (
"55 93 OFFCURVE",
"164 -10 OFFCURVE",
"286 -10 CURVE SMOOTH",
"354 -10 OFFCURVE",
"430 23 OFFCURVE",
"463 106 CURVE",
"425 106 LINE",
"473 18 OFFCURVE",
"534 -10 OFFCURVE",
"613 -10 CURVE SMOOTH",
"727 -10 OFFCURVE",
"845 46 OFFCURVE",
"845 301 CURVE SMOOTH",
"845 575 OFFCURVE",
"722 724 OFFCURVE",
"602 724 CURVE SMOOTH",
"528 724 OFFCURVE",
"466 666 OFFCURVE",
"466 581 CURVE SMOOTH",
"466 504 OFFCURVE",
"515 397 OFFCURVE",
"672 397 CURVE SMOOTH",
"733 397 OFFCURVE",
"809 413 OFFCURVE",
"909 456 CURVE",
"865 564 LINE",
"782 523 OFFCURVE",
"724 508 OFFCURVE",
"678 508 CURVE SMOOTH",
"591 508 OFFCURVE",
"571 551 OFFCURVE",
"571 574 CURVE SMOOTH",
"571 597 OFFCURVE",
"586 611 OFFCURVE",
"611 611 CURVE SMOOTH",
"662 611 OFFCURVE",
"722 523 OFFCURVE",
"719 299 CURVE SMOOTH",
"717 168 OFFCURVE",
"661 126 OFFCURVE",
"608 126 CURVE SMOOTH",
"557 126 OFFCURVE",
"509 165 OFFCURVE",
"509 258 CURVE SMOOTH",
"509 388 LINE",
"386 388 LINE",
"385 279 LINE SMOOTH",
"384 156 OFFCURVE",
"333 126 OFFCURVE",
"289 126 CURVE SMOOTH",
"230 126 OFFCURVE",
"182 180 OFFCURVE",
"182 287 CURVE SMOOTH",
"182 400 OFFCURVE",
"242 530 OFFCURVE",
"337 659 CURVE",
"225 725 LINE",
"117 567 OFFCURVE",
"55 432 OFFCURVE",
"55 291 CURVE SMOOTH"
);
}
);
width = 934;
}
);
leftKerningGroup = "uiuz-tangsa";
unicode = 16AA3;
script = tangsa;
category = Letter;
subCategory = Other;
},
{
glyphname = "sa-tangsa";
lastChange = "2022-01-07 13:54:57 +0000";
layers = (
{
layerId = "134B12F2-BF5D-48E3-8003-C7502B438C7E";
paths = (
{
closed = 1;
nodes = (
"49 74 OFFCURVE",
"146 -10 OFFCURVE",
"281 -10 CURVE SMOOTH",
"400 -10 OFFCURVE",
"513 63 OFFCURVE",
"513 209 CURVE SMOOTH",
"513 324 OFFCURVE",
"447 385 OFFCURVE",
"364 433 CURVE SMOOTH",
"300 470 LINE SMOOTH",
"240 505 OFFCURVE",
"216 525 OFFCURVE",
"216 550 CURVE SMOOTH",
"216 572 OFFCURVE",
"240 589 OFFCURVE",
"277 589 CURVE SMOOTH",
"325 589 OFFCURVE",
"373 569 OFFCURVE",
"427 533 CURVE",
"493 657 LINE",
"430 693 OFFCURVE",
"354 724 OFFCURVE",
"276 724 CURVE SMOOTH",
"171 724 OFFCURVE",
"82 664 OFFCURVE",
"82 552 CURVE SMOOTH",
"82 477 OFFCURVE",
"123 418 OFFCURVE",
"206 372 CURVE SMOOTH",
"271 336 LINE SMOOTH",
"343 296 OFFCURVE",
"387 256 OFFCURVE",
"387 206 CURVE SMOOTH",
"387 160 OFFCURVE",
"339 126 OFFCURVE",
"280 126 CURVE SMOOTH",
"223 126 OFFCURVE",
"172 155 OFFCURVE",
"172 206 CURVE SMOOTH",
"172 254 OFFCURVE",
"226 298 OFFCURVE",
"367 357 CURVE",
"250 423 LINE",
"117 384 OFFCURVE",
"49 301 OFFCURVE",
"49 204 CURVE SMOOTH"
);
}
);
width = 559;
},
{
layerId = "9FF96064-8718-4A86-A5C8-73C592101F67";
paths = (
{
closed = 1;
nodes = (
"56 68 OFFCURVE",
"139 -10 OFFCURVE",
"255 -10 CURVE SMOOTH",
"356 -10 OFFCURVE",
"453 59 OFFCURVE",
"453 194 CURVE SMOOTH",
"453 302 OFFCURVE",
"395 363 OFFCURVE",
"321 410 CURVE SMOOTH",
"258 450 LINE SMOOTH",
"187 495 OFFCURVE",
"161 529 OFFCURVE",
"161 566 CURVE SMOOTH",
"161 614 OFFCURVE",
"206 647 OFFCURVE",
"263 647 CURVE SMOOTH",
"310 647 OFFCURVE",
"355 626 OFFCURVE",
"387 604 CURVE",
"424 674 LINE",
"378 700 OFFCURVE",
"328 724 OFFCURVE",
"262 724 CURVE SMOOTH",
"170 724 OFFCURVE",
"89 670 OFFCURVE",
"89 570 CURVE SMOOTH",
"89 495 OFFCURVE",
"134 442 OFFCURVE",
"196 404 CURVE SMOOTH",
"261 364 LINE SMOOTH",
"347 311 OFFCURVE",
"384 259 OFFCURVE",
"384 191 CURVE SMOOTH",
"384 118 OFFCURVE",
"332 68 OFFCURVE",
"254 68 CURVE SMOOTH",
"180 68 OFFCURVE",
"123 113 OFFCURVE",
"123 191 CURVE SMOOTH",
"123 262 OFFCURVE",
"166 311 OFFCURVE",
"274 360 CURVE",
"212 395 LINE",
"111 356 OFFCURVE",
"56 280 OFFCURVE",
"56 189 CURVE SMOOTH"
);
}
);
width = 504;
}
);
unicode = 16AA4;
script = tangsa;
category = Letter;
subCategory = Other;
},
{
glyphname = "ya-tangsa";
lastChange = "2022-01-07 11:48:20 +0000";
layers = (
{
components = (
{
name = _part.hta;
transform = "{1, 0, 0, 1, 62, 0}";
}
);
layerId = "9FF96064-8718-4A86-A5C8-73C592101F67";
paths = (
{
closed = 1;
nodes = (
"108 582 OFFCURVE",
"139 526 OFFCURVE",
"179 485 CURVE",
"243 536 LINE",
"210 566 OFFCURVE",
"186 603 OFFCURVE",
"186 619 CURVE SMOOTH",
"186 636 OFFCURVE",
"198 640 OFFCURVE",
"221 640 CURVE SMOOTH",
"406 640 LINE",
"406 714 LINE",
"206 714 LINE SMOOTH",
"126 714 OFFCURVE",
"108 670 OFFCURVE",
"108 629 CURVE SMOOTH"
);
}
);
width = 546;
},
{
components = (
{
name = _part.hta;
transform = "{1, 0, 0, 1, 93, 0}";
}
);
layerId = "134B12F2-BF5D-48E3-8003-C7502B438C7E";
paths = (
{
closed = 1;
nodes = (
"68 566 OFFCURVE",
"103 505 OFFCURVE",
"142 451 CURVE",
"235 520 LINE",
"214 543 OFFCURVE",
"202 560 OFFCURVE",
"202 571 CURVE SMOOTH",
"202 581 OFFCURVE",
"211 584 OFFCURVE",
"241 584 CURVE SMOOTH",
"475 584 LINE",
"475 714 LINE",
"202 714 LINE SMOOTH",
"91 714 OFFCURVE",
"68 662 OFFCURVE",
"68 614 CURVE SMOOTH"
);
}
);
width = 600;
}
);
rightKerningGroup = "oz-tangsa";
rightMetricsKey = "oz-tangsa";
unicode = 16AA5;
script = tangsa;
category = Letter;
subCategory = Other;
},
{
glyphname = "wa-tangsa";
lastChange = "2022-01-07 13:35:56 +0000";
layers = (
{
layerId = "134B12F2-BF5D-48E3-8003-C7502B438C7E";
paths = (
{
closed = 1;
nodes = (
"52 135 OFFCURVE",
"151 -10 OFFCURVE",
"307 -10 CURVE SMOOTH",
"439 -10 OFFCURVE",
"510 81 OFFCURVE",
"510 224 CURVE SMOOTH",
"510 495 LINE SMOOTH",
"510 575 OFFCURVE",
"553 588 OFFCURVE",
"583 588 CURVE SMOOTH",
"664 588 OFFCURVE",
"769 484 OFFCURVE",
"769 320 CURVE SMOOTH",
"769 157 OFFCURVE",
"728 90 OFFCURVE",
"689 90 CURVE SMOOTH",
"667 90 OFFCURVE",
"650 104 OFFCURVE",
"650 130 CURVE SMOOTH",
"650 157 OFFCURVE",
"668 205 OFFCURVE",
"792 227 CURVE",
"786 329 LINE",
"604 307 OFFCURVE",
"549 202 OFFCURVE",
"549 127 CURVE SMOOTH",
"549 44 OFFCURVE",
"610 -10 OFFCURVE",
"685 -10 CURVE SMOOTH",
"803 -10 OFFCURVE",
"895 81 OFFCURVE",
"895 305 CURVE SMOOTH",
"895 559 OFFCURVE",
"749 724 OFFCURVE",
"578 724 CURVE SMOOTH",
"471 724 OFFCURVE",
"386 641 OFFCURVE",
"386 499 CURVE SMOOTH",
"386 230 LINE SMOOTH",
"386 154 OFFCURVE",
"349 126 OFFCURVE",
"306 126 CURVE SMOOTH",
"245 126 OFFCURVE",
"179 192 OFFCURVE",
"179 321 CURVE SMOOTH",
"179 438 OFFCURVE",
"235 562 OFFCURVE",
"316 670 CURVE",
"205 732 LINE",
"108 595 OFFCURVE",
"52 462 OFFCURVE",
"52 324 CURVE SMOOTH"
);
}
);
width = 945;
},
{
layerId = "9FF96064-8718-4A86-A5C8-73C592101F67";
paths = (
{
closed = 1;
nodes = (
"52 134 OFFCURVE",
"139 -10 OFFCURVE",
"274 -10 CURVE SMOOTH",
"386 -10 OFFCURVE",
"447 77 OFFCURVE",
"447 211 CURVE SMOOTH",
"447 508 LINE SMOOTH",
"447 627 OFFCURVE",
"506 646 OFFCURVE",
"543 646 CURVE SMOOTH",
"633 646 OFFCURVE",
"723 533 OFFCURVE",
"723 319 CURVE SMOOTH",
"723 112 OFFCURVE",
"654 59 OFFCURVE",
"619 59 CURVE SMOOTH",
"591 59 OFFCURVE",
"575 79 OFFCURVE",
"575 116 CURVE SMOOTH",
"575 157 OFFCURVE",
"606 226 OFFCURVE",
"732 227 CURVE",
"732 293 LINE",
"558 290 OFFCURVE",
"502 200 OFFCURVE",
"502 115 CURVE SMOOTH",
"502 40 OFFCURVE",
"548 -10 OFFCURVE",
"613 -10 CURVE SMOOTH",
"711 -10 OFFCURVE",
"793 71 OFFCURVE",
"793 311 CURVE SMOOTH",
"793 564 OFFCURVE",
"685 724 OFFCURVE",
"543 724 CURVE SMOOTH",
"444 724 OFFCURVE",
"377 645 OFFCURVE",
"377 514 CURVE SMOOTH",
"377 217 LINE SMOOTH",
"377 107 OFFCURVE",
"328 68 OFFCURVE",
"273 68 CURVE SMOOTH",
"199 68 OFFCURVE",
"124 151 OFFCURVE",
"124 318 CURVE SMOOTH",
"124 454 OFFCURVE",
"174 585 OFFCURVE",
"247 688 CURVE",
"184 722 LINE",
"104 597 OFFCURVE",
"52 467 OFFCURVE",
"52 321 CURVE SMOOTH"
);
}
);
width = 848;
}
);
leftKerningGroup = "uiuz-tangsa";
unicode = 16AA6;
script = tangsa;
category = Letter;
subCategory = Other;
},
{
glyphname = "pa-tangsa";
lastChange = "2022-01-07 11:21:35 +0000";
layers = (
{
layerId = "9FF96064-8718-4A86-A5C8-73C592101F67";
paths = (
{
closed = 1;
nodes = (
"427 68 OFFCURVE",
"345 227 OFFCURVE",
"345 356 CURVE SMOOTH",
"345 435 OFFCURVE",
"376 473 OFFCURVE",
"418 473 CURVE SMOOTH",
"466 473 OFFCURVE",
"491 421 OFFCURVE",
"491 344 CURVE SMOOTH",
"491 198 OFFCURVE",
"406 68 OFFCURVE",
"269 68 CURVE SMOOTH",
"196 68 OFFCURVE",
"155 100 OFFCURVE",
"155 193 CURVE SMOOTH",
"155 714 LINE",
"85 714 LINE",
"85 197 LINE SMOOTH",
"85 62 OFFCURVE",
"157 -10 OFFCURVE",
"268 -10 CURVE SMOOTH",
"433 -10 OFFCURVE",
"558 165 OFFCURVE",
"558 338 CURVE SMOOTH",
"558 453 OFFCURVE",
"506 547 OFFCURVE",
"412 547 CURVE SMOOTH",
"330 547 OFFCURVE",
"277 477 OFFCURVE",
"277 363 CURVE SMOOTH",
"277 209 OFFCURVE",
"370 -10 OFFCURVE",
"604 -10 CURVE SMOOTH",
"820 -10 OFFCURVE",
"916 160 OFFCURVE",
"916 332 CURVE SMOOTH",
"916 458 OFFCURVE",
"862 547 OFFCURVE",
"768 547 CURVE SMOOTH",
"686 547 OFFCURVE",
"633 477 OFFCURVE",
"633 375 CURVE SMOOTH",
"633 284 OFFCURVE",
"676 188 OFFCURVE",
"756 102 CURVE SMOOTH",
"803 52 OFFCURVE",
"840 24 OFFCURVE",
"908 -14 CURVE",
"952 43 LINE",
"907 65 OFFCURVE",
"860 92 OFFCURVE",
"810 142 CURVE SMOOTH",
"759 194 OFFCURVE",
"701 272 OFFCURVE",
"701 367 CURVE SMOOTH",
"701 435 OFFCURVE",
"732 473 OFFCURVE",
"774 473 CURVE SMOOTH",
"822 473 OFFCURVE",
"849 424 OFFCURVE",
"849 339 CURVE SMOOTH",
"849 191 OFFCURVE",
"766 68 OFFCURVE",
"604 68 CURVE SMOOTH"
);
}
);
width = 1005;
},
{
layerId = "134B12F2-BF5D-48E3-8003-C7502B438C7E";
paths = (
{
closed = 1;
nodes = (
"487 126 OFFCURVE",
"400 253 OFFCURVE",
"400 356 CURVE SMOOTH",
"400 405 OFFCURVE",
"428 430 OFFCURVE",
"462 430 CURVE SMOOTH",
"498 430 OFFCURVE",
"518 395 OFFCURVE",
"518 346 CURVE SMOOTH",
"518 221 OFFCURVE",
"447 126 OFFCURVE",
"315 126 CURVE SMOOTH",
"238 126 OFFCURVE",
"191 158 OFFCURVE",
"191 228 CURVE SMOOTH",
"191 714 LINE",
"67 714 LINE",
"67 232 LINE SMOOTH",
"67 66 OFFCURVE",
"164 -10 OFFCURVE",
"314 -10 CURVE SMOOTH",
"495 -10 OFFCURVE",
"642 179 OFFCURVE",
"642 340 CURVE SMOOTH",
"642 463 OFFCURVE",
"575 562 OFFCURVE",
"455 562 CURVE SMOOTH",
"350 562 OFFCURVE",
"279 487 OFFCURVE",
"279 363 CURVE SMOOTH",
"279 216 OFFCURVE",
"397 -10 OFFCURVE",
"677 -10 CURVE SMOOTH",
"927 -10 OFFCURVE",
"1051 187 OFFCURVE",
"1051 334 CURVE SMOOTH",
"1051 468 OFFCURVE",
"979 562 OFFCURVE",
"860 562 CURVE SMOOTH",
"755 562 OFFCURVE",
"687 487 OFFCURVE",
"687 373 CURVE SMOOTH",
"687 287 OFFCURVE",
"741 195 OFFCURVE",
"829 108 CURVE SMOOTH",
"880 58 OFFCURVE",
"937 28 OFFCURVE",
"1027 -13 CURVE",
"1094 96 LINE",
"1033 121 OFFCURVE",
"962 150 OFFCURVE",
"921 183 CURVE SMOOTH",
"871 223 OFFCURVE",
"809 291 OFFCURVE",
"809 365 CURVE SMOOTH",
"809 405 OFFCURVE",
"834 430 OFFCURVE",
"866 430 CURVE SMOOTH",
"904 430 OFFCURVE",
"927 397 OFFCURVE",
"927 341 CURVE SMOOTH",
"927 218 OFFCURVE",
"854 126 OFFCURVE",
"674 126 CURVE SMOOTH"
);
}
);
width = 1130;
}
);
leftMetricsKey = "ex-tangsa";
rightKerningGroup = "pa-tangsa";
rightMetricsKey = "gha-tangsa";
unicode = 16AA7;
script = tangsa;
category = Letter;
subCategory = Other;
},
{
glyphname = "nya-tangsa";
lastChange = "2022-01-07 12:46:15 +0000";
layers = (
{
components = (
{
name = "hta-tangsa";
}
);
layerId = "9FF96064-8718-4A86-A5C8-73C592101F67";
paths = (
{
closed = 1;
nodes = (
"543 265 LINE",
"558 340 LINE",
"425 369 LINE",
"420 297 LINE"
);
}
);
width = 566;
},
{
components = (
{
name = "hta-tangsa";
}
);
layerId = "134B12F2-BF5D-48E3-8003-C7502B438C7E";
paths = (
{
closed = 1;
nodes = (
"588 206 LINE",
"610 329 LINE",
"415 371 LINE",
"408 250 LINE"
);
}
);
width = 613;
}
);
leftMetricsKey = "hta-tangsa";
unicode = 16AA8;
script = tangsa;
category = Letter;
subCategory = Other;
},
{
glyphname = "pha-tangsa";
lastChange = "2022-01-07 13:07:32 +0000";
layers = (
{
components = (
{
name = _part.loop3;
transform = "{1, 0, 0, 1, -3, 0}";
}
);
layerId = "134B12F2-BF5D-48E3-8003-C7502B438C7E";
paths = (
{
closed = 1;
nodes = (
"451 331 LINE",
"596 374 LINE",
"563 490 LINE",
"419 445 LINE"
);
},
{
closed = 1;
nodes = (
"489 515 LINE",
"489 714 LINE",
"365 714 LINE",
"365 515 LINE"
);
},
{
closed = 1;
nodes = (
"44 568 OFFCURVE",
"79 510 OFFCURVE",
"118 459 CURVE",
"211 541 LINE",
"190 560 OFFCURVE",
"178 575 OFFCURVE",
"178 584 CURVE SMOOTH",
"178 594 OFFCURVE",
"187 597 OFFCURVE",
"217 597 CURVE SMOOTH",
"427 597 LINE",
"427 714 LINE",
"178 714 LINE SMOOTH",
"67 714 OFFCURVE",
"44 662 OFFCURVE",
"44 614 CURVE SMOOTH"
);
}
);
width = 599;
},
{
components = (
{
name = _part.loop3;
transform = "{1, 0, 0, 1, 33, 0}";
}
);
layerId = "9FF96064-8718-4A86-A5C8-73C592101F67";
paths = (
{
closed = 1;
nodes = (
"424 373 LINE",
"550 424 LINE",
"523 489 LINE",
"390 434 LINE"
);
},
{
closed = 1;
nodes = (
"437 499 LINE",
"437 714 LINE",
"367 714 LINE",
"367 499 LINE"
);
},
{
closed = 1;
nodes = (
"57 582 OFFCURVE",
"88 526 OFFCURVE",
"128 485 CURVE",
"192 536 LINE",
"159 566 OFFCURVE",
"135 603 OFFCURVE",
"135 619 CURVE SMOOTH",
"135 636 OFFCURVE",
"147 640 OFFCURVE",
"170 640 CURVE SMOOTH",
"413 640 LINE",
"413 714 LINE",
"155 714 LINE SMOOTH",
"75 714 OFFCURVE",
"57 670 OFFCURVE",
"57 629 CURVE SMOOTH"
);
}
);
width = 558;
}
);
rightMetricsKey = "nya-tangsa";
unicode = 16AA9;
script = tangsa;
category = Letter;
subCategory = Other;
},
{
glyphname = "ba-tangsa";
lastChange = "2022-01-07 11:23:31 +0000";
layers = (
{
components = (
{
name = _part.loop3;
transform = "{1, 0, 0, 1, 14, 0}";
}
);
layerId = "9FF96064-8718-4A86-A5C8-73C592101F67";
paths = (
{
closed = 1;
nodes = (
"418 427 LINE",
"418 714 LINE",
"348 714 LINE",
"348 427 LINE"
);
}
);
width = 499;
},
{
components = (
{
name = _part.loop3;
transform = "{1, 0, 0, 1, -8, 0}";
}
);
layerId = "134B12F2-BF5D-48E3-8003-C7502B438C7E";
paths = (
{
closed = 1;
nodes = (
"484 409 LINE",
"484 714 LINE",
"360 714 LINE",
"360 409 LINE"
);
}
);
width = 548;
}
);
leftMetricsKey = "oz-tangsa";
rightKerningGroup = "oz-tangsa";
rightMetricsKey = "oz-tangsa";
unicode = 16AAA;
script = tangsa;
category = Letter;
subCategory = Other;
},
{
glyphname = "ma-tangsa";
lastChange = "2022-01-07 13:32:47 +0000";
layers = (
{
layerId = "9FF96064-8718-4A86-A5C8-73C592101F67";
paths = (
{
closed = 1;
nodes = (
"68 68 OFFCURVE",
"150 -10 OFFCURVE",
"267 -10 CURVE SMOOTH",
"334 -10 OFFCURVE",
"394 19 OFFCURVE",
"435 76 CURVE SMOOTH",
"455 105 OFFCURVE",
"467 145 OFFCURVE",
"467 190 CURVE SMOOTH",
"467 315 OFFCURVE",
"390 369 OFFCURVE",
"304 409 CURVE SMOOTH",
"228 444 OFFCURVE",
"201 470 OFFCURVE",
"201 497 CURVE SMOOTH",
"201 552 OFFCURVE",
"293 589 OFFCURVE",
"451 643 CURVE",
"403 667 LINE",
"238 639 OFFCURVE",
"124 579 OFFCURVE",
"124 484 CURVE SMOOTH",
"124 422 OFFCURVE",
"175 388 OFFCURVE",
"269 346 CURVE SMOOTH",
"355 308 OFFCURVE",
"400 262 OFFCURVE",
"400 193 CURVE SMOOTH",
"400 118 OFFCURVE",
"348 68 OFFCURVE",
"268 68 CURVE SMOOTH",
"192 68 OFFCURVE",
"135 113 OFFCURVE",
"135 191 CURVE SMOOTH",
"135 262 OFFCURVE",
"178 311 OFFCURVE",
"288 360 CURVE",
"211 387 LINE",
"118 350 OFFCURVE",
"68 277 OFFCURVE",
"68 189 CURVE SMOOTH"
);
},
{
closed = 1;
nodes = (
"183 636 LINE SMOOTH",
"244 636 OFFCURVE",
"282 644 OFFCURVE",
"329 656 CURVE",
"335 643 LINE",
"451 643 LINE",
"468 714 LINE",
"100 714 LINE",
"83 636 LINE"
);
}
);
width = 514;
},
{
layerId = "134B12F2-BF5D-48E3-8003-C7502B438C7E";
paths = (
{
closed = 1;
nodes = (
"53 76 OFFCURVE",
"153 -10 OFFCURVE",
"281 -10 CURVE SMOOTH",
"353 -10 OFFCURVE",
"416 18 OFFCURVE",
"457 66 CURVE SMOOTH",
"489 103 OFFCURVE",
"506 153 OFFCURVE",
"506 210 CURVE SMOOTH",
"506 329 OFFCURVE",
"422 378 OFFCURVE",
"332 424 CURVE SMOOTH",
"269 456 OFFCURVE",
"250 470 OFFCURVE",
"250 489 CURVE SMOOTH",
"250 523 OFFCURVE",
"305 549 OFFCURVE",
"473 594 CURVE",
"407 608 LINE",
"264 608 OFFCURVE",
"116 561 OFFCURVE",
"116 459 CURVE SMOOTH",
"116 401 OFFCURVE",
"168 365 OFFCURVE",
"266 322 CURVE SMOOTH",
"344 288 OFFCURVE",
"380 255 OFFCURVE",
"380 208 CURVE SMOOTH",
"380 160 OFFCURVE",
"340 126 OFFCURVE",
"276 126 CURVE SMOOTH",
"221 126 OFFCURVE",
"176 155 OFFCURVE",
"176 202 CURVE SMOOTH",
"176 255 OFFCURVE",
"232 304 OFFCURVE",
"365 343 CURVE",
"246 402 LINE",
"118 375 OFFCURVE",
"53 298 OFFCURVE",
"53 202 CURVE SMOOTH"
);
},
{
closed = 1;
nodes = (
"143 582 LINE SMOOTH",
"200 582 OFFCURVE",
"246 591 OFFCURVE",
"278 599 CURVE",
"278 593 LINE",
"473 594 LINE",
"503 714 LINE",
"100 714 LINE",
"70 582 LINE"
);
}
);
width = 549;
}
);
unicode = 16AAB;
script = tangsa;
category = Letter;
subCategory = Other;
},
{
glyphname = "na-tangsa";
lastChange = "2022-01-07 11:54:20 +0000";
layers = (
{
layerId = "9FF96064-8718-4A86-A5C8-73C592101F67";
paths = (
{
closed = 1;
nodes = (
"155 0 LINE",
"155 714 LINE",
"85 714 LINE",
"85 0 LINE"
);
},
{
closed = 1;
nodes = (
"155 0 LINE",
"155 148 OFFCURVE",
"163 284 OFFCURVE",
"190 371 CURVE SMOOTH",
"205 420 OFFCURVE",
"234 469 OFFCURVE",
"278 469 CURVE SMOOTH",
"298 469 OFFCURVE",
"317 458 OFFCURVE",
"333 430 CURVE SMOOTH",
"359 385 OFFCURVE",
"384 269 OFFCURVE",
"396 195 CURVE",
"464 226 LINE",
"452 301 OFFCURVE",
"432 410 OFFCURVE",
"393 478 CURVE SMOOTH",
"365 526 OFFCURVE",
"327 547 OFFCURVE",
"288 547 CURVE SMOOTH",
"113 547 OFFCURVE",
"111 209 OFFCURVE",
"111 32 CURVE"
);
}
);
width = 504;
},
{
layerId = "134B12F2-BF5D-48E3-8003-C7502B438C7E";
paths = (
{
closed = 1;
nodes = (
"191 0 LINE",
"191 714 LINE",
"67 714 LINE",
"67 0 LINE"
);
},
{
closed = 1;
nodes = (
"191 0 LINE",
"191 181 OFFCURVE",
"208 279 OFFCURVE",
"229 342 CURVE SMOOTH",
"245 390 OFFCURVE",
"268 416 OFFCURVE",
"291 416 CURVE SMOOTH",
"304 416 OFFCURVE",
"316 410 OFFCURVE",
"325 395 CURVE SMOOTH",
"348 359 OFFCURVE",
"369 226 OFFCURVE",
"374 177 CURVE",
"496 233 LINE",
"488 312 OFFCURVE",
"464 420 OFFCURVE",
"424 484 CURVE SMOOTH",
"391 538 OFFCURVE",
"356 556 OFFCURVE",
"310 556 CURVE SMOOTH",
"168 556 OFFCURVE",
"119 308 OFFCURVE",
"119 102 CURVE"
);
}
);
width = 518;
}
);
leftKerningGroup = "ac-tangsa";
leftMetricsKey = "az-tangsa";
unicode = 16AAC;
script = tangsa;
category = Letter;
subCategory = Other;
},
{
glyphname = "ha-tangsa";
lastChange = "2022-01-07 13:55:04 +0000";
layers = (
{
layerId = "9FF96064-8718-4A86-A5C8-73C592101F67";
paths = (
{
closed = 1;
nodes = (
"84 418 OFFCURVE",
"200 307 OFFCURVE",
"318 307 CURVE SMOOTH",
"369 307 OFFCURVE",
"394 331 OFFCURVE",
"394 367 CURVE SMOOTH",
"394 399 OFFCURVE",
"373 426 OFFCURVE",
"314 426 CURVE SMOOTH",
"271 426 OFFCURVE",
"231 417 OFFCURVE",
"184 400 CURVE",
"244 379 LINE",
"174 440 OFFCURVE",
"158 484 OFFCURVE",
"158 520 CURVE SMOOTH",
"158 572 OFFCURVE",
"186 653 OFFCURVE",
"397 653 CURVE",
"392 724 LINE",
"188 724 OFFCURVE",
"84 641 OFFCURVE",
"84 530 CURVE SMOOTH"
);
},
{
closed = 1;
nodes = (
"51 65 OFFCURVE",
"149 -10 OFFCURVE",
"271 -10 CURVE SMOOTH",
"350 -10 OFFCURVE",
"410 16 OFFCURVE",
"458 58 CURVE",
"419 128 LINE",
"373 89 OFFCURVE",
"314 68 OFFCURVE",
"264 68 CURVE SMOOTH",
"174 68 OFFCURVE",
"118 117 OFFCURVE",
"118 196 CURVE SMOOTH",
"118 265 OFFCURVE",
"170 327 OFFCURVE",
"240 344 CURVE",
"170 389 LINE",
"102 355 OFFCURVE",
"51 282 OFFCURVE",
"51 206 CURVE SMOOTH"
);
}
);
width = 478;
},
{
layerId = "134B12F2-BF5D-48E3-8003-C7502B438C7E";
paths = (
{
closed = 1;
nodes = (
"68 391 OFFCURVE",
"203 293 OFFCURVE",
"332 293 CURVE SMOOTH",
"401 293 OFFCURVE",
"434 321 OFFCURVE",
"434 371 CURVE SMOOTH",
"434 406 OFFCURVE",
"417 447 OFFCURVE",
"333 447 CURVE SMOOTH",
"288 447 OFFCURVE",
"238 434 OFFCURVE",
"193 418 CURVE",
"295 378 LINE",
"219 435 OFFCURVE",
"199 467 OFFCURVE",
"199 509 CURVE SMOOTH",
"199 542 OFFCURVE",
"237 589 OFFCURVE",
"428 589 CURVE",
"421 724 LINE",
"185 724 OFFCURVE",
"68 643 OFFCURVE",
"68 522 CURVE SMOOTH"
);
},
{
closed = 1;
nodes = (
"50 69 OFFCURVE",
"153 -10 OFFCURVE",
"283 -10 CURVE SMOOTH",
"365 -10 OFFCURVE",
"440 23 OFFCURVE",
"502 79 CURVE",
"438 195 LINE",
"372 145 OFFCURVE",
"314 126 OFFCURVE",
"276 126 CURVE SMOOTH",
"216 126 OFFCURVE",
"176 159 OFFCURVE",
"176 205 CURVE SMOOTH",
"176 256 OFFCURVE",
"210 295 OFFCURVE",
"274 314 CURVE",
"175 399 LINE",
"101 362 OFFCURVE",
"50 301 OFFCURVE",
"50 215 CURVE SMOOTH"
);
}
);
width = 520;
}
);
unicode = 16AAD;
script = tangsa;
category = Letter;
subCategory = Other;
},
{
glyphname = "la-tangsa";
lastChange = "2022-01-07 13:07:32 +0000";
layers = (
{
layerId = "9FF96064-8718-4A86-A5C8-73C592101F67";
paths = (
{
closed = 1;
nodes = (
"85 62 OFFCURVE",
"144 -10 OFFCURVE",
"235 -10 CURVE SMOOTH",
"375 -10 OFFCURVE",
"480 163 OFFCURVE",
"480 334 CURVE SMOOTH",
"480 401 OFFCURVE",
"449 455 OFFCURVE",
"393 455 CURVE SMOOTH",
"349 455 OFFCURVE",
"327 424 OFFCURVE",
"327 382 CURVE SMOOTH",
"327 342 OFFCURVE",
"366 285 OFFCURVE",
"445 252 CURVE",
"420 307 LINE",
"387 152 OFFCURVE",
"325 68 OFFCURVE",
"235 68 CURVE SMOOTH",
"185 68 OFFCURVE",
"155 100 OFFCURVE",
"155 193 CURVE SMOOTH",
"155 714 LINE",
"85 714 LINE",
"85 197 LINE SMOOTH"
);
}
);
width = 535;
},
{
layerId = "134B12F2-BF5D-48E3-8003-C7502B438C7E";
paths = (
{
closed = 1;
nodes = (
"67 74 OFFCURVE",
"139 -10 OFFCURVE",
"251 -10 CURVE SMOOTH",
"405 -10 OFFCURVE",
"520 154 OFFCURVE",
"520 316 CURVE SMOOTH",
"520 400 OFFCURVE",
"491 470 OFFCURVE",
"419 470 CURVE SMOOTH",
"363 470 OFFCURVE",
"330 427 OFFCURVE",
"330 378 CURVE SMOOTH",
"330 332 OFFCURVE",
"368 270 OFFCURVE",
"470 236 CURVE",
"414 329 LINE",
"400 198 OFFCURVE",
"319 127 OFFCURVE",
"263 127 CURVE SMOOTH",
"221 127 OFFCURVE",
"191 151 OFFCURVE",
"191 232 CURVE SMOOTH",
"191 714 LINE",
"67 714 LINE",
"67 236 LINE SMOOTH"
);
}
);
width = 553;
}
);
leftKerningGroup = "az-tangsa";
leftMetricsKey = "az-tangsa";
unicode = 16AAE;
script = tangsa;
category = Letter;
subCategory = Other;
},
{
glyphname = "hta-tangsa";
lastChange = "2022-01-07 11:21:35 +0000";
layers = (
{
components = (
{
name = _part.hta;
transform = "{1, 0, 0, 1, 64, 0}";
}
);
layerId = "9FF96064-8718-4A86-A5C8-73C592101F67";
paths = (
{
closed = 1;
nodes = (
"115 726 LINE",
"96 683 OFFCURVE",
"85 650 OFFCURVE",
"85 609 CURVE SMOOTH",
"85 522 OFFCURVE",
"141 449 OFFCURVE",
"253 449 CURVE SMOOTH",
"347 449 OFFCURVE",
"413 497 OFFCURVE",
"431 600 CURVE",
"398 675 LINE",
"398 558 OFFCURVE",
"325 519 OFFCURVE",
"256 519 CURVE SMOOTH",
"186 519 OFFCURVE",
"152 555 OFFCURVE",
"152 601 CURVE SMOOTH",
"152 632 OFFCURVE",
"164 667 OFFCURVE",
"184 706 CURVE"
);
}
);
width = 548;
},
{
components = (
{
name = _part.hta;
transform = "{1, 0, 0, 1, 85, 0}";
}
);
layerId = "134B12F2-BF5D-48E3-8003-C7502B438C7E";
paths = (
{
closed = 1;
nodes = (
"106 730 LINE",
"84 683 OFFCURVE",
"72 647 OFFCURVE",
"72 604 CURVE SMOOTH",
"72 512 OFFCURVE",
"139 438 OFFCURVE",
"269 438 CURVE SMOOTH",
"368 438 OFFCURVE",
"447 496 OFFCURVE",
"466 589 CURVE",
"404 666 LINE",
"404 579 OFFCURVE",
"337 550 OFFCURVE",
"285 550 CURVE SMOOTH",
"237 550 OFFCURVE",
"197 574 OFFCURVE",
"197 612 CURVE SMOOTH",
"197 638 OFFCURVE",
"207 659 OFFCURVE",
"232 699 CURVE"
);
}
);
width = 592;
}
);
rightKerningGroup = "oz-tangsa";
rightMetricsKey = "oz-tangsa";
unicode = 16AAF;
script = tangsa;
category = Letter;
subCategory = Other;
},
{
glyphname = "ta-tangsa";
lastChange = "2022-01-07 11:21:35 +0000";
layers = (
{
components = (
{
alignment = -1;
name = _part.loop2;
transform = "{-1, 0, 0, 1, 692, 0}";
},
{
name = _part.loop3;
transform = "{1, 0, 0, 1, 18, 0}";
}
);
layerId = "9FF96064-8718-4A86-A5C8-73C592101F67";
paths = (
{
closed = 1;
nodes = (
"360 565 LINE",
"118 645 LINE",
"99 574 LINE",
"360 495 LINE"
);
}
);
width = 593;
},
{
components = (
{
alignment = -1;
name = _part.loop2;
transform = "{-1, 0, 0, 1, 754, 0}";
},
{
name = _part.loop3;
transform = "{1, 0, 0, 1, 1, 0}";
}
);
layerId = "134B12F2-BF5D-48E3-8003-C7502B438C7E";
paths = (
{
closed = 1;
nodes = (
"387 575 LINE",
"118 664 LINE",
"86 553 LINE",
"387 465 LINE"
);
}
);
width = 667;
}
);
unicode = 16AB0;
script = tangsa;
category = Letter;
subCategory = Other;
},
{
glyphname = "da-tangsa";
lastChange = "2022-01-07 11:21:35 +0000";
layers = (
{
components = (
{
name = _part.uez;
transform = "{-1, 0, 0, -1, 771, 714}";
},
{
name = _part.uez;
transform = "{1, 0, 0, 1, -15, 0}";
}
);
layerId = "9FF96064-8718-4A86-A5C8-73C592101F67";
paths = (
{
closed = 1;
nodes = (
"297 262 LINE",
"488 386 LINE",
"459 450 LINE",
"280 333 LINE"
);
}
);
width = 755;
},
{
components = (
{
name = _part.uez;
transform = "{-1, 0, 0, -1, 800, 714}";
},
{
name = _part.uez;
transform = "{1, 0, 0, 1, -12, 0}";
}
);
layerId = "134B12F2-BF5D-48E3-8003-C7502B438C7E";
paths = (
{
closed = 1;
nodes = (
"298 248 LINE",
"531 380 LINE",
"487 468 LINE",
"272 346 LINE"
);
}
);
width = 778;
}
);
unicode = 16AB1;
script = tangsa;
category = Letter;
subCategory = Other;
},
{
glyphname = "ra-tangsa";
lastChange = "2022-01-07 11:21:35 +0000";
layers = (
{
components = (
{
name = "iz-tangsa";
}
);
layerId = "134B12F2-BF5D-48E3-8003-C7502B438C7E";
paths = (
{
closed = 1;
nodes = (
"727 0 LINE",
"727 714 LINE",
"603 714 LINE",
"603 0 LINE"
);
},
{
closed = 1;
nodes = (
"381 298 LINE",
"636 357 LINE",
"622 464 LINE",
"339 391 LINE"
);
}
);
width = 791;
},
{
components = (
{
name = "iz-tangsa";
}
);
layerId = "9FF96064-8718-4A86-A5C8-73C592101F67";
paths = (
{
closed = 1;
nodes = (
"641 0 LINE",
"641 714 LINE",
"571 714 LINE",
"571 0 LINE"
);
},
{
closed = 1;
nodes = (
"339 334 LINE",
"587 399 LINE",
"578 461 LINE",
"313 389 LINE"
);
}
);
width = 722;
}
);
leftKerningGroup = "iz-tangsa";
leftMetricsKey = "iz-tangsa";
rightMetricsKey = "oz-tangsa";
unicode = 16AB2;
script = tangsa;
category = Letter;
subCategory = Other;
},
{
glyphname = "nha-tangsa";
lastChange = "2022-01-07 12:35:11 +0000";
layers = (
{
layerId = "9FF96064-8718-4A86-A5C8-73C592101F67";
paths = (
{
closed = 1;
nodes = (
"81 64 OFFCURVE",
"157 -10 OFFCURVE",
"255 -10 CURVE SMOOTH",
"364 -10 OFFCURVE",
"435 71 OFFCURVE",
"435 181 CURVE SMOOTH",
"435 288 OFFCURVE",
"353 370 OFFCURVE",
"253 370 CURVE SMOOTH",
"199 370 OFFCURVE",
"153 348 OFFCURVE",
"124 312 CURVE",
"139 245 LINE",
"166 279 OFFCURVE",
"208 299 OFFCURVE",
"254 299 CURVE SMOOTH",
"323 299 OFFCURVE",
"368 250 OFFCURVE",
"368 183 CURVE SMOOTH",
"368 115 OFFCURVE",
"317 66 OFFCURVE",
"251 66 CURVE SMOOTH",
"192 66 OFFCURVE",
"151 103 OFFCURVE",
"151 177 CURVE SMOOTH",
"151 714 LINE",
"81 714 LINE",
"81 181 LINE SMOOTH"
);
}
);
width = 475;
},
{
layerId = "134B12F2-BF5D-48E3-8003-C7502B438C7E";
paths = (
{
closed = 1;
nodes = (
"64 71 OFFCURVE",
"156 -10 OFFCURVE",
"273 -10 CURVE SMOOTH",
"389 -10 OFFCURVE",
"464 75 OFFCURVE",
"464 192 CURVE SMOOTH",
"464 305 OFFCURVE",
"376 393 OFFCURVE",
"275 393 CURVE SMOOTH",
"209 393 OFFCURVE",
"155 362 OFFCURVE",
"117 324 CURVE",
"142 208 LINE",
"181 248 OFFCURVE",
"223 274 OFFCURVE",
"265 274 CURVE SMOOTH",
"317 274 OFFCURVE",
"351 239 OFFCURVE",
"351 194 CURVE SMOOTH",
"351 147 OFFCURVE",
"316 115 OFFCURVE",
"269 115 CURVE SMOOTH",
"223 115 OFFCURVE",
"188 148 OFFCURVE",
"188 210 CURVE SMOOTH",
"188 714 LINE",
"64 714 LINE",
"64 218 LINE SMOOTH"
);
}
);
width = 495;
}
);
leftKerningGroup = "az-tangsa";
leftMetricsKey = "=|oz-tangsa";
rightMetricsKey = "=|oz-tangsa";
unicode = 16AB3;
script = tangsa;
category = Letter;
subCategory = Other;
},
{
glyphname = "sha-tangsa";
lastChange = "2022-01-07 11:21:35 +0000";
layers = (
{
components = (
{
name = "sa-tangsa";
transform = "{1, 0, 0, 1, 7, 0}";
}
);
layerId = "9FF96064-8718-4A86-A5C8-73C592101F67";
paths = (
{
closed = 1;
nodes = (
"305 379 LINE",
"475 440 LINE",
"451 500 LINE",
"280 430 LINE"
);
}
);
width = 522;
},
{
components = (
{
name = "sa-tangsa";
transform = "{1, 0, 0, 1, 2, 0}";
}
);
layerId = "134B12F2-BF5D-48E3-8003-C7502B438C7E";
paths = (
{
closed = 1;
nodes = (
"316 333 LINE",
"533 403 LINE",
"495 518 LINE",
"275 436 LINE"
);
}
);
width = 583;
}
);
leftMetricsKey = "oc-tangsa";
unicode = 16AB4;
script = tangsa;
category = Letter;
subCategory = Other;
},
{
glyphname = "ca-tangsa";
lastChange = "2022-01-07 13:07:32 +0000";
layers = (
{
layerId = "9FF96064-8718-4A86-A5C8-73C592101F67";
paths = (
{
closed = 1;
nodes = (
"39 489 OFFCURVE",
"133 422 OFFCURVE",
"225 422 CURVE SMOOTH",
"292 422 OFFCURVE",
"343 463 OFFCURVE",
"343 532 CURVE SMOOTH",
"343 592 OFFCURVE",
"300 634 OFFCURVE",
"241 634 CURVE SMOOTH",
"147 634 OFFCURVE",
"102 533 OFFCURVE",
"102 426 CURVE SMOOTH",
"102 0 LINE",
"172 0 LINE",
"172 439 LINE SMOOTH",
"172 490 OFFCURVE",
"186 568 OFFCURVE",
"242 568 CURVE SMOOTH",
"268 568 OFFCURVE",
"281 549 OFFCURVE",
"281 532 CURVE SMOOTH",
"281 505 OFFCURVE",
"254 486 OFFCURVE",
"226 486 CURVE SMOOTH",
"159 486 OFFCURVE",
"106 535 OFFCURVE",
"106 590 CURVE SMOOTH",
"106 629 OFFCURVE",
"131 665 OFFCURVE",
"156 693 CURVE",
"92 725 LINE",
"64 695 OFFCURVE",
"39 643 OFFCURVE",
"39 593 CURVE SMOOTH"
);
},
{
closed = 1;
nodes = (
"172 162 LINE",
"180 239 OFFCURVE",
"239 308 OFFCURVE",
"322 308 CURVE SMOOTH",
"392 308 OFFCURVE",
"431 258 OFFCURVE",
"431 181 CURVE SMOOTH",
"431 120 OFFCURVE",
"405 47 OFFCURVE",
"384 9 CURVE",
"463 -11 LINE",
"486 38 OFFCURVE",
"504 107 OFFCURVE",
"504 170 CURVE SMOOTH",
"504 290 OFFCURVE",
"443 384 OFFCURVE",
"321 384 CURVE SMOOTH",
"221 384 OFFCURVE",
"144 315 OFFCURVE",
"124 209 CURVE"
);
}
);
width = 557;
},
{
layerId = "134B12F2-BF5D-48E3-8003-C7502B438C7E";
paths = (
{
closed = 1;
nodes = (
"53 499 OFFCURVE",
"140 401 OFFCURVE",
"249 401 CURVE SMOOTH",
"328 401 OFFCURVE",
"377 449 OFFCURVE",
"377 526 CURVE SMOOTH",
"377 594 OFFCURVE",
"325 642 OFFCURVE",
"254 642 CURVE SMOOTH",
"154 642 OFFCURVE",
"95 521 OFFCURVE",
"95 411 CURVE SMOOTH",
"95 0 LINE",
"209 0 LINE",
"209 445 LINE SMOOTH",
"209 506 OFFCURVE",
"218 559 OFFCURVE",
"260 559 CURVE SMOOTH",
"284 559 OFFCURVE",
"297 541 OFFCURVE",
"297 522 CURVE SMOOTH",
"297 500 OFFCURVE",
"282 485 OFFCURVE",
"253 485 CURVE SMOOTH",
"204 485 OFFCURVE",
"149 538 OFFCURVE",
"149 592 CURVE SMOOTH",
"149 629 OFFCURVE",
"169 657 OFFCURVE",
"186 681 CURVE",
"94 725 LINE",
"70 694 OFFCURVE",
"53 655 OFFCURVE",
"53 608 CURVE SMOOTH"
);
},
{
closed = 1;
nodes = (
"209 124 LINE",
"218 194 OFFCURVE",
"271 259 OFFCURVE",
"339 259 CURVE SMOOTH",
"392 259 OFFCURVE",
"421 224 OFFCURVE",
"421 173 CURVE SMOOTH",
"421 118 OFFCURVE",
"391 55 OFFCURVE",
"366 15 CURVE",
"495 -14 LINE",
"525 38 OFFCURVE",
"548 100 OFFCURVE",
"548 162 CURVE SMOOTH",
"548 286 OFFCURVE",
"470 382 OFFCURVE",
"343 382 CURVE SMOOTH",
"238 382 OFFCURVE",
"165 315 OFFCURVE",
"145 211 CURVE"
);
}
);
width = 593;
}
);
rightKerningGroup = "mx-tangsa";
rightMetricsKey = "aq-tangsa";
unicode = 16AB5;
script = tangsa;
category = Letter;
subCategory = Other;
},
{
glyphname = "tsa-tangsa";
lastChange = "2022-01-07 13:31:33 +0000";
layers = (
{
layerId = "9FF96064-8718-4A86-A5C8-73C592101F67";
paths = (
{
closed = 1;
nodes = (
"155 0 LINE",
"155 714 LINE",
"85 714 LINE",
"85 0 LINE"
);
},
{
closed = 1;
nodes = (
"247 514 LINE",
"242 499 OFFCURVE",
"240 484 OFFCURVE",
"240 470 CURVE SMOOTH",
"240 385 OFFCURVE",
"280 345 OFFCURVE",
"347 345 CURVE SMOOTH",
"418 345 OFFCURVE",
"467 394 OFFCURVE",
"467 472 CURVE SMOOTH",
"467 544 OFFCURVE",
"427 591 OFFCURVE",
"349 591 CURVE SMOOTH",
"187 591 OFFCURVE",
"96 365 OFFCURVE",
"96 0 CURVE",
"154 0 LINE",
"154 292 OFFCURVE",
"234 528 OFFCURVE",
"344 528 CURVE SMOOTH",
"387 528 OFFCURVE",
"404 505 OFFCURVE",
"404 474 CURVE SMOOTH",
"404 437 OFFCURVE",
"377 412 OFFCURVE",
"345 412 CURVE SMOOTH",
"312 412 OFFCURVE",
"296 438 OFFCURVE",
"296 477 CURVE SMOOTH",
"296 507 OFFCURVE",
"306 533 OFFCURVE",
"323 557 CURVE"
);
}
);
width = 488;
},
{
layerId = "134B12F2-BF5D-48E3-8003-C7502B438C7E";
paths = (
{
closed = 1;
nodes = (
"191 0 LINE",
"191 714 LINE",
"67 714 LINE",
"67 0 LINE"
);
},
{
closed = 1;
nodes = (
"241 528 LINE",
"233 505 OFFCURVE",
"230 486 OFFCURVE",
"230 471 CURVE SMOOTH",
"230 383 OFFCURVE",
"278 326 OFFCURVE",
"352 326 CURVE SMOOTH",
"433 326 OFFCURVE",
"488 386 OFFCURVE",
"488 468 CURVE SMOOTH",
"488 552 OFFCURVE",
"431 604 OFFCURVE",
"358 604 CURVE SMOOTH",
"215 604 OFFCURVE",
"95 373 OFFCURVE",
"95 0 CURVE",
"190 0 LINE",
"190 282 OFFCURVE",
"253 510 OFFCURVE",
"351 510 CURVE SMOOTH",
"379 510 OFFCURVE",
"396 494 OFFCURVE",
"396 470 CURVE SMOOTH",
"396 442 OFFCURVE",
"376 419 OFFCURVE",
"350 419 CURVE SMOOTH",
"322 419 OFFCURVE",
"308 442 OFFCURVE",
"308 472 CURVE SMOOTH",
"308 492 OFFCURVE",
"314 518 OFFCURVE",
"323 536 CURVE"
);
}
);
width = 506;
}
);
leftKerningGroup = "ac-tangsa";
leftMetricsKey = "az-tangsa";
unicode = 16AB6;
script = tangsa;
category = Letter;
subCategory = Other;
},
{
glyphname = "gha-tangsa";
lastChange = "2022-01-07 11:21:35 +0000";
layers = (
{
layerId = "9FF96064-8718-4A86-A5C8-73C592101F67";
paths = (
{
closed = 1;
nodes = (
"151 0 LINE",
"151 527 LINE SMOOTH",
"151 624 OFFCURVE",
"185 646 OFFCURVE",
"236 646 CURVE SMOOTH",
"304 646 OFFCURVE",
"319 617 OFFCURVE",
"319 515 CURVE SMOOTH",
"319 197 LINE SMOOTH",
"319 62 OFFCURVE",
"391 -10 OFFCURVE",
"500 -10 CURVE SMOOTH",
"658 -10 OFFCURVE",
"782 165 OFFCURVE",
"782 338 CURVE SMOOTH",
"782 453 OFFCURVE",
"730 547 OFFCURVE",
"636 547 CURVE SMOOTH",
"554 547 OFFCURVE",
"501 477 OFFCURVE",
"501 372 CURVE SMOOTH",
"501 209 OFFCURVE",
"621 83 OFFCURVE",
"752 -14 CURVE",
"796 43 LINE",
"696 106 OFFCURVE",
"569 227 OFFCURVE",
"569 365 CURVE SMOOTH",
"569 435 OFFCURVE",
"600 473 OFFCURVE",
"642 473 CURVE SMOOTH",
"690 473 OFFCURVE",
"715 421 OFFCURVE",
"715 344 CURVE SMOOTH",
"715 198 OFFCURVE",
"631 68 OFFCURVE",
"500 68 CURVE SMOOTH",
"427 68 OFFCURVE",
"389 100 OFFCURVE",
"389 193 CURVE SMOOTH",
"389 525 LINE SMOOTH",
"389 649 OFFCURVE",
"344 724 OFFCURVE",
"237 724 CURVE SMOOTH",
"121 724 OFFCURVE",
"81 643 OFFCURVE",
"81 533 CURVE SMOOTH",
"81 0 LINE"
);
}
);
width = 849;
},
{
layerId = "134B12F2-BF5D-48E3-8003-C7502B438C7E";
paths = (
{
closed = 1;
nodes = (
"188 0 LINE",
"188 510 LINE SMOOTH",
"188 572 OFFCURVE",
"215 588 OFFCURVE",
"254 588 CURVE SMOOTH",
"307 588 OFFCURVE",
"319 566 OFFCURVE",
"319 500 CURVE SMOOTH",
"319 212 LINE SMOOTH",
"319 66 OFFCURVE",
"407 -10 OFFCURVE",
"541 -10 CURVE SMOOTH",
"719 -10 OFFCURVE",
"865 174 OFFCURVE",
"865 340 CURVE SMOOTH",
"865 463 OFFCURVE",
"800 562 OFFCURVE",
"680 562 CURVE SMOOTH",
"574 562 OFFCURVE",
"506 487 OFFCURVE",
"506 370 CURVE SMOOTH",
"506 198 OFFCURVE",
"670 77 OFFCURVE",
"824 -14 CURVE",
"895 94 LINE",
"757 165 OFFCURVE",
"627 253 OFFCURVE",
"627 365 CURVE SMOOTH",
"627 405 OFFCURVE",
"652 430 OFFCURVE",
"685 430 CURVE SMOOTH",
"723 430 OFFCURVE",
"743 394 OFFCURVE",
"743 346 CURVE SMOOTH",
"743 228 OFFCURVE",
"663 126 OFFCURVE",
"541 126 CURVE SMOOTH",
"478 126 OFFCURVE",
"443 148 OFFCURVE",
"443 208 CURVE SMOOTH",
"443 510 LINE SMOOTH",
"443 644 OFFCURVE",
"388 724 OFFCURVE",
"255 724 CURVE SMOOTH",
"114 724 OFFCURVE",
"64 637 OFFCURVE",
"64 516 CURVE SMOOTH",
"64 0 LINE"
);
}
);
width = 931;
}
);
leftKerningGroup = "ac-tangsa";
leftMetricsKey = "=|oz-tangsa";
rightKerningGroup = "pa-tangsa";
unicode = 16AB7;
script = tangsa;
category = Letter;
subCategory = Other;
},
{
glyphname = "htta-tangsa";
lastChange = "2022-01-07 13:31:46 +0000";
layers = (
{
components = (
{
name = _part.loop1;
transform = "{1, 0, 0, -1, -74, 714}";
},
{
name = _part.loop1;
transform = "{-1, 0, 0, 1, 731, 0}";
}
);
layerId = "9FF96064-8718-4A86-A5C8-73C592101F67";
paths = (
{
closed = 1;
nodes = (
"435 391 LINE",
"426 467 LINE",
"251 344 LINE",
"251 262 LINE"
);
},
{
closed = 1;
nodes = (
"259 361 LINE",
"259 714 LINE",
"189 714 LINE",
"189 361 LINE"
);
},
{
closed = 1;
nodes = (
"398 62 OFFCURVE",
"474 -10 OFFCURVE",
"602 -10 CURVE SMOOTH",
"785 -10 OFFCURVE",
"924 165 OFFCURVE",
"924 338 CURVE SMOOTH",
"924 453 OFFCURVE",
"872 547 OFFCURVE",
"778 547 CURVE SMOOTH",
"696 547 OFFCURVE",
"643 477 OFFCURVE",
"643 372 CURVE SMOOTH",
"643 209 OFFCURVE",
"763 83 OFFCURVE",
"894 -14 CURVE",
"938 43 LINE",
"838 106 OFFCURVE",
"711 227 OFFCURVE",
"711 365 CURVE SMOOTH",
"711 435 OFFCURVE",
"742 473 OFFCURVE",
"784 473 CURVE SMOOTH",
"832 473 OFFCURVE",
"857 421 OFFCURVE",
"857 344 CURVE SMOOTH",
"857 198 OFFCURVE",
"759 68 OFFCURVE",
"602 68 CURVE SMOOTH",
"513 68 OFFCURVE",
"468 100 OFFCURVE",
"468 193 CURVE SMOOTH",
"468 360 LINE",
"398 360 LINE",
"398 197 LINE SMOOTH"
);
}
);
width = 991;
},
{
components = (
{
name = _part.loop1;
transform = "{1, 0, 0, -1, -42, 714}";
},
{
name = _part.loop1;
transform = "{-1, 0, 0, 1, 804, 0}";
}
);
layerId = "134B12F2-BF5D-48E3-8003-C7502B438C7E";
paths = (
{
closed = 1;
nodes = (
"528 376 LINE",
"513 487 LINE",
"312 373 LINE",
"312 260 LINE"
);
},
{
closed = 1;
nodes = (
"335 373 LINE",
"335 714 LINE",
"211 714 LINE",
"211 373 LINE"
);
},
{
closed = 1;
nodes = (
"427 75 OFFCURVE",
"541 -10 OFFCURVE",
"692 -10 CURVE SMOOTH",
"905 -10 OFFCURVE",
"1053 162 OFFCURVE",
"1053 325 CURVE SMOOTH",
"1053 442 OFFCURVE",
"988 546 OFFCURVE",
"868 546 CURVE SMOOTH",
"762 546 OFFCURVE",
"694 469 OFFCURVE",
"694 350 CURVE SMOOTH",
"694 198 OFFCURVE",
"858 77 OFFCURVE",
"1012 -14 CURVE",
"1083 94 LINE",
"945 165 OFFCURVE",
"815 253 OFFCURVE",
"815 345 CURVE SMOOTH",
"815 387 OFFCURVE",
"840 414 OFFCURVE",
"873 414 CURVE SMOOTH",
"911 414 OFFCURVE",
"931 377 OFFCURVE",
"931 324 CURVE SMOOTH",
"931 221 OFFCURVE",
"849 126 OFFCURVE",
"694 126 CURVE SMOOTH",
"618 126 OFFCURVE",
"551 148 OFFCURVE",
"551 238 CURVE SMOOTH",
"551 360 LINE",
"427 360 LINE",
"427 242 LINE SMOOTH"
);
}
);
width = 1119;
}
);
rightKerningGroup = "pa-tangsa";
rightMetricsKey = "gha-tangsa";
unicode = 16AB8;
script = tangsa;
category = Letter;
subCategory = Other;
},
{
glyphname = "tha-tangsa";
lastChange = "2022-01-07 13:57:59 +0000";
layers = (
{
layerId = "9FF96064-8718-4A86-A5C8-73C592101F67";
paths = (
{
closed = 1;
nodes = (
"444 68 OFFCURVE",
"358 291 OFFCURVE",
"358 469 CURVE SMOOTH",
"358 579 OFFCURVE",
"392 648 OFFCURVE",
"458 648 CURVE SMOOTH",
"528 648 OFFCURVE",
"562 584 OFFCURVE",
"562 468 CURVE SMOOTH",
"562 296 OFFCURVE",
"473 68 OFFCURVE",
"286 68 CURVE SMOOTH",
"221 68 OFFCURVE",
"155 95 OFFCURVE",
"155 245 CURVE SMOOTH",
"155 714 LINE",
"85 714 LINE",
"85 232 LINE SMOOTH",
"85 32 OFFCURVE",
"186 -10 OFFCURVE",
"286 -10 CURVE SMOOTH",
"510 -10 OFFCURVE",
"634 267 OFFCURVE",
"634 468 CURVE SMOOTH",
"634 613 OFFCURVE",
"572 726 OFFCURVE",
"451 726 CURVE SMOOTH",
"344 726 OFFCURVE",
"286 627 OFFCURVE",
"286 475 CURVE SMOOTH",
"286 253 OFFCURVE",
"406 -10 OFFCURVE",
"675 -10 CURVE SMOOTH",
"891 -10 OFFCURVE",
"987 160 OFFCURVE",
"987 332 CURVE SMOOTH",
"987 458 OFFCURVE",
"933 547 OFFCURVE",
"839 547 CURVE SMOOTH",
"757 547 OFFCURVE",
"704 477 OFFCURVE",
"704 375 CURVE SMOOTH",
"704 284 OFFCURVE",
"747 188 OFFCURVE",
"827 102 CURVE SMOOTH",
"874 52 OFFCURVE",
"911 24 OFFCURVE",
"979 -14 CURVE",
"1023 43 LINE",
"978 65 OFFCURVE",
"931 92 OFFCURVE",
"881 142 CURVE SMOOTH",
"830 194 OFFCURVE",
"772 272 OFFCURVE",
"772 367 CURVE SMOOTH",
"772 435 OFFCURVE",
"803 473 OFFCURVE",
"845 473 CURVE SMOOTH",
"893 473 OFFCURVE",
"920 424 OFFCURVE",
"920 339 CURVE SMOOTH",
"920 191 OFFCURVE",
"837 68 OFFCURVE",
"675 68 CURVE SMOOTH"
);
}
);
width = 1076;
},
{
layerId = "134B12F2-BF5D-48E3-8003-C7502B438C7E";
paths = (
{
closed = 1;
nodes = (
"513 126 OFFCURVE",
"428 310 OFFCURVE",
"428 459 CURVE SMOOTH",
"428 538 OFFCURVE",
"454 588 OFFCURVE",
"505 588 CURVE SMOOTH",
"559 588 OFFCURVE",
"586 541 OFFCURVE",
"586 458 CURVE SMOOTH",
"586 315 OFFCURVE",
"499 126 OFFCURVE",
"327 126 CURVE SMOOTH",
"253 126 OFFCURVE",
"198 154 OFFCURVE",
"198 265 CURVE SMOOTH",
"198 714 LINE",
"67 714 LINE",
"67 267 LINE SMOOTH",
"67 43 OFFCURVE",
"203 -10 OFFCURVE",
"327 -10 CURVE SMOOTH",
"575 -10 OFFCURVE",
"713 262 OFFCURVE",
"713 458 CURVE SMOOTH",
"713 607 OFFCURVE",
"641 724 OFFCURVE",
"499 724 CURVE SMOOTH",
"370 724 OFFCURVE",
"301 621 OFFCURVE",
"301 463 CURVE SMOOTH",
"301 256 OFFCURVE",
"442 -10 OFFCURVE",
"745 -10 CURVE SMOOTH",
"1000 -10 OFFCURVE",
"1122 189 OFFCURVE",
"1122 334 CURVE SMOOTH",
"1122 468 OFFCURVE",
"1052 562 OFFCURVE",
"932 562 CURVE SMOOTH",
"828 562 OFFCURVE",
"763 487 OFFCURVE",
"763 373 CURVE SMOOTH",
"763 290 OFFCURVE",
"815 196 OFFCURVE",
"904 109 CURVE SMOOTH",
"956 59 OFFCURVE",
"1010 23 OFFCURVE",
"1089 -17 CURVE",
"1165 88 LINE",
"1105 117 OFFCURVE",
"1040 150 OFFCURVE",
"997 188 CURVE SMOOTH",
"944 235 OFFCURVE",
"884 295 OFFCURVE",
"884 365 CURVE SMOOTH",
"884 404 OFFCURVE",
"905 430 OFFCURVE",
"939 430 CURVE SMOOTH",
"976 430 OFFCURVE",
"1000 398 OFFCURVE",
"1000 341 CURVE SMOOTH",
"1000 225 OFFCURVE",
"926 126 OFFCURVE",
"745 126 CURVE SMOOTH"
);
}
);
width = 1201;
}
);
leftMetricsKey = "ex-tangsa";
rightKerningGroup = "pa-tangsa";
rightMetricsKey = "gha-tangsa";
unicode = 16AB9;
script = tangsa;
category = Letter;
subCategory = Other;
},
{
glyphname = "fa-tangsa";
lastChange = "2022-01-07 13:36:44 +0000";
layers = (
{
components = (
{
name = _part.single;
transform = "{1, 0, 0, 1, 2, 6}";
},
{
name = _part.loop3;
transform = "{1, 0, 0, 1, 30, 0}";
}
);
layerId = "9FF96064-8718-4A86-A5C8-73C592101F67";
paths = (
{
closed = 1;
nodes = (
"283 468 LINE",
"434 475 LINE",
"434 539 LINE",
"70 546 LINE",
"70 468 LINE"
);
}
);
width = 515;
},
{
components = (
{
name = _part.single;
transform = "{1, 0, 0, 1, -35, 0}";
},
{
name = _part.loop3;
transform = "{1, 0, 0, 1, 5, 0}";
}
);
layerId = "134B12F2-BF5D-48E3-8003-C7502B438C7E";
paths = (
{
closed = 1;
nodes = (
"278 431 LINE",
"497 448 LINE",
"497 537 LINE",
"70 546 LINE",
"70 431 LINE"
);
}
);
width = 561;
}
);
rightMetricsKey = "oz-tangsa";
unicode = 16ABB;
script = tangsa;
category = Letter;
subCategory = Other;
},
{
glyphname = "dha-tangsa";
lastChange = "2022-01-07 13:36:53 +0000";
layers = (
{
components = (
{
name = _part.double;
transform = "{1, 0, 0, -1, -18, 1321}";
}
);
layerId = "9FF96064-8718-4A86-A5C8-73C592101F67";
paths = (
{
closed = 1;
nodes = (
"269 221 LINE",
"401 260 LINE",
"385 317 LINE",
"257 279 LINE"
);
},
{
closed = 1;
nodes = (
"290 384 LINE SMOOTH",
"290 476 OFFCURVE",
"241 536 OFFCURVE",
"159 536 CURVE SMOOTH",
"111 536 OFFCURVE",
"73 515 OFFCURVE",
"42 473 CURVE",
"91 417 LINE",
"117 448 OFFCURVE",
"143 458 OFFCURVE",
"163 458 CURVE SMOOTH",
"194 458 OFFCURVE",
"220 435 OFFCURVE",
"220 389 CURVE SMOOTH",
"220 128 LINE SMOOTH",
"220 83 OFFCURVE",
"205 57 OFFCURVE",
"174 57 CURVE SMOOTH",
"143 57 OFFCURVE",
"116 82 OFFCURVE",
"116 120 CURVE SMOOTH",
"116 188 OFFCURVE",
"197 205 OFFCURVE",
"257 218 CURVE",
"249 279 LINE",
"140 246 OFFCURVE",
"53 224 OFFCURVE",
"53 117 CURVE SMOOTH",
"53 39 OFFCURVE",
"102 -10 OFFCURVE",
"173 -10 CURVE SMOOTH",
"244 -10 OFFCURVE",
"290 38 OFFCURVE",
"290 123 CURVE SMOOTH"
);
},
{
closed = 1;
nodes = (
"377 142 LINE SMOOTH",
"377 50 OFFCURVE",
"426 -10 OFFCURVE",
"508 -10 CURVE SMOOTH",
"556 -10 OFFCURVE",
"594 11 OFFCURVE",
"625 53 CURVE",
"576 109 LINE",
"550 78 OFFCURVE",
"524 68 OFFCURVE",
"504 68 CURVE SMOOTH",
"473 68 OFFCURVE",
"447 91 OFFCURVE",
"447 137 CURVE SMOOTH",
"447 398 LINE SMOOTH",
"447 443 OFFCURVE",
"470 469 OFFCURVE",
"504 469 CURVE SMOOTH",
"530 469 OFFCURVE",
"549 453 OFFCURVE",
"549 421 CURVE SMOOTH",
"549 360 OFFCURVE",
"473 338 OFFCURVE",
"410 326 CURVE",
"418 263 LINE",
"527 288 OFFCURVE",
"612 322 OFFCURVE",
"612 417 CURVE SMOOTH",
"612 488 OFFCURVE",
"565 536 OFFCURVE",
"494 536 CURVE SMOOTH",
"423 536 OFFCURVE",
"377 488 OFFCURVE",
"377 403 CURVE SMOOTH"
);
}
);
width = 647;
},
{
components = (
{
name = _part.double;
transform = "{1, 0, 0, -1, -37, 1338}";
}
);
layerId = "134B12F2-BF5D-48E3-8003-C7502B438C7E";
paths = (
{
closed = 1;
nodes = (
"314 210 LINE",
"430 238 LINE",
"409 331 LINE",
"294 303 LINE"
);
},
{
closed = 1;
nodes = (
"334 382 LINE SMOOTH",
"334 482 OFFCURVE",
"278 546 OFFCURVE",
"189 546 CURVE SMOOTH",
"124 546 OFFCURVE",
"72 519 OFFCURVE",
"31 466 CURVE",
"103 382 LINE",
"137 420 OFFCURVE",
"161 433 OFFCURVE",
"176 433 CURVE SMOOTH",
"194 433 OFFCURVE",
"210 417 OFFCURVE",
"210 387 CURVE SMOOTH",
"210 140 LINE SMOOTH",
"210 104 OFFCURVE",
"197 86 OFFCURVE",
"175 86 CURVE SMOOTH",
"152 86 OFFCURVE",
"137 103 OFFCURVE",
"137 124 CURVE SMOOTH",
"137 174 OFFCURVE",
"215 192 OFFCURVE",
"271 199 CURVE",
"257 299 LINE",
"142 267 OFFCURVE",
"48 223 OFFCURVE",
"48 122 CURVE SMOOTH",
"48 40 OFFCURVE",
"102 -10 OFFCURVE",
"183 -10 CURVE SMOOTH",
"273 -10 OFFCURVE",
"334 42 OFFCURVE",
"334 135 CURVE SMOOTH"
);
},
{
closed = 1;
nodes = (
"392 154 LINE SMOOTH",
"392 54 OFFCURVE",
"448 -10 OFFCURVE",
"537 -10 CURVE SMOOTH",
"602 -10 OFFCURVE",
"654 17 OFFCURVE",
"695 70 CURVE",
"623 154 LINE",
"589 116 OFFCURVE",
"565 103 OFFCURVE",
"550 103 CURVE SMOOTH",
"532 103 OFFCURVE",
"516 119 OFFCURVE",
"516 149 CURVE SMOOTH",
"516 396 LINE SMOOTH",
"516 432 OFFCURVE",
"530 450 OFFCURVE",
"552 450 CURVE SMOOTH",
"575 450 OFFCURVE",
"589 433 OFFCURVE",
"589 412 CURVE SMOOTH",
"589 362 OFFCURVE",
"511 344 OFFCURVE",
"455 341 CURVE",
"469 241 LINE",
"584 269 OFFCURVE",
"678 313 OFFCURVE",
"678 414 CURVE SMOOTH",
"678 496 OFFCURVE",
"624 546 OFFCURVE",
"543 546 CURVE SMOOTH",
"453 546 OFFCURVE",
"392 494 OFFCURVE",
"392 401 CURVE SMOOTH"
);
}
);
width = 725;
}
);
unicode = 16ABC;
script = tangsa;
category = Letter;
subCategory = Other;
},
{
glyphname = "cha-tangsa";
lastChange = "2022-01-07 11:21:35 +0000";
layers = (
{
components = (
{
name = _part.double;
transform = "{1, 0, 0, 1, -95, 1}";
}
);
layerId = "134B12F2-BF5D-48E3-8003-C7502B438C7E";
paths = (
{
closed = 1;
nodes = (
"247 54 LINE",
"255 116 OFFCURVE",
"302 173 OFFCURVE",
"359 173 CURVE SMOOTH",
"397 173 OFFCURVE",
"416 152 OFFCURVE",
"416 124 CURVE SMOOTH",
"416 90 OFFCURVE",
"394 47 OFFCURVE",
"367 10 CURVE",
"502 -12 LINE",
"524 29 OFFCURVE",
"543 76 OFFCURVE",
"543 118 CURVE SMOOTH",
"543 218 OFFCURVE",
"472 283 OFFCURVE",
"368 283 CURVE SMOOTH",
"281 283 OFFCURVE",
"208 224 OFFCURVE",
"181 116 CURVE"
);
},
{
closed = 1;
nodes = (
"43 495 LINE",
"82 377 OFFCURVE",
"187 301 OFFCURVE",
"278 301 CURVE SMOOTH",
"353 301 OFFCURVE",
"410 346 OFFCURVE",
"410 418 CURVE SMOOTH",
"410 486 OFFCURVE",
"356 534 OFFCURVE",
"289 534 CURVE SMOOTH",
"175 534 OFFCURVE",
"124 429 OFFCURVE",
"124 319 CURVE SMOOTH",
"124 0 LINE",
"248 0 LINE",
"248 331 LINE SMOOTH",
"248 377 OFFCURVE",
"258 450 OFFCURVE",
"296 450 CURVE SMOOTH",
"319 450 OFFCURVE",
"328 433 OFFCURVE",
"328 418 CURVE SMOOTH",
"328 394 OFFCURVE",
"305 380 OFFCURVE",
"279 380 CURVE SMOOTH",
"226 380 OFFCURVE",
"170 431 OFFCURVE",
"139 546 CURVE"
);
}
);
width = 585;
},
{
components = (
{
name = _part.double;
transform = "{1, 0, 0, 1, -82, 8}";
}
);
layerId = "9FF96064-8718-4A86-A5C8-73C592101F67";
paths = (
{
closed = 1;
nodes = (
"208 62 LINE",
"215 139 OFFCURVE",
"273 209 OFFCURVE",
"345 209 CURVE SMOOTH",
"393 209 OFFCURVE",
"428 175 OFFCURVE",
"428 128 CURVE SMOOTH",
"428 86 OFFCURVE",
"406 37 OFFCURVE",
"389 11 CURVE",
"469 -9 LINE",
"487 25 OFFCURVE",
"504 75 OFFCURVE",
"504 119 CURVE SMOOTH",
"504 213 OFFCURVE",
"443 284 OFFCURVE",
"344 284 CURVE SMOOTH",
"243 284 OFFCURVE",
"176 203 OFFCURVE",
"160 109 CURVE"
);
},
{
closed = 1;
nodes = (
"34 518 LINE",
"71 392 OFFCURVE",
"171 310 OFFCURVE",
"261 310 CURVE SMOOTH",
"328 310 OFFCURVE",
"379 353 OFFCURVE",
"379 422 CURVE SMOOTH",
"379 482 OFFCURVE",
"336 524 OFFCURVE",
"277 524 CURVE SMOOTH",
"183 524 OFFCURVE",
"138 423 OFFCURVE",
"138 339 CURVE SMOOTH",
"138 0 LINE",
"208 0 LINE",
"208 329 LINE SMOOTH",
"208 380 OFFCURVE",
"222 456 OFFCURVE",
"278 456 CURVE SMOOTH",
"304 456 OFFCURVE",
"315 439 OFFCURVE",
"315 422 CURVE SMOOTH",
"315 395 OFFCURVE",
"290 379 OFFCURVE",
"262 379 CURVE SMOOTH",
"194 379 OFFCURVE",
"138 430 OFFCURVE",
"98 547 CURVE"
);
}
);
width = 561;
}
);
unicode = 16ABD;
script = tangsa;
category = Letter;
subCategory = Other;
},
{
glyphname = "za-tangsa";
lastChange = "2022-01-07 11:21:35 +0000";
layers = (
{
components = (
{
name = _part.single;
transform = "{-1, 0, 0, -1, 524, 1322}";
},
{
name = _part.loop4;
transform = "{1, 0, 0, 1, 2, 0}";
}
);
layerId = "9FF96064-8718-4A86-A5C8-73C592101F67";
paths = (
{
closed = 1;
nodes = (
"467 386 LINE",
"467 473 LINE",
"397 473 LINE",
"397 386 LINE"
);
},
{
closed = 1;
nodes = (
"355 462 LINE",
"467 468 LINE",
"467 532 LINE",
"78 541 LINE",
"78 462 LINE"
);
}
);
width = 544;
},
{
components = (
{
name = _part.single;
transform = "{-1, 0, 0, -1, 633, 1338}";
},
{
name = _part.loop4;
transform = "{1, 0, 0, 1, 8, 0}";
}
);
layerId = "134B12F2-BF5D-48E3-8003-C7502B438C7E";
paths = (
{
closed = 1;
nodes = (
"550 365 LINE",
"550 486 LINE",
"426 486 LINE",
"426 365 LINE"
);
},
{
closed = 1;
nodes = (
"356 436 LINE",
"550 443 LINE",
"550 542 LINE",
"73 551 LINE",
"73 436 LINE"
);
}
);
width = 611;
}
);
unicode = 16ABE;
script = tangsa;
category = Letter;
subCategory = Other;
},
{
glyphname = "zero-tangsa";
lastChange = "2022-01-07 11:21:35 +0000";
layers = (
{
layerId = "9FF96064-8718-4A86-A5C8-73C592101F67";
paths = (
{
closed = 1;
nodes = (
"55 137 OFFCURVE",
"112 -10 OFFCURVE",
"276 -10 CURVE SMOOTH",
"431 -10 OFFCURVE",
"495 137 OFFCURVE",
"495 358 CURVE SMOOTH",
"495 580 OFFCURVE",
"431 724 OFFCURVE",
"277 724 CURVE SMOOTH",
"112 724 OFFCURVE",
"55 580 OFFCURVE",
"55 359 CURVE SMOOTH"
);
},
{
closed = 1;
nodes = (
"127 540 OFFCURVE",
"155 646 OFFCURVE",
"277 646 CURVE SMOOTH",
"397 646 OFFCURVE",
"423 540 OFFCURVE",
"423 358 CURVE SMOOTH",
"423 176 OFFCURVE",
"397 68 OFFCURVE",
"276 68 CURVE SMOOTH",
"155 68 OFFCURVE",
"127 176 OFFCURVE",
"127 358 CURVE SMOOTH"
);
},
{
closed = 1;
nodes = (
"303 32 LINE",
"303 701 LINE",
"251 701 LINE",
"251 32 LINE"
);
}
);
width = 545;
},
{
layerId = "134B12F2-BF5D-48E3-8003-C7502B438C7E";
paths = (
{
closed = 1;
nodes = (
"48 136 OFFCURVE",
"115 -10 OFFCURVE",
"307 -10 CURVE SMOOTH",
"488 -10 OFFCURVE",
"563 136 OFFCURVE",
"563 358 CURVE SMOOTH",
"563 581 OFFCURVE",
"488 724 OFFCURVE",
"308 724 CURVE SMOOTH",
"115 724 OFFCURVE",
"48 581 OFFCURVE",
"48 359 CURVE SMOOTH"
);
},
{
closed = 1;
nodes = (
"176 502 OFFCURVE",
"201 586 OFFCURVE",
"308 586 CURVE SMOOTH",
"413 586 OFFCURVE",
"436 502 OFFCURVE",
"436 358 CURVE SMOOTH",
"436 211 OFFCURVE",
"413 125 OFFCURVE",
"307 125 CURVE SMOOTH",
"201 125 OFFCURVE",
"176 211 OFFCURVE",
"176 358 CURVE SMOOTH"
);
},
{
closed = 1;
nodes = (
"348 30 LINE",
"348 702 LINE",
"267 702 LINE",
"267 30 LINE"
);
}
);
width = 603;
}
);
leftMetricsKey = "uix-tangsa";
unicode = 16AC0;
script = tangsa;
category = Number;
subCategory = "Decimal Digit";
},
{
glyphname = "one-tangsa";
lastChange = "2022-01-07 13:07:32 +0000";
layers = (
{
layerId = "9FF96064-8718-4A86-A5C8-73C592101F67";
paths = (
{
closed = 1;
nodes = (
"39 420 OFFCURVE",
"138 352 OFFCURVE",
"243 352 CURVE SMOOTH",
"267 352 OFFCURVE",
"292 355 OFFCURVE",
"316 359 CURVE",
"347 440 LINE",
"315 430 OFFCURVE",
"281 424 OFFCURVE",
"244 424 CURVE SMOOTH",
"170 424 OFFCURVE",
"106 461 OFFCURVE",
"106 531 CURVE SMOOTH",
"106 599 OFFCURVE",
"158 646 OFFCURVE",
"221 646 CURVE SMOOTH",
"283 646 OFFCURVE",
"330 610 OFFCURVE",
"330 516 CURVE SMOOTH",
"330 415 OFFCURVE",
"290 330 OFFCURVE",
"127 0 CURVE",
"212 0 LINE",
"366 324 OFFCURVE",
"400 411 OFFCURVE",
"400 524 CURVE SMOOTH",
"400 664 OFFCURVE",
"314 724 OFFCURVE",
"216 724 CURVE SMOOTH",
"117 724 OFFCURVE",
"39 654 OFFCURVE",
"39 546 CURVE SMOOTH"
);
}
);
width = 450;
},
{
layerId = "134B12F2-BF5D-48E3-8003-C7502B438C7E";
paths = (
{
closed = 1;
nodes = (
"44 395 OFFCURVE",
"148 324 OFFCURVE",
"278 324 CURVE SMOOTH",
"304 324 OFFCURVE",
"336 328 OFFCURVE",
"375 334 CURVE",
"388 473 LINE",
"340 454 OFFCURVE",
"302 446 OFFCURVE",
"272 446 CURVE SMOOTH",
"213 446 OFFCURVE",
"169 473 OFFCURVE",
"169 517 CURVE SMOOTH",
"169 557 OFFCURVE",
"207 588 OFFCURVE",
"256 588 CURVE SMOOTH",
"299 588 OFFCURVE",
"341 565 OFFCURVE",
"341 496 CURVE SMOOTH",
"341 439 OFFCURVE",
"285 316 OFFCURVE",
"109 0 CURVE",
"263 0 LINE",
"396 254 OFFCURVE",
"468 384 OFFCURVE",
"468 503 CURVE SMOOTH",
"468 638 OFFCURVE",
"368 724 OFFCURVE",
"251 724 CURVE SMOOTH",
"136 724 OFFCURVE",
"44 648 OFFCURVE",
"44 528 CURVE SMOOTH"
);
}
);
width = 515;
}
);
unicode = 16AC1;
script = tangsa;
category = Number;
subCategory = "Decimal Digit";
},
{
glyphname = "two-tangsa";
lastChange = "2022-01-07 11:21:35 +0000";
layers = (
{
layerId = "9FF96064-8718-4A86-A5C8-73C592101F67";
paths = (
{
closed = 1;
nodes = (
"155 0 LINE",
"155 714 LINE",
"85 714 LINE",
"85 0 LINE"
);
},
{
closed = 1;
nodes = (
"155 182 LINE",
"155 302 OFFCURVE",
"227 358 OFFCURVE",
"308 358 CURVE SMOOTH",
"415 358 OFFCURVE",
"428 264 OFFCURVE",
"428 187 CURVE SMOOTH",
"428 81 OFFCURVE",
"396 59 OFFCURVE",
"365 59 CURVE SMOOTH",
"337 59 OFFCURVE",
"314 77 OFFCURVE",
"314 113 CURVE SMOOTH",
"314 180 OFFCURVE",
"392 221 OFFCURVE",
"478 228 CURVE",
"447 291 LINE",
"341 275 OFFCURVE",
"245 221 OFFCURVE",
"245 116 CURVE SMOOTH",
"245 37 OFFCURVE",
"297 -10 OFFCURVE",
"370 -10 CURVE SMOOTH",
"444 -10 OFFCURVE",
"498 37 OFFCURVE",
"498 180 CURVE SMOOTH",
"498 291 OFFCURVE",
"462 434 OFFCURVE",
"306 434 CURVE SMOOTH",
"202 434 OFFCURVE",
"133 372 OFFCURVE",
"114 261 CURVE"
);
}
);
width = 539;
},
{
layerId = "134B12F2-BF5D-48E3-8003-C7502B438C7E";
paths = (
{
closed = 1;
nodes = (
"199 0 LINE",
"199 714 LINE",
"75 714 LINE",
"75 0 LINE"
);
},
{
closed = 1;
nodes = (
"199 182 LINE",
"199 284 OFFCURVE",
"266 332 OFFCURVE",
"333 332 CURVE SMOOTH",
"421 332 OFFCURVE",
"443 264 OFFCURVE",
"443 200 CURVE SMOOTH",
"443 112 OFFCURVE",
"416 96 OFFCURVE",
"393 96 CURVE SMOOTH",
"372 96 OFFCURVE",
"356 111 OFFCURVE",
"356 138 CURVE SMOOTH",
"356 179 OFFCURVE",
"407 210 OFFCURVE",
"521 210 CURVE",
"493 302 LINE",
"347 296 OFFCURVE",
"260 238 OFFCURVE",
"260 134 CURVE SMOOTH",
"260 48 OFFCURVE",
"317 -10 OFFCURVE",
"398 -10 CURVE SMOOTH",
"489 -10 OFFCURVE",
"558 36 OFFCURVE",
"558 193 CURVE SMOOTH",
"558 307 OFFCURVE",
"516 460 OFFCURVE",
"332 460 CURVE SMOOTH",
"223 460 OFFCURVE",
"147 379 OFFCURVE",
"125 271 CURVE"
);
}
);
width = 605;
}
);
leftKerningGroup = "ac-tangsa";
unicode = 16AC2;
script = tangsa;
category = Number;
subCategory = "Decimal Digit";
},
{
glyphname = "three-tangsa";
lastChange = "2022-01-07 13:32:17 +0000";
layers = (
{
layerId = "9FF96064-8718-4A86-A5C8-73C592101F67";
paths = (
{
closed = 1;
nodes = (
"85 61 OFFCURVE",
"183 -10 OFFCURVE",
"305 -10 CURVE SMOOTH",
"384 -10 OFFCURVE",
"447 16 OFFCURVE",
"492 58 CURVE",
"453 128 LINE",
"407 89 OFFCURVE",
"348 68 OFFCURVE",
"298 68 CURVE SMOOTH",
"208 68 OFFCURVE",
"152 113 OFFCURVE",
"152 188 CURVE SMOOTH",
"152 262 OFFCURVE",
"204 322 OFFCURVE",
"300 343 CURVE",
"227 398 LINE",
"148 365 OFFCURVE",
"85 296 OFFCURVE",
"85 198 CURVE SMOOTH"
);
},
{
closed = 1;
nodes = (
"157 543 OFFCURVE",
"236 515 OFFCURVE",
"313 515 CURVE SMOOTH",
"401 515 OFFCURVE",
"463 562 OFFCURVE",
"463 622 CURVE SMOOTH",
"463 683 OFFCURVE",
"418 724 OFFCURVE",
"329 724 CURVE SMOOTH",
"211 724 OFFCURVE",
"95 643 OFFCURVE",
"95 518 CURVE SMOOTH",
"95 362 OFFCURVE",
"263 301 OFFCURVE",
"341 301 CURVE SMOOTH",
"403 301 OFFCURVE",
"433 321 OFFCURVE",
"433 364 CURVE SMOOTH",
"433 394 OFFCURVE",
"411 426 OFFCURVE",
"335 426 CURVE SMOOTH",
"307 426 OFFCURVE",
"272 419 OFFCURVE",
"232 405 CURVE",
"286 395 LINE",
"205 416 OFFCURVE",
"162 460 OFFCURVE",
"162 517 CURVE SMOOTH",
"162 599 OFFCURVE",
"245 659 OFFCURVE",
"334 659 CURVE SMOOTH",
"375 659 OFFCURVE",
"398 644 OFFCURVE",
"398 623 CURVE SMOOTH",
"398 603 OFFCURVE",
"374 580 OFFCURVE",
"307 580 CURVE SMOOTH",
"245 580 OFFCURVE",
"183 606 OFFCURVE",
"82 674 CURVE",
"48 609 LINE"
);
}
);
width = 538;
},
{
layerId = "134B12F2-BF5D-48E3-8003-C7502B438C7E";
paths = (
{
closed = 1;
nodes = (
"52 69 OFFCURVE",
"155 -10 OFFCURVE",
"285 -10 CURVE SMOOTH",
"363 -10 OFFCURVE",
"435 23 OFFCURVE",
"494 79 CURVE",
"430 195 LINE",
"368 145 OFFCURVE",
"314 126 OFFCURVE",
"278 126 CURVE SMOOTH",
"218 126 OFFCURVE",
"178 159 OFFCURVE",
"178 205 CURVE SMOOTH",
"178 256 OFFCURVE",
"212 295 OFFCURVE",
"276 314 CURVE",
"177 399 LINE",
"103 362 OFFCURVE",
"52 301 OFFCURVE",
"52 215 CURVE SMOOTH"
);
},
{
closed = 1;
nodes = (
"96 536 OFFCURVE",
"217 476 OFFCURVE",
"315 476 CURVE SMOOTH",
"401 476 OFFCURVE",
"465 523 OFFCURVE",
"465 603 CURVE SMOOTH",
"465 674 OFFCURVE",
"412 724 OFFCURVE",
"318 724 CURVE SMOOTH",
"175 724 OFFCURVE",
"75 626 OFFCURVE",
"75 513 CURVE SMOOTH",
"75 359 OFFCURVE",
"244 288 OFFCURVE",
"334 288 CURVE SMOOTH",
"403 288 OFFCURVE",
"436 316 OFFCURVE",
"436 366 CURVE SMOOTH",
"436 401 OFFCURVE",
"419 442 OFFCURVE",
"335 442 CURVE SMOOTH",
"287 442 OFFCURVE",
"233 427 OFFCURVE",
"183 408 CURVE",
"252 415 LINE",
"217 433 OFFCURVE",
"201 472 OFFCURVE",
"201 516 CURVE SMOOTH",
"201 575 OFFCURVE",
"257 635 OFFCURVE",
"321 635 CURVE SMOOTH",
"350 635 OFFCURVE",
"368 622 OFFCURVE",
"368 602 CURVE SMOOTH",
"368 584 OFFCURVE",
"350 572 OFFCURVE",
"318 572 CURVE SMOOTH",
"242 572 OFFCURVE",
"150 635 OFFCURVE",
"67 689 CURVE",
"13 584 LINE"
);
}
);
width = 549;
}
);
unicode = 16AC3;
script = tangsa;
category = Number;
subCategory = "Decimal Digit";
},
{
glyphname = "four-tangsa";
lastChange = "2022-01-07 11:21:35 +0000";
layers = (
{
layerId = "9FF96064-8718-4A86-A5C8-73C592101F67";
paths = (
{
closed = 1;
nodes = (
"155 0 LINE",
"155 714 LINE",
"85 714 LINE",
"85 0 LINE"
);
},
{
closed = 1;
nodes = (
"127 399 OFFCURVE",
"201 330 OFFCURVE",
"298 330 CURVE SMOOTH",
"411 330 OFFCURVE",
"490 418 OFFCURVE",
"490 538 CURVE SMOOTH",
"490 603 OFFCURVE",
"473 676 OFFCURVE",
"453 725 CURVE",
"373 714 LINE",
"394 674 OFFCURVE",
"417 612 OFFCURVE",
"417 548 CURVE SMOOTH",
"417 462 OFFCURVE",
"363 406 OFFCURVE",
"293 406 CURVE SMOOTH",
"209 406 OFFCURVE",
"163 475 OFFCURVE",
"155 552 CURVE",
"107 505 LINE"
);
}
);
width = 533;
},
{
layerId = "134B12F2-BF5D-48E3-8003-C7502B438C7E";
paths = (
{
closed = 1;
nodes = (
"201 0 LINE",
"201 714 LINE",
"77 714 LINE",
"77 0 LINE"
);
},
{
closed = 1;
nodes = (
"142 375 OFFCURVE",
"220 312 OFFCURVE",
"316 312 CURVE SMOOTH",
"445 312 OFFCURVE",
"535 407 OFFCURVE",
"535 538 CURVE SMOOTH",
"535 599 OFFCURVE",
"516 673 OFFCURVE",
"492 726 CURVE",
"355 710 LINE",
"381 665 OFFCURVE",
"408 601 OFFCURVE",
"408 547 CURVE SMOOTH",
"408 487 OFFCURVE",
"366 448 OFFCURVE",
"311 448 CURVE SMOOTH",
"244 448 OFFCURVE",
"205 513 OFFCURVE",
"197 584 CURVE",
"126 503 LINE"
);
}
);
width = 557;
}
);
leftKerningGroup = "ac-tangsa";
unicode = 16AC4;
script = tangsa;
category = Number;
subCategory = "Decimal Digit";
},
{
glyphname = "five-tangsa";
lastChange = "2022-01-07 11:21:35 +0000";
layers = (
{
layerId = "134B12F2-BF5D-48E3-8003-C7502B438C7E";
paths = (
{
closed = 1;
nodes = (
"63 65 OFFCURVE",
"168 -10 OFFCURVE",
"300 -10 CURVE SMOOTH",
"400 -10 OFFCURVE",
"488 36 OFFCURVE",
"551 105 CURVE",
"484 219 LINE",
"420 155 OFFCURVE",
"349 126 OFFCURVE",
"294 126 CURVE SMOOTH",
"233 126 OFFCURVE",
"196 155 OFFCURVE",
"196 197 CURVE SMOOTH",
"196 257 OFFCURVE",
"261 305 OFFCURVE",
"383 305 CURVE SMOOTH",
"434 305 LINE",
"472 362 LINE",
"394 456 OFFCURVE",
"355 523 OFFCURVE",
"355 568 CURVE SMOOTH",
"355 606 OFFCURVE",
"375 625 OFFCURVE",
"401 625 CURVE SMOOTH",
"423 625 OFFCURVE",
"442 610 OFFCURVE",
"442 587 CURVE SMOOTH",
"442 536 OFFCURVE",
"383 516 OFFCURVE",
"311 516 CURVE SMOOTH",
"216 516 OFFCURVE",
"202 538 OFFCURVE",
"202 619 CURVE SMOOTH",
"202 720 LINE",
"78 712 LINE",
"78 601 LINE SMOOTH",
"78 544 OFFCURVE",
"97 502 OFFCURVE",
"134 475 CURVE SMOOTH",
"171 446 OFFCURVE",
"227 433 OFFCURVE",
"299 433 CURVE SMOOTH",
"420 433 OFFCURVE",
"542 481 OFFCURVE",
"542 585 CURVE SMOOTH",
"542 670 OFFCURVE",
"473 724 OFFCURVE",
"391 724 CURVE SMOOTH",
"301 724 OFFCURVE",
"245 671 OFFCURVE",
"245 579 CURVE SMOOTH",
"245 513 OFFCURVE",
"270 447 OFFCURVE",
"315 387 CURVE",
"314 401 LINE",
"170 392 OFFCURVE",
"63 321 OFFCURVE",
"63 205 CURVE SMOOTH"
);
}
);
width = 586;
},
{
layerId = "9FF96064-8718-4A86-A5C8-73C592101F67";
paths = (
{
closed = 1;
nodes = (
"69 63 OFFCURVE",
"167 -9 OFFCURVE",
"289 -9 CURVE SMOOTH",
"384 -9 OFFCURVE",
"461 29 OFFCURVE",
"515 88 CURVE",
"476 158 LINE",
"418 96 OFFCURVE",
"345 69 OFFCURVE",
"282 69 CURVE SMOOTH",
"192 69 OFFCURVE",
"136 116 OFFCURVE",
"136 187 CURVE SMOOTH",
"136 269 OFFCURVE",
"220 334 OFFCURVE",
"377 334 CURVE SMOOTH",
"406 334 LINE",
"429 365 LINE",
"360 459 OFFCURVE",
"326 529 OFFCURVE",
"326 581 CURVE SMOOTH",
"326 631 OFFCURVE",
"351 655 OFFCURVE",
"388 655 CURVE SMOOTH",
"418 655 OFFCURVE",
"440 637 OFFCURVE",
"440 601 CURVE SMOOTH",
"440 534 OFFCURVE",
"355 504 OFFCURVE",
"293 504 CURVE SMOOTH",
"187 504 OFFCURVE",
"171 532 OFFCURVE",
"171 635 CURVE SMOOTH",
"171 719 LINE",
"96 713 LINE",
"96 616 LINE SMOOTH",
"96 548 OFFCURVE",
"116 503 OFFCURVE",
"151 475 CURVE SMOOTH",
"182 451 OFFCURVE",
"223 440 OFFCURVE",
"280 440 CURVE SMOOTH",
"395 440 OFFCURVE",
"510 493 OFFCURVE",
"510 601 CURVE SMOOTH",
"510 677 OFFCURVE",
"454 724 OFFCURVE",
"385 724 CURVE SMOOTH",
"303 724 OFFCURVE",
"252 676 OFFCURVE",
"252 592 CURVE SMOOTH",
"252 523 OFFCURVE",
"280 454 OFFCURVE",
"330 393 CURVE",
"363 404 LINE",
"200 404 OFFCURVE",
"69 331 OFFCURVE",
"69 196 CURVE SMOOTH"
);
}
);
width = 558;
}
);
unicode = 16AC5;
script = tangsa;
category = Number;
subCategory = "Decimal Digit";
},
{
glyphname = "six-tangsa";
lastChange = "2022-01-07 11:21:35 +0000";
layers = (
{
layerId = "9FF96064-8718-4A86-A5C8-73C592101F67";
paths = (
{
closed = 1;
nodes = (
"73 70 OFFCURVE",
"110 25 OFFCURVE",
"188 -11 CURVE",
"218 57 LINE",
"167 78 OFFCURVE",
"143 104 OFFCURVE",
"143 134 CURVE SMOOTH",
"143 164 OFFCURVE",
"167 187 OFFCURVE",
"213 187 CURVE SMOOTH",
"280 187 OFFCURVE",
"350 136 OFFCURVE",
"393 62 CURVE",
"416 138 LINE",
"382 187 OFFCURVE",
"302 255 OFFCURVE",
"210 255 CURVE SMOOTH",
"131 255 OFFCURVE",
"73 204 OFFCURVE",
"73 129 CURVE SMOOTH"
);
},
{
closed = 1;
nodes = (
"393 714 LINE",
"393 62 LINE",
"463 62 LINE",
"463 714 LINE"
);
},
{
closed = 1;
nodes = (
"393 552 LINE",
"385 475 OFFCURVE",
"326 406 OFFCURVE",
"243 406 CURVE SMOOTH",
"173 406 OFFCURVE",
"134 456 OFFCURVE",
"134 533 CURVE SMOOTH",
"134 594 OFFCURVE",
"160 667 OFFCURVE",
"179 705 CURVE",
"102 725 LINE",
"79 676 OFFCURVE",
"61 607 OFFCURVE",
"61 544 CURVE SMOOTH",
"61 424 OFFCURVE",
"122 330 OFFCURVE",
"244 330 CURVE SMOOTH",
"344 330 OFFCURVE",
"421 399 OFFCURVE",
"441 505 CURVE"
);
}
);
width = 546;
},
{
layerId = "134B12F2-BF5D-48E3-8003-C7502B438C7E";
paths = (
{
closed = 1;
nodes = (
"56 80 OFFCURVE",
"98 30 OFFCURVE",
"187 -13 CURVE",
"261 90 LINE",
"210 111 OFFCURVE",
"185 131 OFFCURVE",
"185 151 CURVE SMOOTH",
"185 163 OFFCURVE",
"195 175 OFFCURVE",
"216 175 CURVE SMOOTH",
"265 175 OFFCURVE",
"331 128 OFFCURVE",
"378 59 CURVE",
"441 152 LINE",
"402 206 OFFCURVE",
"302 283 OFFCURVE",
"210 283 CURVE SMOOTH",
"119 283 OFFCURVE",
"56 226 OFFCURVE",
"56 142 CURVE SMOOTH"
);
},
{
closed = 1;
nodes = (
"378 714 LINE",
"378 59 LINE",
"502 59 LINE",
"502 714 LINE"
);
},
{
closed = 1;
nodes = (
"383 584 LINE",
"374 517 OFFCURVE",
"324 455 OFFCURVE",
"256 455 CURVE SMOOTH",
"197 455 OFFCURVE",
"164 488 OFFCURVE",
"164 538 CURVE SMOOTH",
"164 587 OFFCURVE",
"196 659 OFFCURVE",
"219 699 CURVE",
"91 726 LINE",
"61 674 OFFCURVE",
"37 606 OFFCURVE",
"37 549 CURVE SMOOTH",
"37 419 OFFCURVE",
"111 319 OFFCURVE",
"257 319 CURVE SMOOTH",
"357 319 OFFCURVE",
"434 395 OFFCURVE",
"455 513 CURVE"
);
}
);
width = 576;
}
);
unicode = 16AC6;
script = tangsa;
category = Number;
subCategory = "Decimal Digit";
},
{
glyphname = "seven-tangsa";
lastChange = "2022-01-07 11:21:35 +0000";
layers = (
{
layerId = "9FF96064-8718-4A86-A5C8-73C592101F67";
paths = (
{
closed = 1;
nodes = (
"335 382 LINE",
"361 422 LINE",
"205 425 OFFCURVE",
"41 356 OFFCURVE",
"41 201 CURVE SMOOTH",
"41 64 OFFCURVE",
"139 -10 OFFCURVE",
"261 -10 CURVE SMOOTH",
"340 -10 OFFCURVE",
"403 16 OFFCURVE",
"448 58 CURVE",
"409 128 LINE",
"363 86 OFFCURVE",
"304 68 OFFCURVE",
"254 68 CURVE SMOOTH",
"164 68 OFFCURVE",
"108 116 OFFCURVE",
"108 191 CURVE SMOOTH",
"108 282 OFFCURVE",
"198 344 OFFCURVE",
"360 344 CURVE SMOOTH",
"408 344 LINE",
"378 725 LINE",
"308 720 LINE"
);
}
);
width = 495;
},
{
layerId = "134B12F2-BF5D-48E3-8003-C7502B438C7E";
paths = (
{
closed = 1;
nodes = (
"348 357 LINE",
"398 448 LINE",
"210 441 OFFCURVE",
"41 368 OFFCURVE",
"41 218 CURVE SMOOTH",
"41 70 OFFCURVE",
"154 -10 OFFCURVE",
"295 -10 CURVE SMOOTH",
"387 -10 OFFCURVE",
"470 17 OFFCURVE",
"536 75 CURVE",
"466 192 LINE",
"398 139 OFFCURVE",
"330 126 OFFCURVE",
"287 126 CURVE SMOOTH",
"214 126 OFFCURVE",
"169 160 OFFCURVE",
"169 208 CURVE SMOOTH",
"169 271 OFFCURVE",
"263 313 OFFCURVE",
"430 313 CURVE SMOOTH",
"476 313 LINE",
"440 725 LINE",
"318 716 LINE"
);
}
);
width = 574;
}
);
leftKerningGroup = "oz-tangsa";
unicode = 16AC7;
script = tangsa;
category = Number;
subCategory = "Decimal Digit";
},
{
glyphname = "eight-tangsa";
lastChange = "2022-01-07 11:21:35 +0000";
layers = (
{
layerId = "9FF96064-8718-4A86-A5C8-73C592101F67";
paths = (
{
closed = 1;
nodes = (
"50 544 OFFCURVE",
"68 500 OFFCURVE",
"101 473 CURVE SMOOTH",
"135 445 OFFCURVE",
"182 430 OFFCURVE",
"254 430 CURVE SMOOTH",
"359 430 OFFCURVE",
"465 486 OFFCURVE",
"465 599 CURVE SMOOTH",
"465 675 OFFCURVE",
"407 724 OFFCURVE",
"339 724 CURVE SMOOTH",
"263 724 OFFCURVE",
"216 679 OFFCURVE",
"216 580 CURVE SMOOTH",
"216 0 LINE",
"286 0 LINE",
"285 564 LINE SMOOTH",
"285 631 OFFCURVE",
"310 655 OFFCURVE",
"345 655 CURVE SMOOTH",
"372 655 OFFCURVE",
"395 637 OFFCURVE",
"395 601 CURVE SMOOTH",
"395 529 OFFCURVE",
"313 494 OFFCURVE",
"253 494 CURVE SMOOTH",
"153 494 OFFCURVE",
"120 526 OFFCURVE",
"120 627 CURVE SMOOTH",
"120 719 LINE",
"50 713 LINE",
"50 608 LINE SMOOTH"
);
}
);
width = 508;
},
{
layerId = "134B12F2-BF5D-48E3-8003-C7502B438C7E";
paths = (
{
closed = 1;
nodes = (
"33 520 OFFCURVE",
"54 480 OFFCURVE",
"87 450 CURVE SMOOTH",
"131 410 OFFCURVE",
"192 387 OFFCURVE",
"277 387 CURVE SMOOTH",
"412 387 OFFCURVE",
"541 449 OFFCURVE",
"541 580 CURVE SMOOTH",
"541 665 OFFCURVE",
"467 724 OFFCURVE",
"375 724 CURVE SMOOTH",
"277 724 OFFCURVE",
"216 669 OFFCURVE",
"216 590 CURVE SMOOTH",
"216 0 LINE",
"340 0 LINE",
"340 563 LINE SMOOTH",
"340 614 OFFCURVE",
"358 626 OFFCURVE",
"381 626 CURVE SMOOTH",
"408 626 OFFCURVE",
"427 609 OFFCURVE",
"427 583 CURVE SMOOTH",
"427 523 OFFCURVE",
"330 505 OFFCURVE",
"264 505 CURVE SMOOTH",
"181 505 OFFCURVE",
"157 536 OFFCURVE",
"157 635 CURVE SMOOTH",
"157 718 LINE",
"33 708 LINE",
"33 622 LINE SMOOTH"
);
}
);
width = 567;
}
);
unicode = 16AC8;
script = tangsa;
category = Number;
subCategory = "Decimal Digit";
},
{
glyphname = "nine-tangsa";
lastChange = "2022-01-07 11:21:35 +0000";
layers = (
{
layerId = "9FF96064-8718-4A86-A5C8-73C592101F67";
paths = (
{
closed = 1;
nodes = (
"41 420 OFFCURVE",
"140 352 OFFCURVE",
"245 352 CURVE SMOOTH",
"269 352 OFFCURVE",
"294 355 OFFCURVE",
"318 359 CURVE",
"349 440 LINE",
"317 430 OFFCURVE",
"283 424 OFFCURVE",
"246 424 CURVE SMOOTH",
"172 424 OFFCURVE",
"108 461 OFFCURVE",
"108 531 CURVE SMOOTH",
"108 599 OFFCURVE",
"160 646 OFFCURVE",
"223 646 CURVE SMOOTH",
"285 646 OFFCURVE",
"332 610 OFFCURVE",
"332 516 CURVE SMOOTH",
"332 475 OFFCURVE",
"322 425 OFFCURVE",
"269 316 CURVE SMOOTH",
"192 158 LINE SMOOTH",
"166 105 OFFCURVE",
"163 86 OFFCURVE",
"163 71 CURVE SMOOTH",
"163 15 OFFCURVE",
"209 -10 OFFCURVE",
"265 -10 CURVE SMOOTH",
"294 -10 OFFCURVE",
"323 -4 OFFCURVE",
"351 7 CURVE",
"332 82 LINE",
"304 71 OFFCURVE",
"276 64 OFFCURVE",
"258 64 CURVE SMOOTH",
"243 64 OFFCURVE",
"235 73 OFFCURVE",
"235 82 CURVE SMOOTH",
"235 91 OFFCURVE",
"238 101 OFFCURVE",
"264 154 CURVE SMOOTH",
"341 311 LINE SMOOTH",
"388 407 OFFCURVE",
"402 474 OFFCURVE",
"402 524 CURVE SMOOTH",
"402 664 OFFCURVE",
"316 724 OFFCURVE",
"218 724 CURVE SMOOTH",
"119 724 OFFCURVE",
"41 654 OFFCURVE",
"41 546 CURVE SMOOTH"
);
}
);
width = 453;
},
{
layerId = "134B12F2-BF5D-48E3-8003-C7502B438C7E";
paths = (
{
closed = 1;
nodes = (
"44 395 OFFCURVE",
"156 324 OFFCURVE",
"278 324 CURVE SMOOTH",
"304 324 OFFCURVE",
"336 328 OFFCURVE",
"375 334 CURVE",
"388 473 LINE",
"340 454 OFFCURVE",
"302 446 OFFCURVE",
"272 446 CURVE SMOOTH",
"219 446 OFFCURVE",
"169 473 OFFCURVE",
"169 517 CURVE SMOOTH",
"169 557 OFFCURVE",
"210 588 OFFCURVE",
"259 588 CURVE SMOOTH",
"302 588 OFFCURVE",
"341 565 OFFCURVE",
"341 510 CURVE SMOOTH",
"341 472 OFFCURVE",
"326 439 OFFCURVE",
"286 372 CURVE SMOOTH",
"197 224 LINE SMOOTH",
"155 154 OFFCURVE",
"150 124 OFFCURVE",
"150 104 CURVE SMOOTH",
"150 37 OFFCURVE",
"210 -10 OFFCURVE",
"293 -10 CURVE SMOOTH",
"322 -10 OFFCURVE",
"375 -4 OFFCURVE",
"423 14 CURVE",
"392 154 LINE",
"356 134 OFFCURVE",
"331 126 OFFCURVE",
"318 126 CURVE SMOOTH",
"306 126 OFFCURVE",
"302 134 OFFCURVE",
"302 142 CURVE SMOOTH",
"302 152 OFFCURVE",
"306 163 OFFCURVE",
"321 188 CURVE SMOOTH",
"392 304 LINE SMOOTH",
"448 395 OFFCURVE",
"468 453 OFFCURVE",
"468 509 CURVE SMOOTH",
"468 644 OFFCURVE",
"368 724 OFFCURVE",
"251 724 CURVE SMOOTH",
"136 724 OFFCURVE",
"44 648 OFFCURVE",
"44 528 CURVE SMOOTH"
);
}
);
width = 521;
}
);
unicode = 16AC9;
script = tangsa;
category = Number;
subCategory = "Decimal Digit";
},
{
glyphname = .notdef;
lastChange = "2021-12-24 10:10:17 +0000";
layers = (
{
layerId = "9FF96064-8718-4A86-A5C8-73C592101F67";
paths = (
{
closed = 1;
nodes = (
"505 0 LINE",
"505 714 LINE",
"94 714 LINE",
"94 0 LINE"
);
},
{
closed = 1;
nodes = (
"145 663 LINE",
"454 663 LINE",
"454 51 LINE",
"145 51 LINE"
);
}
);
width = 600;
},
{
layerId = "134B12F2-BF5D-48E3-8003-C7502B438C7E";
paths = (
{
closed = 1;
nodes = (
"522 0 LINE",
"522 714 LINE",
"94 714 LINE",
"94 0 LINE"
);
},
{
closed = 1;
nodes = (
"182 626 LINE",
"434 626 LINE",
"434 88 LINE",
"182 88 LINE"
);
}
);
width = 617;
}
);
script = "";
category = Separator;
subCategory = Other;
},
{
export = 0;
glyphname = _part.az;
lastChange = "2022-01-07 11:45:03 +0000";
layers = (
{
layerId = "134B12F2-BF5D-48E3-8003-C7502B438C7E";
paths = (
{
closed = 1;
nodes = (
"32 53 OFFCURVE",
"94 -10 OFFCURVE",
"175 -10 CURVE SMOOTH",
"220 -10 OFFCURVE",
"258 19 OFFCURVE",
"277 69 CURVE",
"245 69 LINE",
"275 12 OFFCURVE",
"314 -6 OFFCURVE",
"354 -6 CURVE SMOOTH",
"403 -6 OFFCURVE",
"447 21 OFFCURVE",
"480 67 CURVE",
"413 176 LINE",
"397 150 OFFCURVE",
"378 130 OFFCURVE",
"359 130 CURVE SMOOTH",
"341 130 OFFCURVE",
"322 143 OFFCURVE",
"322 193 CURVE",
"241 217 LINE",
"216 151 OFFCURVE",
"200 130 OFFCURVE",
"183 130 CURVE SMOOTH",
"167 130 OFFCURVE",
"156 149 OFFCURVE",
"156 202 CURVE SMOOTH",
"156 459 LINE",
"32 459 LINE",
"32 168 LINE SMOOTH"
);
}
);
width = 589;
},
{
layerId = "9FF96064-8718-4A86-A5C8-73C592101F67";
paths = (
{
closed = 1;
nodes = (
"42 44 OFFCURVE",
"91 -10 OFFCURVE",
"159 -10 CURVE SMOOTH",
"202 -10 OFFCURVE",
"233 19 OFFCURVE",
"260 61 CURVE",
"232 91 LINE",
"245 20 OFFCURVE",
"287 -7 OFFCURVE",
"332 -7 CURVE SMOOTH",
"373 -7 OFFCURVE",
"404 15 OFFCURVE",
"431 50 CURVE",
"388 93 LINE",
"374 76 OFFCURVE",
"359 67 OFFCURVE",
"342 67 CURVE SMOOTH",
"317 67 OFFCURVE",
"295 88 OFFCURVE",
"290 129 CURVE",
"239 145 LINE",
"213 87 OFFCURVE",
"189 68 OFFCURVE",
"164 68 CURVE SMOOTH",
"137 68 OFFCURVE",
"112 84 OFFCURVE",
"112 141 CURVE SMOOTH",
"112 444 LINE",
"42 444 LINE",
"42 144 LINE SMOOTH"
);
}
);
width = 565;
},
{
associatedMasterId = "9FF96064-8718-4A86-A5C8-73C592101F67";
layerId = "036839A2-990B-47AE-9AAB-4B1F49B7D210";
name = "Dec 17 21, 10:13";
paths = (
{
closed = 1;
nodes = (
"129 -7 LINE",
"140 4 OFFCURVE",
"148 13 OFFCURVE",
"177 40 CURVE SMOOTH",
"309 167 LINE",
"262 161 LINE",
"386 33 LINE SMOOTH",
"418 0 OFFCURVE",
"430 -8 OFFCURVE",
"449 -8 CURVE SMOOTH",
"467 -8 OFFCURVE",
"521 33 OFFCURVE",
"536 98 CURVE",
"519 109 LINE",
"512 100 OFFCURVE",
"496 89 OFFCURVE",
"485 89 CURVE SMOOTH",
"465 89 OFFCURVE",
"441 111 OFFCURVE",
"415 139 CURVE SMOOTH",
"352 206 LINE SMOOTH",
"340 219 OFFCURVE",
"328 228 OFFCURVE",
"318 228 CURVE SMOOTH",
"306 228 OFFCURVE",
"298 222 OFFCURVE",
"277 201 CURVE SMOOTH",
"162 82 LINE",
"195 83 LINE",
"205 181 LINE",
"205 465 LINE",
"107 465 LINE",
"107 -2 LINE"
);
}
);
width = 565;
}
);
},
{
export = 0;
glyphname = _part.double;
lastChange = "2022-01-06 10:41:10 +0000";
layers = (
{
layerId = "134B12F2-BF5D-48E3-8003-C7502B438C7E";
paths = (
{
closed = 1;
nodes = (
"452 642 LINE",
"433 634 OFFCURVE",
"417 631 OFFCURVE",
"393 631 CURVE SMOOTH",
"365 631 OFFCURVE",
"339 637 OFFCURVE",
"321 646 CURVE",
"273 599 LINE",
"314 577 OFFCURVE",
"363 569 OFFCURVE",
"395 569 CURVE SMOOTH",
"441 569 OFFCURVE",
"481 580 OFFCURVE",
"518 599 CURVE"
);
},
{
closed = 1;
nodes = (
"310 641 LINE",
"271 653 OFFCURVE",
"259 666 OFFCURVE",
"259 677 CURVE SMOOTH",
"259 692 OFFCURVE",
"272 701 OFFCURVE",
"287 701 CURVE SMOOTH",
"299 701 OFFCURVE",
"312 692 OFFCURVE",
"312 680 CURVE SMOOTH",
"312 665 OFFCURVE",
"284 651 OFFCURVE",
"161 632 CURVE",
"216 568 LINE",
"309 593 OFFCURVE",
"378 627 OFFCURVE",
"378 681 CURVE SMOOTH",
"378 737 OFFCURVE",
"334 770 OFFCURVE",
"285 770 CURVE SMOOTH",
"237 770 OFFCURVE",
"192 739 OFFCURVE",
"192 683 CURVE SMOOTH",
"192 653 OFFCURVE",
"216 618 OFFCURVE",
"264 601 CURVE"
);
},
{
closed = 1;
nodes = (
"533 611 LINE",
"571 629 OFFCURVE",
"588 658 OFFCURVE",
"588 682 CURVE SMOOTH",
"588 733 OFFCURVE",
"544 770 OFFCURVE",
"496 770 CURVE SMOOTH",
"447 770 OFFCURVE",
"402 740 OFFCURVE",
"402 686 CURVE SMOOTH",
"402 639 OFFCURVE",
"449 595 OFFCURVE",
"591 571 CURVE",
"617 641 LINE",
"508 649 OFFCURVE",
"469 664 OFFCURVE",
"469 677 CURVE SMOOTH",
"469 692 OFFCURVE",
"483 701 OFFCURVE",
"497 701 CURVE SMOOTH",
"510 701 OFFCURVE",
"522 693 OFFCURVE",
"522 681 CURVE SMOOTH",
"522 668 OFFCURVE",
"500 656 OFFCURVE",
"466 645 CURVE"
);
}
);
width = 856;
},
{
layerId = "9FF96064-8718-4A86-A5C8-73C592101F67";
paths = (
{
closed = 1;
nodes = (
"424 626 LINE",
"404 609 OFFCURVE",
"378 604 OFFCURVE",
"352 604 CURVE SMOOTH",
"326 604 OFFCURVE",
"299 609 OFFCURVE",
"271 623 CURVE",
"238 592 LINE",
"276 568 OFFCURVE",
"317 557 OFFCURVE",
"355 557 CURVE SMOOTH",
"395 557 OFFCURVE",
"431 569 OFFCURVE",
"459 591 CURVE"
);
},
{
closed = 1;
nodes = (
"267 629 LINE",
"240 644 OFFCURVE",
"224 662 OFFCURVE",
"224 681 CURVE SMOOTH",
"224 701 OFFCURVE",
"241 713 OFFCURVE",
"260 713 CURVE SMOOTH",
"276 713 OFFCURVE",
"291 704 OFFCURVE",
"291 684 CURVE SMOOTH",
"291 650 OFFCURVE",
"230 619 OFFCURVE",
"173 595 CURVE",
"210 553 LINE",
"262 581 OFFCURVE",
"336 625 OFFCURVE",
"336 683 CURVE SMOOTH",
"336 731 OFFCURVE",
"300 760 OFFCURVE",
"258 760 CURVE SMOOTH",
"216 760 OFFCURVE",
"179 733 OFFCURVE",
"179 686 CURVE SMOOTH",
"179 652 OFFCURVE",
"199 623 OFFCURVE",
"238 599 CURVE"
);
},
{
closed = 1;
nodes = (
"468 597 LINE",
"498 627 OFFCURVE",
"516 652 OFFCURVE",
"516 684 CURVE SMOOTH",
"516 728 OFFCURVE",
"480 760 OFFCURVE",
"438 760 CURVE SMOOTH",
"396 760 OFFCURVE",
"359 734 OFFCURVE",
"359 684 CURVE SMOOTH",
"359 638 OFFCURVE",
"410 597 OFFCURVE",
"516 557 CURVE",
"530 596 LINE",
"454 619 OFFCURVE",
"404 649 OFFCURVE",
"404 681 CURVE SMOOTH",
"404 702 OFFCURVE",
"421 713 OFFCURVE",
"439 713 CURVE SMOOTH",
"456 713 OFFCURVE",
"471 704 OFFCURVE",
"471 685 CURVE SMOOTH",
"471 664 OFFCURVE",
"453 643 OFFCURVE",
"425 625 CURVE"
);
}
);
width = 690;
},
{
associatedMasterId = "9FF96064-8718-4A86-A5C8-73C592101F67";
layerId = "EA32C846-0A08-4BF2-85BF-BDA0074227BB";
name = "Dec 21 21, 12:01";
paths = (
{
closed = 1;
nodes = (
"357 612 OFFCURVE",
"331 618 OFFCURVE",
"295 632 CURVE",
"255 599 LINE",
"287 583 OFFCURVE",
"340 568 OFFCURVE",
"394 568 CURVE SMOOTH",
"438 568 OFFCURVE",
"475 577 OFFCURVE",
"504 596 CURVE SMOOTH",
"529 613 OFFCURVE",
"547 637 OFFCURVE",
"547 668 CURVE SMOOTH",
"547 716 OFFCURVE",
"504 761 OFFCURVE",
"443 761 CURVE SMOOTH",
"400 761 OFFCURVE",
"370 739 OFFCURVE",
"370 702 CURVE SMOOTH",
"370 669 OFFCURVE",
"395 637 OFFCURVE",
"448 605 CURVE",
"483 633 LINE",
"443 652 OFFCURVE",
"423 672 OFFCURVE",
"423 696 CURVE SMOOTH",
"423 712 OFFCURVE",
"434 722 OFFCURVE",
"451 722 CURVE SMOOTH",
"477 722 OFFCURVE",
"493 698 OFFCURVE",
"493 674 CURVE SMOOTH",
"493 648 OFFCURVE",
"474 630 OFFCURVE",
"454 620 CURVE",
"433 614 OFFCURVE",
"420 612 OFFCURVE",
"395 612 CURVE SMOOTH"
);
},
{
closed = 1;
nodes = (
"288 635 LINE",
"246 651 OFFCURVE",
"226 671 OFFCURVE",
"226 696 CURVE SMOOTH",
"226 712 OFFCURVE",
"237 722 OFFCURVE",
"254 722 CURVE SMOOTH",
"280 722 OFFCURVE",
"296 702 OFFCURVE",
"296 680 CURVE SMOOTH",
"296 657 OFFCURVE",
"283 641 OFFCURVE",
"262 628 CURVE",
"240 614 OFFCURVE",
"209 603 OFFCURVE",
"178 595 CURVE",
"201 552 LINE",
"240 565 OFFCURVE",
"279 579 OFFCURVE",
"308 600 CURVE SMOOTH",
"333 618 OFFCURVE",
"350 643 OFFCURVE",
"350 672 CURVE SMOOTH",
"350 717 OFFCURVE",
"309 761 OFFCURVE",
"246 761 CURVE SMOOTH",
"202 761 OFFCURVE",
"173 739 OFFCURVE",
"173 702 CURVE SMOOTH",
"173 668 OFFCURVE",
"198 636 OFFCURVE",
"251 603 CURVE"
);
},
{
closed = 1;
nodes = (
"455 604 LINE",
"487 585 OFFCURVE",
"536 569 OFFCURVE",
"576 559 CURVE",
"593 595 LINE",
"553 604 OFFCURVE",
"516 616 OFFCURVE",
"495 633 CURVE"
);
}
);
width = 690;
}
);
script = "";
category = "Smart Glyph";
subCategory = "";
},
{
export = 0;
glyphname = _part.hta;
lastChange = "2022-01-06 13:18:23 +0000";
layers = (
{
components = (
{
name = _part.loop4;
transform = "{1, 0, 0, 1, -99, 0}";
}
);
layerId = "134B12F2-BF5D-48E3-8003-C7502B438C7E";
paths = (
{
closed = 1;
nodes = (
"443 363 LINE",
"443 714 LINE",
"319 714 LINE",
"319 363 LINE"
);
}
);
width = 568;
},
{
components = (
{
name = _part.loop4;
transform = "{1, 0, 0, 1, -62, 0}";
}
);
layerId = "9FF96064-8718-4A86-A5C8-73C592101F67";
paths = (
{
closed = 1;
nodes = (
"403 384 LINE",
"403 714 LINE",
"333 714 LINE",
"333 384 LINE"
);
}
);
width = 549;
},
{
associatedMasterId = "134B12F2-BF5D-48E3-8003-C7502B438C7E";
layerId = "9CF1B045-7E17-469D-8AEE-319A099AAECC";
name = "Dec 1 21, 13:39";
paths = (
{
closed = 1;
nodes = (
"520 0 LINE",
"520 714 LINE",
"370 714 LINE",
"370 44 LINE",
"454 82 LINE",
"332 234 OFFCURVE",
"211 325 OFFCURVE",
"72 356 CURVE",
"66 376 LINE",
"50 292 LINE",
"161 228 OFFCURVE",
"260 143 OFFCURVE",
"372 0 CURVE"
);
},
{
closed = 1;
nodes = (
"484 401 LINE",
"66 396 LINE",
"57 326 LINE",
"484 319 LINE"
);
}
);
width = 600;
},
{
associatedMasterId = "134B12F2-BF5D-48E3-8003-C7502B438C7E";
layerId = "35A06156-B0D1-4105-93DE-355C45D4FBD8";
name = "Dec 4 21, 13:55";
paths = (
{
closed = 1;
nodes = (
"507 426 LINE",
"227 426 LINE SMOOTH",
"153 426 OFFCURVE",
"106 426 OFFCURVE",
"67 426 CURVE",
"38 337 LINE",
"61 358 LINE",
"507 358 LINE"
);
},
{
closed = 1;
nodes = (
"520 0 LINE",
"520 714 LINE",
"370 714 LINE",
"370 44 LINE",
"450 85 LINE",
"337 233 OFFCURVE",
"215 338 OFFCURVE",
"99 399 CURVE",
"67 426 LINE",
"38 337 LINE",
"153 270 OFFCURVE",
"271 150 OFFCURVE",
"372 0 CURVE"
);
}
);
width = 600;
},
{
associatedMasterId = "134B12F2-BF5D-48E3-8003-C7502B438C7E";
layerId = "CF1787D7-A8A1-45B8-A231-A4BA7D149D77";
name = "Dec 5 21, 16:04";
paths = (
{
closed = 1;
nodes = (
"367 415 LINE",
"219 415 LINE SMOOTH",
"113 415 OFFCURVE",
"54 328 OFFCURVE",
"54 246 CURVE SMOOTH",
"54 123 OFFCURVE",
"163 -8 OFFCURVE",
"280 -8 CURVE SMOOTH",
"375 -8 OFFCURVE",
"482 49 OFFCURVE",
"482 198 CURVE SMOOTH",
"482 714 LINE",
"331 714 LINE",
"331 191 LINE SMOOTH",
"331 131 OFFCURVE",
"323 92 OFFCURVE",
"287 92 CURVE SMOOTH",
"232 92 OFFCURVE",
"156 199 OFFCURVE",
"156 269 CURVE SMOOTH",
"156 305 OFFCURVE",
"182 312 OFFCURVE",
"224 312 CURVE SMOOTH",
"367 312 LINE"
);
}
);
width = 600;
}
);
script = "";
category = "Smart Glyph";
subCategory = "";
},
{
export = 0;
glyphname = _part.izlower;
lastChange = "2022-01-07 13:33:16 +0000";
layers = (
{
layerId = "9FF96064-8718-4A86-A5C8-73C592101F67";
paths = (
{
closed = 1;
nodes = (
"8 57 OFFCURVE",
"97 -10 OFFCURVE",
"201 -10 CURVE SMOOTH",
"306 -10 OFFCURVE",
"406 56 OFFCURVE",
"406 183 CURVE SMOOTH",
"406 284 OFFCURVE",
"342 384 OFFCURVE",
"250 464 CURVE",
"182 428 LINE",
"260 370 OFFCURVE",
"335 289 OFFCURVE",
"335 198 CURVE SMOOTH",
"335 112 OFFCURVE",
"266 68 OFFCURVE",
"197 68 CURVE SMOOTH",
"139 68 OFFCURVE",
"75 99 OFFCURVE",
"75 168 CURVE SMOOTH",
"75 204 OFFCURVE",
"90 234 OFFCURVE",
"116 255 CURVE SMOOTH",
"163 293 OFFCURVE",
"245 320 OFFCURVE",
"308 334 CURVE",
"283 392 LINE",
"224 377 OFFCURVE",
"156 356 OFFCURVE",
"109 329 CURVE SMOOTH",
"45 292 OFFCURVE",
"8 240 OFFCURVE",
"8 165 CURVE SMOOTH"
);
}
);
width = 548;
},
{
associatedMasterId = "134B12F2-BF5D-48E3-8003-C7502B438C7E";
layerId = "652064C4-0145-46AC-BD02-64634D9BC7CB";
name = "Nov 23 21, 14:12";
paths = (
{
closed = 1;
nodes = (
"60 59 OFFCURVE",
"149 -9 OFFCURVE",
"270 -10 CURVE SMOOTH",
"411 -12 OFFCURVE",
"516 63 OFFCURVE",
"516 174 CURVE SMOOTH",
"516 277 OFFCURVE",
"437 369 OFFCURVE",
"323 480 CURVE",
"184 445 LINE",
"176 417 LINE",
"284 329 OFFCURVE",
"363 257 OFFCURVE",
"363 163 CURVE SMOOTH",
"363 102 OFFCURVE",
"323 58 OFFCURVE",
"245 58 CURVE SMOOTH",
"188 58 OFFCURVE",
"130 92 OFFCURVE",
"130 168 CURVE SMOOTH",
"130 246 OFFCURVE",
"206 301 OFFCURVE",
"356 334 CURVE",
"327 384 LINE",
"148 349 OFFCURVE",
"60 261 OFFCURVE",
"60 163 CURVE SMOOTH"
);
}
);
width = 600;
},
{
associatedMasterId = "134B12F2-BF5D-48E3-8003-C7502B438C7E";
layerId = "EDDF70E0-DA64-43A1-BEB5-3034638AAD23";
name = "Dec 6 21, 14:14";
paths = (
{
closed = 1;
nodes = (
"69 57 OFFCURVE",
"151 -8 OFFCURVE",
"266 -10 CURVE SMOOTH",
"395 -12 OFFCURVE",
"500 60 OFFCURVE",
"500 171 CURVE SMOOTH",
"500 271 OFFCURVE",
"422 364 OFFCURVE",
"320 491 CURVE",
"184 455 LINE",
"176 427 LINE",
"276 329 OFFCURVE",
"357 248 OFFCURVE",
"357 147 CURVE SMOOTH",
"357 91 OFFCURVE",
"325 58 OFFCURVE",
"285 58 CURVE SMOOTH",
"236 58 OFFCURVE",
"194 98 OFFCURVE",
"194 167 CURVE SMOOTH",
"194 238 OFFCURVE",
"245 303 OFFCURVE",
"406 352 CURVE",
"378 400 LINE",
"153 313 OFFCURVE",
"69 246 OFFCURVE",
"69 151 CURVE SMOOTH"
);
}
);
width = 600;
},
{
associatedMasterId = "134B12F2-BF5D-48E3-8003-C7502B438C7E";
layerId = "022F0C25-1B26-4AE7-B043-C4B325365646";
name = "Dec 7 21, 08:46";
paths = (
{
closed = 1;
nodes = (
"57 64 OFFCURVE",
"153 -9 OFFCURVE",
"271 -9 CURVE SMOOTH",
"386 -9 OFFCURVE",
"503 60 OFFCURVE",
"503 193 CURVE SMOOTH",
"503 311 OFFCURVE",
"389 416 OFFCURVE",
"320 491 CURVE",
"184 455 LINE",
"176 427 LINE",
"236 350 OFFCURVE",
"365 255 OFFCURVE",
"365 155 CURVE SMOOTH",
"365 99 OFFCURVE",
"329 75 OFFCURVE",
"289 75 CURVE SMOOTH",
"233 75 OFFCURVE",
"190 126 OFFCURVE",
"190 193 CURVE SMOOTH",
"190 290 OFFCURVE",
"268 330 OFFCURVE",
"373 373 CURVE",
"347 406 LINE",
"233 385 OFFCURVE",
"57 291 OFFCURVE",
"57 174 CURVE SMOOTH"
);
}
);
width = 600;
},
{
associatedMasterId = "134B12F2-BF5D-48E3-8003-C7502B438C7E";
layerId = "3D5185A6-C010-435E-BD7C-158DE440F9A5";
name = "Dec 10 21, 09:58";
paths = (
{
closed = 1;
nodes = (
"90 59 OFFCURVE",
"175 -9 OFFCURVE",
"289 -9 CURVE SMOOTH",
"405 -9 OFFCURVE",
"503 62 OFFCURVE",
"503 187 CURVE SMOOTH",
"503 334 OFFCURVE",
"358 434 OFFCURVE",
"217 432 CURVE",
"217 460 LINE",
"168 378 LINE",
"257 365 OFFCURVE",
"354 278 OFFCURVE",
"354 156 CURVE SMOOTH",
"354 85 OFFCURVE",
"313 54 OFFCURVE",
"269 54 CURVE SMOOTH",
"222 54 OFFCURVE",
"184 87 OFFCURVE",
"184 150 CURVE SMOOTH",
"184 205 OFFCURVE",
"206 263 OFFCURVE",
"294 313 CURVE",
"268 361 LINE",
"154 312 OFFCURVE",
"90 239 OFFCURVE",
"90 150 CURVE SMOOTH"
);
}
);
width = 600;
},
{
associatedMasterId = "134B12F2-BF5D-48E3-8003-C7502B438C7E";
layerId = "25A76E80-0899-43BC-AB1F-F93D5D30A87F";
name = "15 Dec 21, 08:20";
paths = (
{
closed = 1;
nodes = (
"73 68 OFFCURVE",
"116 -8 OFFCURVE",
"252 -8 CURVE SMOOTH",
"395 -8 OFFCURVE",
"506 67 OFFCURVE",
"506 213 CURVE SMOOTH",
"506 345 OFFCURVE",
"370 443 OFFCURVE",
"176 443 CURVE SMOOTH",
"137 443 LINE",
"137 392 LINE",
"141 392 LINE SMOOTH",
"254 392 OFFCURVE",
"303 296 OFFCURVE",
"303 198 CURVE SMOOTH",
"303 109 OFFCURVE",
"270 68 OFFCURVE",
"213 68 CURVE SMOOTH",
"177 68 OFFCURVE",
"145 92 OFFCURVE",
"145 140 CURVE SMOOTH",
"145 205 OFFCURVE",
"201 250 OFFCURVE",
"316 250 CURVE SMOOTH",
"643 250 LINE",
"643 315 LINE",
"322 315 LINE SMOOTH",
"159 315 OFFCURVE",
"73 252 OFFCURVE",
"73 140 CURVE SMOOTH"
);
}
);
width = 600;
},
{
layerId = "134B12F2-BF5D-48E3-8003-C7502B438C7E";
paths = (
{
closed = 1;
nodes = (
"9 65 OFFCURVE",
"113 -7 OFFCURVE",
"235 -7 CURVE SMOOTH",
"357 -7 OFFCURVE",
"472 64 OFFCURVE",
"472 200 CURVE SMOOTH",
"472 301 OFFCURVE",
"399 406 OFFCURVE",
"289 495 CURVE",
"180 438 LINE",
"274 353 OFFCURVE",
"344 277 OFFCURVE",
"344 213 CURVE SMOOTH",
"344 158 OFFCURVE",
"287 129 OFFCURVE",
"230 129 CURVE SMOOTH",
"186 129 OFFCURVE",
"133 147 OFFCURVE",
"133 192 CURVE SMOOTH",
"133 213 OFFCURVE",
"145 231 OFFCURVE",
"167 245 CURVE SMOOTH",
"201 267 OFFCURVE",
"269 285 OFFCURVE",
"386 311 CURVE",
"334 399 LINE",
"225 383 OFFCURVE",
"130 354 OFFCURVE",
"81 320 CURVE SMOOTH",
"39 291 OFFCURVE",
"9 246 OFFCURVE",
"9 183 CURVE SMOOTH"
);
}
);
width = 628;
},
{
associatedMasterId = "134B12F2-BF5D-48E3-8003-C7502B438C7E";
layerId = "B085A112-BB74-485C-8169-F8537C36CFA8";
name = "Dec 15 21, 08:20";
paths = (
{
closed = 1;
nodes = (
"75 62 OFFCURVE",
"160 -9 OFFCURVE",
"290 -9 CURVE SMOOTH",
"404 -9 OFFCURVE",
"516 50 OFFCURVE",
"516 186 CURVE SMOOTH",
"516 334 OFFCURVE",
"383 438 OFFCURVE",
"207 438 CURVE SMOOTH",
"151 438 LINE",
"152 396 LINE",
"183 396 LINE SMOOTH",
"282 396 OFFCURVE",
"361 295 OFFCURVE",
"361 178 CURVE SMOOTH",
"361 87 OFFCURVE",
"312 54 OFFCURVE",
"264 54 CURVE SMOOTH",
"209 54 OFFCURVE",
"169 99 OFFCURVE",
"169 162 CURVE SMOOTH",
"169 229 OFFCURVE",
"215 302 OFFCURVE",
"333 333 CURVE",
"298 378 LINE",
"169 348 OFFCURVE",
"75 263 OFFCURVE",
"75 160 CURVE SMOOTH"
);
}
);
width = 600;
},
{
associatedMasterId = "9FF96064-8718-4A86-A5C8-73C592101F67";
layerId = "DBDDD8D8-73AD-4981-95C0-3ED1EB0C5307";
name = "Dec 15 21, 08:47";
paths = (
{
closed = 1;
nodes = (
"67 65 OFFCURVE",
"138 -9 OFFCURVE",
"248 -9 CURVE SMOOTH",
"354 -9 OFFCURVE",
"451 61 OFFCURVE",
"451 190 CURVE SMOOTH",
"451 311 OFFCURVE",
"357 439 OFFCURVE",
"180 439 CURVE SMOOTH",
"161 439 LINE",
"161 403 LINE",
"176 403 LINE SMOOTH",
"275 403 OFFCURVE",
"359 308 OFFCURVE",
"359 192 CURVE SMOOTH",
"359 102 OFFCURVE",
"308 50 OFFCURVE",
"241 50 CURVE SMOOTH",
"174 50 OFFCURVE",
"133 101 OFFCURVE",
"133 162 CURVE SMOOTH",
"133 221 OFFCURVE",
"172 303 OFFCURVE",
"321 340 CURVE",
"287 374 LINE",
"140 334 OFFCURVE",
"67 250 OFFCURVE",
"67 158 CURVE SMOOTH"
);
}
);
width = 548;
},
{
associatedMasterId = "9FF96064-8718-4A86-A5C8-73C592101F67";
layerId = "E99F6BC9-61FC-4227-A15F-5ECA26924408";
name = "Dec 15 21, 09:00";
paths = (
{
closed = 1;
nodes = (
"67 65 OFFCURVE",
"138 -9 OFFCURVE",
"248 -9 CURVE SMOOTH",
"354 -9 OFFCURVE",
"451 61 OFFCURVE",
"451 190 CURVE SMOOTH",
"451 311 OFFCURVE",
"357 439 OFFCURVE",
"180 439 CURVE SMOOTH",
"161 439 LINE",
"161 403 LINE",
"176 403 LINE SMOOTH",
"275 403 OFFCURVE",
"359 308 OFFCURVE",
"359 192 CURVE SMOOTH",
"359 102 OFFCURVE",
"308 50 OFFCURVE",
"241 50 CURVE SMOOTH",
"174 50 OFFCURVE",
"133 101 OFFCURVE",
"133 162 CURVE SMOOTH",
"133 221 OFFCURVE",
"172 303 OFFCURVE",
"321 340 CURVE",
"287 374 LINE",
"140 334 OFFCURVE",
"67 250 OFFCURVE",
"67 158 CURVE SMOOTH"
);
}
);
width = 548;
},
{
associatedMasterId = "9FF96064-8718-4A86-A5C8-73C592101F67";
layerId = "D9A23B3F-6143-402C-9D71-625AD54367FF";
name = "Dec 15 21, 09:51";
paths = (
{
closed = 1;
nodes = (
"67 68 OFFCURVE",
"138 -9 OFFCURVE",
"249 -9 CURVE SMOOTH",
"354 -9 OFFCURVE",
"450 59 OFFCURVE",
"450 190 CURVE SMOOTH",
"450 316 OFFCURVE",
"362 416 OFFCURVE",
"240 436 CURVE",
"138 435 LINE",
"147 403 LINE",
"171 403 LINE SMOOTH",
"265 403 OFFCURVE",
"358 323 OFFCURVE",
"358 194 CURVE SMOOTH",
"358 99 OFFCURVE",
"308 50 OFFCURVE",
"242 50 CURVE SMOOTH",
"173 50 OFFCURVE",
"133 104 OFFCURVE",
"133 171 CURVE SMOOTH",
"133 230 OFFCURVE",
"165 313 OFFCURVE",
"316 340 CURVE",
"282 376 LINE",
"132 344 OFFCURVE",
"67 259 OFFCURVE",
"67 166 CURVE SMOOTH"
);
}
);
width = 548;
},
{
associatedMasterId = "134B12F2-BF5D-48E3-8003-C7502B438C7E";
layerId = "3ECA2103-3A4F-4367-A54A-70B651AACD4A";
name = "Dec 15 21, 09:55";
paths = (
{
closed = 1;
nodes = (
"76 59 OFFCURVE",
"159 -9 OFFCURVE",
"283 -9 CURVE SMOOTH",
"403 -9 OFFCURVE",
"516 57 OFFCURVE",
"516 193 CURVE SMOOTH",
"516 362 OFFCURVE",
"374 438 OFFCURVE",
"207 438 CURVE SMOOTH",
"151 438 LINE",
"152 396 LINE",
"183 396 LINE SMOOTH",
"299 396 OFFCURVE",
"361 302 OFFCURVE",
"361 192 CURVE SMOOTH",
"361 92 OFFCURVE",
"316 54 OFFCURVE",
"262 54 CURVE SMOOTH",
"208 54 OFFCURVE",
"170 96 OFFCURVE",
"170 153 CURVE SMOOTH",
"170 218 OFFCURVE",
"218 287 OFFCURVE",
"347 311 CURVE",
"312 356 LINE",
"174 333 OFFCURVE",
"76 252 OFFCURVE",
"76 151 CURVE SMOOTH"
);
}
);
width = 600;
},
{
associatedMasterId = "9FF96064-8718-4A86-A5C8-73C592101F67";
layerId = "9E642B29-1D24-4B1C-930E-4F2516A4C656";
name = "Dec 16 21, 09:48";
paths = (
{
closed = 1;
nodes = (
"52 52 OFFCURVE",
"131 -9 OFFCURVE",
"238 -9 CURVE SMOOTH",
"345 -9 OFFCURVE",
"433 54 OFFCURVE",
"433 164 CURVE SMOOTH",
"433 236 OFFCURVE",
"399 291 OFFCURVE",
"354 340 CURVE SMOOTH",
"307 391 OFFCURVE",
"246 432 OFFCURVE",
"186 463 CURVE",
"118 403 LINE",
"174 368 OFFCURVE",
"228 343 OFFCURVE",
"270 299 CURVE SMOOTH",
"316 252 OFFCURVE",
"341 195 OFFCURVE",
"341 149 CURVE SMOOTH",
"341 85 OFFCURVE",
"292 50 OFFCURVE",
"230 50 CURVE SMOOTH",
"172 50 OFFCURVE",
"123 79 OFFCURVE",
"123 152 CURVE SMOOTH",
"123 221 OFFCURVE",
"168 293 OFFCURVE",
"270 334 CURVE",
"228 363 LINE",
"126 327 OFFCURVE",
"52 246 OFFCURVE",
"52 151 CURVE SMOOTH"
);
}
);
width = 548;
},
{
associatedMasterId = "9FF96064-8718-4A86-A5C8-73C592101F67";
layerId = "8AEF8339-5EA6-4D6E-91B9-98C335F1E334";
name = "Dec 17 21, 12:31";
paths = (
{
closed = 1;
nodes = (
"52 52 OFFCURVE",
"131 -9 OFFCURVE",
"238 -9 CURVE SMOOTH",
"345 -9 OFFCURVE",
"433 54 OFFCURVE",
"433 164 CURVE SMOOTH",
"433 236 OFFCURVE",
"399 291 OFFCURVE",
"354 340 CURVE SMOOTH",
"307 391 OFFCURVE",
"246 432 OFFCURVE",
"186 463 CURVE",
"118 403 LINE",
"174 368 OFFCURVE",
"228 343 OFFCURVE",
"270 299 CURVE SMOOTH",
"316 252 OFFCURVE",
"341 195 OFFCURVE",
"341 149 CURVE SMOOTH",
"341 85 OFFCURVE",
"292 50 OFFCURVE",
"230 50 CURVE SMOOTH",
"172 50 OFFCURVE",
"123 79 OFFCURVE",
"123 152 CURVE SMOOTH",
"123 221 OFFCURVE",
"168 293 OFFCURVE",
"270 334 CURVE",
"228 363 LINE",
"126 327 OFFCURVE",
"52 246 OFFCURVE",
"52 151 CURVE SMOOTH"
);
}
);
width = 548;
}
);
script = "";
category = "Smart Glyph";
subCategory = "";
},
